<svg width="28" height="30" viewBox="0 0 28 30" fill="none" xmlns="http://www.w3.org/2000/svg">
<g filter="url(#filter0_d_2718_34761)">
<path d="M14 2C12.0222 2 10.0888 2.58649 8.4443 3.6853C6.79981 4.78412 5.51809 6.3459 4.76121 8.17317C4.00433 10.0004 3.8063 12.0111 4.19215 13.9509C4.578 15.8907 5.53041 17.6725 6.92894 19.0711C8.32746 20.4696 10.1093 21.422 12.0491 21.8079C13.9889 22.1937 15.9996 21.9957 17.8268 21.2388C19.6541 20.4819 21.2159 19.2002 22.3147 17.5557C23.4135 15.9112 24 13.9778 24 12C24 10.6868 23.7413 9.38642 23.2388 8.17317C22.7363 6.95991 21.9997 5.85752 21.0711 4.92893C20.1425 4.00035 19.0401 3.26375 17.8268 2.7612C16.6136 2.25866 15.3132 2 14 2ZM14 20C12.4178 20 10.871 19.5308 9.55544 18.6518C8.23985 17.7727 7.21447 16.5233 6.60897 15.0615C6.00347 13.5997 5.84504 11.9911 6.15372 10.4393C6.4624 8.88743 7.22433 7.46197 8.34315 6.34315C9.46197 5.22433 10.8874 4.4624 12.4393 4.15372C13.9911 3.84504 15.5997 4.00346 17.0615 4.60896C18.5233 5.21447 19.7727 6.23984 20.6518 7.55544C21.5308 8.87103 22 10.4177 22 12C22 14.1217 21.1572 16.1566 19.6569 17.6569C18.1566 19.1571 16.1217 20 14 20ZM14 6C13.7348 6 13.4804 6.10536 13.2929 6.29289C13.1054 6.48043 13 6.73478 13 7V11.42L10.9 12.63C10.7074 12.7392 10.5564 12.9092 10.4708 13.1134C10.3852 13.3176 10.3698 13.5444 10.4269 13.7583C10.4841 13.9722 10.6107 14.1611 10.7868 14.2953C10.9629 14.4296 11.1786 14.5015 11.4 14.5C11.5752 14.5012 11.7476 14.4564 11.9 14.37L14.5 12.87L14.59 12.78L14.75 12.65C14.7891 12.6005 14.8226 12.5468 14.85 12.49C14.8826 12.4363 14.9094 12.3793 14.93 12.32C14.9572 12.2564 14.9741 12.1889 14.98 12.12L15 12V7C15 6.73478 14.8946 6.48043 14.7071 6.29289C14.5196 6.10536 14.2652 6 14 6Z" fill="#EC1D23"/>
</g>
<defs>
<filter id="filter0_d_2718_34761" x="-1" y="0" width="32" height="32" filterUnits="userSpaceOnUse" color-interpolation-filters="sRGB">
<feFlood flood-opacity="0" result="BackgroundImageFix"/>
<feColorMatrix in="SourceAlpha" type="matrix" values="0 0 0 0 0 0 0 0 0 0 0 0 0 0 0 0 0 0 127 0" result="hardAlpha"/>
<feOffset dy="4"/>
<feGaussianBlur stdDeviation="2"/>
<feComposite in2="hardAlpha" operator="out"/>
<feColorMatrix type="matrix" values="0 0 0 0 0 0 0 0 0 0 0 0 0 0 0 0 0 0 0.25 0"/>
<feBlend mode="normal" in2="BackgroundImageFix" result="effect1_dropShadow_2718_34761"/>
<feBlend mode="normal" in="SourceGraphic" in2="effect1_dropShadow_2718_34761" result="shape"/>
</filter>
</defs>
</svg>
