<svg width="30" height="30" viewBox="0 0 30 30" fill="none" xmlns="http://www.w3.org/2000/svg">
<g filter="url(#filter0_d_2718_34778)">
<path d="M25 2H5C4.73478 2 4.48043 2.10536 4.29289 2.29289C4.10536 2.48043 4 2.73478 4 3V11C4 11.2652 4.10536 11.5196 4.29289 11.7071C4.48043 11.8946 4.73478 12 5 12H8V21C8 21.2652 8.10536 21.5196 8.29289 21.7071C8.48043 21.8946 8.73478 22 9 22H21C21.2652 22 21.5196 21.8946 21.7071 21.7071C21.8946 21.5196 22 21.2652 22 21V12H25C25.2652 12 25.5196 11.8946 25.7071 11.7071C25.8946 11.5196 26 11.2652 26 11V3C26 2.73478 25.8946 2.48043 25.7071 2.29289C25.5196 2.10536 25.2652 2 25 2ZM10 20V18C10.5304 18 11.0391 18.2107 11.4142 18.5858C11.7893 18.9609 12 19.4696 12 20H10ZM20 20H18C18 19.4696 18.2107 18.9609 18.5858 18.5858C18.9609 18.2107 19.4696 18 20 18V20ZM20 16C18.9391 16 17.9217 16.4214 17.1716 17.1716C16.4214 17.9217 16 18.9391 16 20H14C14 18.9391 13.5786 17.9217 12.8284 17.1716C12.0783 16.4214 11.0609 16 10 16V8H20V16ZM24 10H22V7C22 6.73478 21.8946 6.48043 21.7071 6.29289C21.5196 6.10536 21.2652 6 21 6H9C8.73478 6 8.48043 6.10536 8.29289 6.29289C8.10536 6.48043 8 6.73478 8 7V10H6V4H24V10ZM15 15C15.5933 15 16.1734 14.8241 16.6667 14.4944C17.1601 14.1648 17.5446 13.6962 17.7716 13.1481C17.9987 12.5999 18.0581 11.9967 17.9424 11.4147C17.8266 10.8328 17.5409 10.2982 17.1213 9.87868C16.7018 9.45912 16.1672 9.1734 15.5853 9.05764C15.0033 8.94189 14.4001 9.0013 13.8519 9.22836C13.3038 9.45542 12.8352 9.83994 12.5056 10.3333C12.1759 10.8266 12 11.4067 12 12C12 12.7956 12.3161 13.5587 12.8787 14.1213C13.4413 14.6839 14.2044 15 15 15ZM15 11C15.1978 11 15.3911 11.0586 15.5556 11.1685C15.72 11.2784 15.8482 11.4346 15.9239 11.6173C15.9996 11.8 16.0194 12.0011 15.9808 12.1951C15.9422 12.3891 15.847 12.5673 15.7071 12.7071C15.5673 12.847 15.3891 12.9422 15.1951 12.9808C15.0011 13.0194 14.8 12.9996 14.6173 12.9239C14.4346 12.8482 14.2784 12.72 14.1685 12.5556C14.0586 12.3911 14 12.1978 14 12C14 11.7348 14.1054 11.4804 14.2929 11.2929C14.4804 11.1054 14.7348 11 15 11Z" fill="#469E7B"/>
</g>
<defs>
<filter id="filter0_d_2718_34778" x="-1" y="0" width="32" height="32" filterUnits="userSpaceOnUse" color-interpolation-filters="sRGB">
<feFlood flood-opacity="0" result="BackgroundImageFix"/>
<feColorMatrix in="SourceAlpha" type="matrix" values="0 0 0 0 0 0 0 0 0 0 0 0 0 0 0 0 0 0 127 0" result="hardAlpha"/>
<feOffset dy="4"/>
<feGaussianBlur stdDeviation="2"/>
<feComposite in2="hardAlpha" operator="out"/>
<feColorMatrix type="matrix" values="0 0 0 0 0 0 0 0 0 0 0 0 0 0 0 0 0 0 0.25 0"/>
<feBlend mode="normal" in2="BackgroundImageFix" result="effect1_dropShadow_2718_34778"/>
<feBlend mode="normal" in="SourceGraphic" in2="effect1_dropShadow_2718_34778" result="shape"/>
</filter>
</defs>
</svg>
