<svg width="31" height="31" viewBox="0 0 31 31" fill="none" xmlns="http://www.w3.org/2000/svg">
<g filter="url(#filter0_d_2718_34774)">
<path d="M9 10.9999C8.80222 10.9999 8.60888 11.0586 8.44443 11.1685C8.27998 11.2784 8.15181 11.4345 8.07612 11.6173C8.00043 11.8 7.98063 12.001 8.01921 12.195C8.0578 12.389 8.15304 12.5672 8.29289 12.707C8.43275 12.8469 8.61093 12.9421 8.80491 12.9807C8.99889 13.0193 9.19996 12.9995 9.38268 12.9238C9.56541 12.8481 9.72159 12.72 9.83147 12.5555C9.94135 12.3911 10 12.1977 10 11.9999C10 11.7347 9.89464 11.4804 9.70711 11.2928C9.51957 11.1053 9.26522 10.9999 9 10.9999ZM14.86 9.44994L7.71 2.28994C7.61676 2.1967 7.50607 2.12274 7.38425 2.07228C7.26243 2.02182 7.13186 1.99585 7 1.99585C6.86814 1.99585 6.73757 2.02182 6.61575 2.07228C6.49393 2.12274 6.38324 2.1967 6.29 2.28994C6.1017 2.47824 5.99591 2.73364 5.99591 2.99994C5.99591 3.26624 6.1017 3.52164 6.29 3.70994L7.59 4.99994H7C6.20435 4.99994 5.44129 5.31601 4.87868 5.87862C4.31607 6.44123 4 7.20429 4 7.99994V15.9999C4 16.7956 4.31607 17.5587 4.87868 18.1213C5.44129 18.6839 6.20435 18.9999 7 18.9999H21.59L24.29 21.7099C24.383 21.8037 24.4936 21.8781 24.6154 21.9288C24.7373 21.9796 24.868 22.0057 25 22.0057C25.132 22.0057 25.2627 21.9796 25.3846 21.9288C25.5064 21.8781 25.617 21.8037 25.71 21.7099C25.8037 21.617 25.8781 21.5064 25.9289 21.3845C25.9797 21.2627 26.0058 21.132 26.0058 20.9999C26.0058 20.8679 25.9797 20.7372 25.9289 20.6154C25.8781 20.4935 25.8037 20.3829 25.71 20.2899L14.86 9.44994ZM14.12 11.5399L15.46 12.8799C15.3185 12.9563 15.1608 12.9975 15 12.9999C14.7348 12.9999 14.4804 12.8946 14.2929 12.707C14.1054 12.5195 14 12.2652 14 11.9999C14.0024 11.8392 14.0436 11.6814 14.12 11.5399ZM7 16.9999C6.73478 16.9999 6.48043 16.8946 6.29289 16.707C6.10536 16.5195 6 16.2652 6 15.9999V7.99994C6 7.73472 6.10536 7.48037 6.29289 7.29283C6.48043 7.1053 6.73478 6.99994 7 6.99994H9.59L12.69 10.0999C12.2471 10.6344 12.0033 11.3059 12 11.9999C12 12.7956 12.3161 13.5587 12.8787 14.1213C13.4413 14.6839 14.2044 14.9999 15 14.9999C15.6941 14.9967 16.3656 14.7528 16.9 14.3099L19.59 16.9999H7ZM23 4.99994H15.66C15.3948 4.99994 15.1404 5.1053 14.9529 5.29283C14.7654 5.48037 14.66 5.73472 14.66 5.99994C14.66 6.26516 14.7654 6.51951 14.9529 6.70705C15.1404 6.89458 15.3948 6.99994 15.66 6.99994H23C23.2652 6.99994 23.5196 7.1053 23.7071 7.29283C23.8946 7.48037 24 7.73472 24 7.99994V15.3399C24 15.6052 24.1054 15.8595 24.2929 16.047C24.4804 16.2346 24.7348 16.3399 25 16.3399C25.2652 16.3399 25.5196 16.2346 25.7071 16.047C25.8946 15.8595 26 15.6052 26 15.3399V7.99994C26 7.20429 25.6839 6.44123 25.1213 5.87862C24.5587 5.31601 23.7956 4.99994 23 4.99994ZM22 11.9999C22 11.8022 21.9414 11.6088 21.8315 11.4444C21.7216 11.2799 21.5654 11.1517 21.3827 11.0761C21.2 11.0004 20.9989 10.9806 20.8049 11.0192C20.6109 11.0577 20.4327 11.153 20.2929 11.2928C20.153 11.4327 20.0578 11.6109 20.0192 11.8049C19.9806 11.9988 20.0004 12.1999 20.0761 12.3826C20.1518 12.5654 20.28 12.7215 20.4444 12.8314C20.6089 12.9413 20.8022 12.9999 21 12.9999C21.2652 12.9999 21.5196 12.8946 21.7071 12.707C21.8946 12.5195 22 12.2652 22 11.9999Z" fill="#EC1D23"/>
</g>
<defs>
<filter id="filter0_d_2718_34774" x="-1" y="0" width="32" height="32" filterUnits="userSpaceOnUse" color-interpolation-filters="sRGB">
<feFlood flood-opacity="0" result="BackgroundImageFix"/>
<feColorMatrix in="SourceAlpha" type="matrix" values="0 0 0 0 0 0 0 0 0 0 0 0 0 0 0 0 0 0 127 0" result="hardAlpha"/>
<feOffset dy="4"/>
<feGaussianBlur stdDeviation="2"/>
<feComposite in2="hardAlpha" operator="out"/>
<feColorMatrix type="matrix" values="0 0 0 0 0 0 0 0 0 0 0 0 0 0 0 0 0 0 0.25 0"/>
<feBlend mode="normal" in2="BackgroundImageFix" result="effect1_dropShadow_2718_34774"/>
<feBlend mode="normal" in="SourceGraphic" in2="effect1_dropShadow_2718_34774" result="shape"/>
</filter>
</defs>
</svg>
