<svg width="28" height="30" viewBox="0 0 28 30" fill="none" xmlns="http://www.w3.org/2000/svg">
<g filter="url(#filter0_d_2724_34791)">
<path d="M21 2H7C6.20435 2 5.44129 2.31607 4.87868 2.87868C4.31607 3.44129 4 4.20435 4 5V15C4 15.7956 4.31607 16.5587 4.87868 17.1213C5.44129 17.6839 6.20435 18 7 18H18.59L22.29 21.71C22.3834 21.8027 22.4943 21.876 22.6161 21.9258C22.7379 21.9755 22.8684 22.0008 23 22C23.1312 22.0034 23.2613 21.976 23.38 21.92C23.5626 21.845 23.7189 21.7176 23.8293 21.5539C23.9396 21.3901 23.999 21.1974 24 21V5C24 4.20435 23.6839 3.44129 23.1213 2.87868C22.5587 2.31607 21.7956 2 21 2ZM22 18.59L19.71 16.29C19.6166 16.1973 19.5057 16.124 19.3839 16.0742C19.2621 16.0245 19.1316 15.9992 19 16H7C6.73478 16 6.48043 15.8946 6.29289 15.7071C6.10536 15.5196 6 15.2652 6 15V5C6 4.73478 6.10536 4.48043 6.29289 4.29289C6.48043 4.10536 6.73478 4 7 4H21C21.2652 4 21.5196 4.10536 21.7071 4.29289C21.8946 4.48043 22 4.73478 22 5V18.59Z" fill="#8E96FF"/>
</g>
<defs>
<filter id="filter0_d_2724_34791" x="-2" y="0" width="32" height="32" filterUnits="userSpaceOnUse" color-interpolation-filters="sRGB">
<feFlood flood-opacity="0" result="BackgroundImageFix"/>
<feColorMatrix in="SourceAlpha" type="matrix" values="0 0 0 0 0 0 0 0 0 0 0 0 0 0 0 0 0 0 127 0" result="hardAlpha"/>
<feOffset dy="4"/>
<feGaussianBlur stdDeviation="2"/>
<feComposite in2="hardAlpha" operator="out"/>
<feColorMatrix type="matrix" values="0 0 0 0 0 0 0 0 0 0 0 0 0 0 0 0 0 0 0.25 0"/>
<feBlend mode="normal" in2="BackgroundImageFix" result="effect1_dropShadow_2724_34791"/>
<feBlend mode="normal" in="SourceGraphic" in2="effect1_dropShadow_2724_34791" result="shape"/>
</filter>
</defs>
</svg>
