<svg width="70" height="70" viewBox="0 0 70 70" fill="none" xmlns="http://www.w3.org/2000/svg">
<circle cx="34.6257" cy="34.6257" r="34.6257" fill="#51DC8E"/>
<path fill-rule="evenodd" clip-rule="evenodd" d="M32.5 26.2421C32.6787 24.8367 32.7708 23.4042 32.7708 21.9502C32.7708 14.1307 30.1074 6.93331 25.6384 1.21558C25.6303 1.20516 25.6221 1.19474 25.614 1.18433C11.5873 4.95489 1.07972 17.3154 0.0782928 32.279C5.87659 27.5609 13.274 24.7326 21.3321 24.7326C25.2282 24.7326 28.97 25.3938 32.4512 26.6102C32.4681 26.4877 32.4844 26.365 32.5 26.2421Z" fill="#4A80F0"/>
<path fill-rule="evenodd" clip-rule="evenodd" d="M6.50063 54.8271C2.40963 49.1415 9.15527e-05 42.165 9.15527e-05 34.6257C9.15527e-05 33.837 0.0264608 33.0545 0.0783658 32.279C5.87665 27.5609 13.2741 24.7327 21.332 24.7327C25.2282 24.7327 28.97 25.3939 32.4512 26.6103C30.522 40.5572 20.0573 51.7773 6.50063 54.8271Z" fill="#51DC8E"/>
<path fill-rule="evenodd" clip-rule="evenodd" d="M54.7486 62.807C63.5289 56.5262 69.2513 46.2442 69.2513 34.6256C69.2513 33.4518 69.1929 32.2916 69.0789 31.1479C66.6497 30.5914 64.1204 30.2974 61.5224 30.2974C55.5652 30.2974 49.9691 31.8432 45.1132 34.5555C51.239 40.6574 55.0302 49.1013 55.0302 58.4307C55.0302 59.9138 54.9344 61.3745 54.7486 62.807Z" fill="#4A80F0"/>
<path fill-rule="evenodd" clip-rule="evenodd" d="M28.1424 68.6455C12.118 65.6101 4.57764e-05 51.5331 4.57764e-05 34.6257C4.57764e-05 33.837 0.0264151 33.0545 0.0783201 32.279C5.8766 27.5609 13.274 24.7327 21.332 24.7327C30.6136 24.7327 39.0188 28.4851 45.1132 34.5557C34.7987 40.3171 27.8242 51.3419 27.8242 63.9957C27.8242 65.5733 27.9326 67.1256 28.1424 68.6455Z" fill="#7A6AFB"/>
<path fill-rule="evenodd" clip-rule="evenodd" d="M54.7486 62.8071C54.9344 61.3746 55.0302 59.9139 55.0302 58.4308C55.0302 49.1014 51.239 40.6575 45.1132 34.5557C34.7987 40.3171 27.8242 51.3419 27.8242 63.9957C27.8242 65.5733 27.9326 67.1255 28.1424 68.6454C30.2426 69.0432 32.4099 69.2514 34.6258 69.2514C42.1304 69.2514 49.0774 66.8639 54.7486 62.8071Z" fill="#483FF7"/>
<path fill-rule="evenodd" clip-rule="evenodd" d="M32.4512 26.6103C30.522 40.5572 20.0573 51.7773 6.50059 54.8271C2.40959 49.1415 4.57764e-05 42.165 4.57764e-05 34.6257C4.57764e-05 33.837 0.0264151 33.0545 0.0783201 32.279C5.8766 27.5609 13.274 24.7327 21.332 24.7327C25.2282 24.7327 28.97 25.3939 32.4512 26.6103Z" fill="#483FF7"/>
<path fill-rule="evenodd" clip-rule="evenodd" d="M19.477 19.8931C19.477 16.5899 22.1548 13.9121 25.458 13.9121H49.7745C53.7016 13.9121 56.8851 17.0956 56.8851 21.0227C56.8851 24.9498 53.7016 28.1334 49.7745 28.1334H19.477V19.8931ZM25.458 18.2403C24.5452 18.2403 23.8052 18.9803 23.8052 19.8931V23.8052H49.7745C51.3112 23.8052 52.5569 22.5594 52.5569 21.0227C52.5569 19.4861 51.3112 18.2403 49.7745 18.2403H25.458Z" fill="white"/>
<path fill-rule="evenodd" clip-rule="evenodd" d="M19.1678 31.5342H41.5818C45.5942 31.5342 48.847 34.7869 48.847 38.7994C48.847 42.8119 45.5942 46.0646 41.5818 46.0646H33.6982V49.6199C33.6982 53.6324 30.4455 56.8851 26.433 56.8851C22.4206 56.8851 19.1678 53.6324 19.1678 49.6199V31.5342ZM23.496 35.8624V49.6199C23.496 51.242 24.811 52.5569 26.433 52.5569C28.0551 52.5569 29.37 51.242 29.37 49.6199V41.7364H41.5818C43.2038 41.7364 44.5188 40.4215 44.5188 38.7994C44.5188 37.1773 43.2038 35.8624 41.5818 35.8624H23.496Z" fill="white"/>
</svg>
