<svg width="20" height="20" viewBox="0 0 20 20" fill="none" xmlns="http://www.w3.org/2000/svg">
<path fill-rule="evenodd" clip-rule="evenodd" d="M4.16683 10.8334H14.0543L11.0268 14.4667C10.7318 14.8201 10.7802 15.3459 11.1335 15.6401C11.4877 15.9351 12.0127 15.8867 12.3077 15.5334L16.4743 10.5334C16.5068 10.4942 16.5227 10.4484 16.5468 10.4051C16.5668 10.3701 16.591 10.3401 16.606 10.3017C16.6435 10.2059 16.666 10.1051 16.666 10.0034C16.666 10.0026 16.6668 10.0009 16.6668 10.0001C16.6668 9.99925 16.666 9.99758 16.666 9.99675C16.666 9.89508 16.6435 9.79425 16.606 9.69841C16.591 9.66008 16.5668 9.63008 16.5468 9.59508C16.5227 9.55175 16.5068 9.50592 16.4743 9.46675L12.3077 4.46675C12.1418 4.26925 11.9052 4.16675 11.6668 4.16675C11.4785 4.16675 11.2893 4.23008 11.1335 4.36008C10.7802 4.65425 10.7318 5.18008 11.0268 5.53341L14.0543 9.16675H4.16683C3.70683 9.16675 3.3335 9.54008 3.3335 10.0001C3.3335 10.4601 3.70683 10.8334 4.16683 10.8334Z" fill="#141414"/>
<mask id="mask0_37_26946" style="mask-type:alpha" maskUnits="userSpaceOnUse" x="3" y="4" width="14" height="12">
<path fill-rule="evenodd" clip-rule="evenodd" d="M4.16683 10.8334H14.0543L11.0268 14.4667C10.7318 14.8201 10.7802 15.3459 11.1335 15.6401C11.4877 15.9351 12.0127 15.8867 12.3077 15.5334L16.4743 10.5334C16.5068 10.4942 16.5227 10.4484 16.5468 10.4051C16.5668 10.3701 16.591 10.3401 16.606 10.3017C16.6435 10.2059 16.666 10.1051 16.666 10.0034C16.666 10.0026 16.6668 10.0009 16.6668 10.0001C16.6668 9.99925 16.666 9.99758 16.666 9.99675C16.666 9.89508 16.6435 9.79425 16.606 9.69841C16.591 9.66008 16.5668 9.63008 16.5468 9.59508C16.5227 9.55175 16.5068 9.50592 16.4743 9.46675L12.3077 4.46675C12.1418 4.26925 11.9052 4.16675 11.6668 4.16675C11.4785 4.16675 11.2893 4.23008 11.1335 4.36008C10.7802 4.65425 10.7318 5.18008 11.0268 5.53341L14.0543 9.16675H4.16683C3.70683 9.16675 3.3335 9.54008 3.3335 10.0001C3.3335 10.4601 3.70683 10.8334 4.16683 10.8334Z" fill="white"/>
</mask>
<g mask="url(#mask0_37_26946)">
<rect width="20" height="20" fill="#141414"/>
</g>
</svg>
