<svg width="30" height="30" viewBox="0 0 30 30" fill="none" xmlns="http://www.w3.org/2000/svg">
<path d="M11.4091 13.3959L10.5524 14.25H11.7621H21.2496C21.4485 14.25 21.6393 14.329 21.78 14.4697C21.9206 14.6103 21.9996 14.8011 21.9996 15C21.9996 15.1989 21.9206 15.3897 21.78 15.5303C21.6393 15.671 21.4485 15.75 21.2496 15.75H11.7621H10.5524L11.4091 16.6041L15.5341 20.7166L15.535 20.7175C15.6053 20.7872 15.6611 20.8702 15.6992 20.9616C15.7373 21.053 15.7569 21.151 15.7569 21.25C15.7569 21.349 15.7373 21.447 15.6992 21.5384C15.6611 21.6298 15.6053 21.7128 15.535 21.7825L15.5321 21.7854C15.4624 21.8557 15.3795 21.9115 15.2881 21.9496C15.1967 21.9876 15.0986 22.0072 14.9996 22.0072C14.9006 22.0072 14.8026 21.9876 14.7112 21.9496C14.6198 21.9115 14.5369 21.8557 14.4671 21.7854L14.4657 21.7839L8.22003 15.5383C8.15331 15.4677 8.10093 15.3848 8.06581 15.2942L8.0659 15.2942L8.06212 15.285C7.98711 15.1024 7.98711 14.8976 8.06212 14.715L8.06221 14.715L8.06581 14.7057C8.10093 14.6152 8.15331 14.5323 8.22003 14.4617L14.4657 8.21604L14.1204 7.87079L14.4657 8.21604C14.6073 8.07443 14.7994 7.99487 14.9996 7.99487C15.1999 7.99487 15.392 8.07443 15.5336 8.21604L15.8818 7.86783L15.5336 8.21604C15.6752 8.35765 15.7547 8.54972 15.7547 8.74999C15.7547 8.95009 15.6753 9.14201 15.5339 9.28359C15.5338 9.2837 15.5337 9.28382 15.5336 9.28393L11.4091 13.3959Z" fill="#0D1C2E" stroke="#0D1C2E"/>
</svg>
