<svg width="48" height="49" viewBox="0 0 48 49" fill="none" xmlns="http://www.w3.org/2000/svg">
<path d="M41.74 35L36.32 25.64C37.4291 23.603 38.0069 21.3193 38 19C38 15.287 36.525 11.726 33.8995 9.1005C31.274 6.475 27.7131 5 24 5C20.287 5 16.726 6.475 14.1005 9.1005C11.475 11.726 10 15.287 10 19C9.99314 21.3193 10.5709 23.603 11.68 25.64L6.26002 35C6.08415 35.3046 5.99172 35.6502 5.99207 36.002C5.99241 36.3537 6.08552 36.6992 6.262 37.0035C6.43848 37.3077 6.69209 37.5601 6.99724 37.735C7.30238 37.91 7.64828 38.0014 8.00002 38H13.74L16.66 42.92C16.7585 43.0831 16.8797 43.2312 17.02 43.36C17.3908 43.7174 17.8851 43.9179 18.4 43.92H18.68C18.982 43.8787 19.2705 43.7689 19.5235 43.5991C19.7765 43.4292 19.9874 43.2038 20.14 42.94L24 36.3L27.86 43C28.0149 43.2601 28.2267 43.4816 28.4796 43.6479C28.7325 43.8142 29.0199 43.9209 29.32 43.96H29.6C30.1219 43.9631 30.6243 43.7622 31 43.4C31.1345 43.2786 31.2493 43.1369 31.34 42.98L34.26 38.06H40C40.3524 38.0614 40.699 37.9697 41.0045 37.794C41.3101 37.6184 41.5638 37.3652 41.74 37.06C41.9269 36.7489 42.0256 36.3929 42.0256 36.03C42.0256 35.6671 41.9269 35.3111 41.74 35ZM18.38 38.06L16.6 35.08C16.4248 34.7843 16.1762 34.5388 15.8785 34.3672C15.5807 34.1955 15.2437 34.1035 14.9 34.1H11.44L14.3 29.14C16.2695 31.0378 18.7517 32.3171 21.44 32.82L18.38 38.06ZM24 29C22.0222 29 20.0888 28.4135 18.4443 27.3147C16.7998 26.2159 15.5181 24.6541 14.7612 22.8268C14.0044 20.9996 13.8063 18.9889 14.1922 17.0491C14.578 15.1093 15.5304 13.3275 16.929 11.9289C18.3275 10.5304 20.1093 9.578 22.0491 9.19215C23.9889 8.80629 25.9996 9.00433 27.8269 9.7612C29.6541 10.5181 31.2159 11.7998 32.3147 13.4443C33.4135 15.0888 34 17.0222 34 19C34 21.6522 32.9465 24.1957 31.0711 26.0711C29.1957 27.9464 26.6522 29 24 29ZM33.1 34.1C32.7563 34.1035 32.4194 34.1955 32.1216 34.3672C31.8238 34.5388 31.5753 34.7843 31.4 35.08L29.62 38.06L26.58 32.76C29.259 32.2468 31.732 30.9686 33.7 29.08L36.56 34.04L33.1 34.1Z" fill="white"/>
</svg>
