<svg width="40" height="40" viewBox="0 0 40 40" fill="none" xmlns="http://www.w3.org/2000/svg">
<path fill-rule="evenodd" clip-rule="evenodd" d="M20.0002 6.66659C23.6769 6.66659 26.6669 9.65659 26.6669 13.3333C26.6669 17.0099 23.6769 19.9999 20.0002 19.9999C16.3236 19.9999 13.3336 17.0099 13.3336 13.3333C13.3336 9.65659 16.3236 6.66659 20.0002 6.66659M31.6152 34.5849L27.7669 19.6199C29.1602 17.8999 30.0002 15.7149 30.0002 13.3333C30.0002 7.81825 25.5152 3.33325 20.0002 3.33325C14.4852 3.33325 10.0002 7.81825 10.0002 13.3333C10.0002 15.7149 10.8402 17.8999 12.2335 19.6199L8.38521 34.5849C8.21854 35.2383 8.45854 35.9266 8.99688 36.3316C9.53521 36.7366 10.2635 36.7733 10.8435 36.4366L19.7269 31.2216L29.1935 36.4583C29.4452 36.5983 29.7235 36.6666 30.0002 36.6666C30.3619 36.6666 30.7219 36.5499 31.0202 36.3183C31.5469 35.9116 31.7802 35.2299 31.6152 34.5849" fill="white"/>
<mask id="mask0_1604_33940" style="mask-type:alpha" maskUnits="userSpaceOnUse" x="8" y="3" width="24" height="34">
<path fill-rule="evenodd" clip-rule="evenodd" d="M20.0002 6.66659C23.6769 6.66659 26.6669 9.65659 26.6669 13.3333C26.6669 17.0099 23.6769 19.9999 20.0002 19.9999C16.3236 19.9999 13.3336 17.0099 13.3336 13.3333C13.3336 9.65659 16.3236 6.66659 20.0002 6.66659M31.6152 34.5849L27.7669 19.6199C29.1602 17.8999 30.0002 15.7149 30.0002 13.3333C30.0002 7.81825 25.5152 3.33325 20.0002 3.33325C14.4852 3.33325 10.0002 7.81825 10.0002 13.3333C10.0002 15.7149 10.8402 17.8999 12.2335 19.6199L8.38521 34.5849C8.21854 35.2383 8.45854 35.9266 8.99688 36.3316C9.53521 36.7366 10.2635 36.7733 10.8435 36.4366L19.7269 31.2216L29.1935 36.4583C29.4452 36.5983 29.7235 36.6666 30.0002 36.6666C30.3619 36.6666 30.7219 36.5499 31.0202 36.3183C31.5469 35.9116 31.7802 35.2299 31.6152 34.5849" fill="white"/>
</mask>
<g mask="url(#mask0_1604_33940)">
</g>
</svg>
