<svg width="18" height="19" viewBox="0 0 18 19" fill="none" xmlns="http://www.w3.org/2000/svg">
<path fill-rule="evenodd" clip-rule="evenodd" d="M8.33364 17.75C8.24814 17.75 8.16189 17.735 8.07714 17.7043C7.75314 17.5865 7.55064 17.2625 7.58814 16.9198L8.16414 11.6H3.75039C3.47364 11.6 3.21939 11.4478 3.08889 11.2033C2.95839 10.9588 2.97339 10.6633 3.12714 10.433L9.04314 1.58301C9.23514 1.29576 9.59814 1.17651 9.92289 1.29576C10.2476 1.41351 10.4494 1.73751 10.4119 2.08026L9.83589 7.40001H14.2504C14.5271 7.40001 14.7814 7.55226 14.9119 7.79676C15.0416 8.04126 15.0274 8.33676 14.8736 8.56701L8.95689 17.417C8.81514 17.63 8.57814 17.75 8.33364 17.75Z" fill="#141414"/>
<mask id="mask0_37_24601" style="mask-type:alpha" maskUnits="userSpaceOnUse" x="3" y="1" width="12" height="17">
<path fill-rule="evenodd" clip-rule="evenodd" d="M8.33364 17.75C8.24814 17.75 8.16189 17.735 8.07714 17.7043C7.75314 17.5865 7.55064 17.2625 7.58814 16.9198L8.16414 11.6H3.75039C3.47364 11.6 3.21939 11.4478 3.08889 11.2033C2.95839 10.9588 2.97339 10.6633 3.12714 10.433L9.04314 1.58301C9.23514 1.29576 9.59814 1.17651 9.92289 1.29576C10.2476 1.41351 10.4494 1.73751 10.4119 2.08026L9.83589 7.40001H14.2504C14.5271 7.40001 14.7814 7.55226 14.9119 7.79676C15.0416 8.04126 15.0274 8.33676 14.8736 8.56701L8.95689 17.417C8.81514 17.63 8.57814 17.75 8.33364 17.75Z" fill="white"/>
</mask>
<g mask="url(#mask0_37_24601)">
</g>
</svg>
