<svg width="35" height="35" viewBox="0 0 35 35" fill="none" xmlns="http://www.w3.org/2000/svg">
<path d="M27.7083 9.47928H25.8416L25.375 8.02095C25.0724 7.16524 24.5113 6.42481 23.7692 5.90222C23.0271 5.37964 22.1409 5.10078 21.2333 5.10428H13.7666C12.8501 5.106 11.9573 5.39549 11.2142 5.93189C10.4711 6.4683 9.91518 7.22454 9.62496 8.09386L9.15829 9.5522H7.29163C6.1313 9.5522 5.01851 10.0131 4.19803 10.8336C3.37756 11.6541 2.91663 12.7669 2.91663 13.9272V25.5939C2.91663 26.7542 3.37756 27.867 4.19803 28.6875C5.01851 29.5079 6.1313 29.9689 7.29163 29.9689H27.7083C28.8686 29.9689 29.9814 29.5079 30.8019 28.6875C31.6224 27.867 32.0833 26.7542 32.0833 25.5939V13.9272C32.093 13.3466 31.987 12.7698 31.7714 12.2306C31.5559 11.6913 31.2352 11.2004 30.828 10.7864C30.4207 10.3723 29.9352 10.0436 29.3995 9.81914C28.8639 9.59473 28.289 9.4792 27.7083 9.47928ZM29.1666 25.5209C29.1666 25.9077 29.013 26.2787 28.7395 26.5521C28.466 26.8256 28.0951 26.9793 27.7083 26.9793H7.29163C6.90485 26.9793 6.53392 26.8256 6.26043 26.5521C5.98694 26.2787 5.83329 25.9077 5.83329 25.5209V13.8543C5.83329 13.4675 5.98694 13.0966 6.26043 12.8231C6.53392 12.5496 6.90485 12.3959 7.29163 12.3959H10.2083C10.5263 12.4125 10.841 12.3246 11.1043 12.1455C11.3677 11.9665 11.5652 11.7061 11.6666 11.4043L12.4541 9.01261C12.552 8.72296 12.7384 8.47138 12.987 8.29343C13.2356 8.11548 13.5338 8.02016 13.8395 8.02095H21.3062C21.6119 8.02016 21.9102 8.11548 22.1588 8.29343C22.4074 8.47138 22.5938 8.72296 22.6916 9.01261L23.4791 11.4043C23.5727 11.6825 23.748 11.9259 23.9822 12.1028C24.2164 12.2798 24.4985 12.3819 24.7916 12.3959H27.7083C28.0951 12.3959 28.466 12.5496 28.7395 12.8231C29.013 13.0966 29.1666 13.4675 29.1666 13.8543V25.5209ZM17.5 12.3959C16.3462 12.3959 15.2184 12.7381 14.2591 13.379C13.2998 14.02 12.5522 14.9311 12.1107 15.997C11.6691 17.0629 11.5536 18.2358 11.7787 19.3673C12.0038 20.4989 12.5594 21.5383 13.3752 22.3541C14.191 23.1699 15.2304 23.7254 16.3619 23.9505C17.4935 24.1756 18.6664 24.0601 19.7323 23.6186C20.7982 23.1771 21.7092 22.4294 22.3502 21.4701C22.9912 20.5108 23.3333 19.383 23.3333 18.2293C23.3333 16.6822 22.7187 15.1985 21.6247 14.1045C20.5308 13.0105 19.0471 12.3959 17.5 12.3959ZM17.5 21.1459C16.9231 21.1459 16.3592 20.9749 15.8795 20.6544C15.3999 20.3339 15.0261 19.8784 14.8053 19.3454C14.5846 18.8125 14.5268 18.226 14.6393 17.6603C14.7519 17.0945 15.0297 16.5748 15.4376 16.1669C15.8455 15.759 16.3652 15.4812 16.9309 15.3687C17.4967 15.2561 18.0832 15.3139 18.6161 15.5346C19.1491 15.7554 19.6046 16.1292 19.9251 16.6089C20.2456 17.0885 20.4166 17.6524 20.4166 18.2293C20.4166 19.0028 20.1093 19.7447 19.5624 20.2917C19.0154 20.8387 18.2735 21.1459 17.5 21.1459Z" fill="white"/>
</svg>
