<svg width="26" height="26" viewBox="0 0 26 26" fill="none" xmlns="http://www.w3.org/2000/svg">
<path fill-rule="evenodd" clip-rule="evenodd" d="M14.5321 13L19.1829 8.34928C19.6064 7.92569 19.6064 7.24103 19.1829 6.81744C18.7593 6.39386 18.0746 6.39386 17.651 6.81744L13.0003 11.4682L8.34952 6.81744C7.92594 6.39386 7.24127 6.39386 6.81769 6.81744C6.3941 7.24103 6.3941 7.92569 6.81769 8.34928L11.4684 13L6.81769 17.6508C6.3941 18.0744 6.3941 18.759 6.81769 19.1826C7.02894 19.3939 7.30627 19.5 7.5836 19.5C7.86094 19.5 8.13827 19.3939 8.34952 19.1826L13.0003 14.5319L17.651 19.1826C17.8623 19.3939 18.1396 19.5 18.4169 19.5C18.6943 19.5 18.9716 19.3939 19.1829 19.1826C19.6064 18.759 19.6064 18.0744 19.1829 17.6508L14.5321 13Z" fill="#425466"/>
<mask id="mask0_1719_37682" style="mask-type:alpha" maskUnits="userSpaceOnUse" x="6" y="6" width="14" height="14">
<path fill-rule="evenodd" clip-rule="evenodd" d="M14.5321 13L19.1829 8.34928C19.6064 7.92569 19.6064 7.24103 19.1829 6.81744C18.7593 6.39386 18.0746 6.39386 17.651 6.81744L13.0003 11.4682L8.34952 6.81744C7.92594 6.39386 7.24127 6.39386 6.81769 6.81744C6.3941 7.24103 6.3941 7.92569 6.81769 8.34928L11.4684 13L6.81769 17.6508C6.3941 18.0744 6.3941 18.759 6.81769 19.1826C7.02894 19.3939 7.30627 19.5 7.5836 19.5C7.86094 19.5 8.13827 19.3939 8.34952 19.1826L13.0003 14.5319L17.651 19.1826C17.8623 19.3939 18.1396 19.5 18.4169 19.5C18.6943 19.5 18.9716 19.3939 19.1829 19.1826C19.6064 18.759 19.6064 18.0744 19.1829 17.6508L14.5321 13Z" fill="white"/>
</mask>
<g mask="url(#mask0_1719_37682)">
<rect width="26" height="26" fill="#425466"/>
</g>
</svg>
