<svg width="61" height="61" viewBox="0 0 61 61" fill="none" xmlns="http://www.w3.org/2000/svg">
<g opacity="0.5">
<path d="M30.5 27.9583C29.8259 27.9583 29.1795 28.226 28.7028 28.7027C28.2261 29.1793 27.9584 29.8258 27.9584 30.4999V38.1249C27.9584 38.799 28.2261 39.4455 28.7028 39.9221C29.1795 40.3988 29.8259 40.6666 30.5 40.6666C31.1741 40.6666 31.8206 40.3988 32.2973 39.9221C32.7739 39.4455 33.0417 38.799 33.0417 38.1249V30.4999C33.0417 29.8258 32.7739 29.1793 32.2973 28.7027C31.8206 28.226 31.1741 27.9583 30.5 27.9583ZM30.5 20.3333C29.9973 20.3333 29.5059 20.4823 29.0879 20.7616C28.67 21.0409 28.3442 21.4378 28.1518 21.9023C27.9595 22.3667 27.9091 22.8777 28.0072 23.3708C28.1053 23.8638 28.3473 24.3167 28.7028 24.6721C29.0583 25.0276 29.5111 25.2697 30.0042 25.3677C30.4972 25.4658 31.0083 25.4155 31.4727 25.2231C31.9371 25.0307 32.3341 24.705 32.6133 24.287C32.8926 23.869 33.0417 23.3776 33.0417 22.8749C33.0417 22.2008 32.7739 21.5543 32.2973 21.0777C31.8206 20.601 31.1741 20.3333 30.5 20.3333ZM30.5 5.08325C27.1623 5.08325 23.8572 5.74067 20.7735 7.01798C17.6898 8.29529 14.8879 10.1675 12.5277 12.5276C7.76118 17.2942 5.08336 23.759 5.08336 30.4999C5.06114 36.369 7.09329 42.0608 10.8275 46.5887L5.74419 51.672C5.39152 52.0294 5.15261 52.4833 5.05762 52.9763C4.96262 53.4694 5.0158 53.9796 5.21044 54.4424C5.42155 54.8997 5.76377 55.284 6.19368 55.5465C6.62358 55.809 7.12178 55.9378 7.62503 55.9166H30.5C37.2409 55.9166 43.7058 53.2388 48.4723 48.4722C53.2389 43.7057 55.9167 37.2408 55.9167 30.4999C55.9167 23.759 53.2389 17.2942 48.4723 12.5276C43.7058 7.76107 37.2409 5.08325 30.5 5.08325ZM30.5 50.8333H13.7504L16.1142 48.4695C16.3543 48.2341 16.5454 47.9534 16.6763 47.6436C16.8072 47.3339 16.8753 47.0012 16.8767 46.6649C16.8671 45.9945 16.5931 45.355 16.1142 44.8858C12.7861 41.5614 10.7136 37.1859 10.2498 32.5048C9.78597 27.8237 10.9595 23.1266 13.5706 19.2137C16.1816 15.3008 20.0685 12.4143 24.5691 11.0459C29.0697 9.67754 33.9055 9.91192 38.2527 11.7092C42.5998 13.5064 46.1894 16.7553 48.4097 20.9023C50.6301 25.0493 51.3439 29.8379 50.4296 34.4522C49.5152 39.0665 47.0293 43.2211 43.3953 46.208C39.7613 49.195 35.204 50.8296 30.5 50.8333Z" fill="#838F9C"/>
</g>
</svg>
