<svg width="24" height="25" viewBox="0 0 24 25" fill="none" xmlns="http://www.w3.org/2000/svg">
<path d="M19 6.57031H16V5.57031C16 4.77466 15.6839 4.0116 15.1213 3.44899C14.5587 2.88638 13.7956 2.57031 13 2.57031H11C10.2044 2.57031 9.44129 2.88638 8.87868 3.44899C8.31607 4.0116 8 4.77466 8 5.57031V6.57031H5C4.20435 6.57031 3.44129 6.88638 2.87868 7.44899C2.31607 8.0116 2 8.77466 2 9.57031V18.5703C2 19.366 2.31607 20.129 2.87868 20.6916C3.44129 21.2542 4.20435 21.5703 5 21.5703H19C19.7956 21.5703 20.5587 21.2542 21.1213 20.6916C21.6839 20.129 22 19.366 22 18.5703V9.57031C22 8.77466 21.6839 8.0116 21.1213 7.44899C20.5587 6.88638 19.7956 6.57031 19 6.57031ZM10 5.57031C10 5.3051 10.1054 5.05074 10.2929 4.86321C10.4804 4.67567 10.7348 4.57031 11 4.57031H13C13.2652 4.57031 13.5196 4.67567 13.7071 4.86321C13.8946 5.05074 14 5.3051 14 5.57031V6.57031H10V5.57031ZM20 18.5703C20 18.8355 19.8946 19.0899 19.7071 19.2774C19.5196 19.465 19.2652 19.5703 19 19.5703H5C4.73478 19.5703 4.48043 19.465 4.29289 19.2774C4.10536 19.0899 4 18.8355 4 18.5703V13.5203H7V14.5703C7 14.8355 7.10536 15.0899 7.29289 15.2774C7.48043 15.465 7.73478 15.5703 8 15.5703C8.26522 15.5703 8.51957 15.465 8.70711 15.2774C8.89464 15.0899 9 14.8355 9 14.5703V13.5203H15V14.5703C15 14.8355 15.1054 15.0899 15.2929 15.2774C15.4804 15.465 15.7348 15.5703 16 15.5703C16.2652 15.5703 16.5196 15.465 16.7071 15.2774C16.8946 15.0899 17 14.8355 17 14.5703V13.5203H20V18.5703ZM20 11.5703H4V9.57031C4 9.3051 4.10536 9.05074 4.29289 8.86321C4.48043 8.67567 4.73478 8.57031 5 8.57031H19C19.2652 8.57031 19.5196 8.67567 19.7071 8.86321C19.8946 9.05074 20 9.3051 20 9.57031V11.5703Z" fill="#838F9C"/>
</svg>
