<svg width="61" height="60" viewBox="0 0 61 60" fill="none" xmlns="http://www.w3.org/2000/svg">
<path d="M7.5817 33.7671C7.20468 33.7671 6.84311 33.6209 6.57652 33.3606C6.30993 33.1004 6.16016 32.7474 6.16016 32.3794C6.16016 32.0114 6.30993 31.6584 6.57652 31.3981C6.84311 31.1379 7.20468 30.9917 7.5817 30.9917C7.95871 30.9917 8.32029 31.1379 8.58688 31.3981C8.85347 31.6584 9.00324 32.0114 9.00324 32.3794C9.00324 32.7474 8.85347 33.1004 8.58688 33.3606C8.32029 33.6209 7.95871 33.7671 7.5817 33.7671Z" fill="#7A6AFB"/>
<path d="M18.0065 23.1282C17.7552 23.1282 17.5141 23.2257 17.3364 23.3992C17.1587 23.5727 17.0588 23.808 17.0588 24.0534C17.0588 24.2987 17.1587 24.534 17.3364 24.7075C17.5141 24.881 17.7552 24.9785 18.0065 24.9785C18.2579 24.9785 18.4989 24.881 18.6766 24.7075C18.8544 24.534 18.9542 24.2987 18.9542 24.0534C18.9542 23.808 18.8544 23.5727 18.6766 23.3992C18.4989 23.2257 18.2579 23.1282 18.0065 23.1282ZM18.0065 23.1282C17.7552 23.1282 17.5141 23.2257 17.3364 23.3992C17.1587 23.5727 17.0588 23.808 17.0588 24.0534C17.0588 24.2987 17.1587 24.534 17.3364 24.7075C17.5141 24.881 17.7552 24.9785 18.0065 24.9785C18.2579 24.9785 18.4989 24.881 18.6766 24.7075C18.8544 24.534 18.9542 24.2987 18.9542 24.0534C18.9542 23.808 18.8544 23.5727 18.6766 23.3992C18.4989 23.2257 18.2579 23.1282 18.0065 23.1282ZM18.0065 23.1282C17.7552 23.1282 17.5141 23.2257 17.3364 23.3992C17.1587 23.5727 17.0588 23.808 17.0588 24.0534C17.0588 24.2987 17.1587 24.534 17.3364 24.7075C17.5141 24.881 17.7552 24.9785 18.0065 24.9785C18.2579 24.9785 18.4989 24.881 18.6766 24.7075C18.8544 24.534 18.9542 24.2987 18.9542 24.0534C18.9542 23.808 18.8544 23.5727 18.6766 23.3992C18.4989 23.2257 18.2579 23.1282 18.0065 23.1282ZM19.9019 35.6175C19.5249 35.6175 19.1633 35.7637 18.8967 36.0239C18.6301 36.2842 18.4804 36.6371 18.4804 37.0052C18.4804 37.3732 18.6301 37.7262 18.8967 37.9864C19.1633 38.2467 19.5249 38.3929 19.9019 38.3929C20.2789 38.3929 20.6405 38.2467 20.9071 37.9864C21.1737 37.7262 21.3234 37.3732 21.3234 37.0052C21.3234 36.6371 21.1737 36.2842 20.9071 36.0239C20.6405 35.7637 20.2789 35.6175 19.9019 35.6175ZM32.2219 36.0801C31.6596 36.0801 31.1099 36.2428 30.6424 36.5478C30.1749 36.8528 29.8105 37.2862 29.5953 37.7934C29.3801 38.3005 29.3238 38.8585 29.4335 39.3969C29.5432 39.9353 29.814 40.4298 30.2116 40.8179C30.6092 41.2061 31.1158 41.4704 31.6673 41.5775C32.2188 41.6846 32.7904 41.6296 33.3099 41.4196C33.8294 41.2095 34.2735 40.8538 34.5859 40.3974C34.8983 39.941 35.065 39.4044 35.065 38.8554C35.065 38.1194 34.7655 37.4134 34.2323 36.893C33.6991 36.3725 32.976 36.0801 32.2219 36.0801ZM32.2219 36.0801C31.6596 36.0801 31.1099 36.2428 30.6424 36.5478C30.1749 36.8528 29.8105 37.2862 29.5953 37.7934C29.3801 38.3005 29.3238 38.8585 29.4335 39.3969C29.5432 39.9353 29.814 40.4298 30.2116 40.8179C30.6092 41.2061 31.1158 41.4704 31.6673 41.5775C32.2188 41.6846 32.7904 41.6296 33.3099 41.4196C33.8294 41.2095 34.2735 40.8538 34.5859 40.3974C34.8983 39.941 35.065 39.4044 35.065 38.8554C35.065 38.1194 34.7655 37.4134 34.2323 36.893C33.6991 36.3725 32.976 36.0801 32.2219 36.0801ZM19.9019 35.6175C19.5249 35.6175 19.1633 35.7637 18.8967 36.0239C18.6301 36.2842 18.4804 36.6371 18.4804 37.0052C18.4804 37.3732 18.6301 37.7262 18.8967 37.9864C19.1633 38.2467 19.5249 38.3929 19.9019 38.3929C20.2789 38.3929 20.6405 38.2467 20.9071 37.9864C21.1737 37.7262 21.3234 37.3732 21.3234 37.0052C21.3234 36.6371 21.1737 36.2842 20.9071 36.0239C20.6405 35.7637 20.2789 35.6175 19.9019 35.6175ZM18.0065 23.1282C17.7552 23.1282 17.5141 23.2257 17.3364 23.3992C17.1587 23.5727 17.0588 23.808 17.0588 24.0534C17.0588 24.2987 17.1587 24.534 17.3364 24.7075C17.5141 24.881 17.7552 24.9785 18.0065 24.9785C18.2579 24.9785 18.4989 24.881 18.6766 24.7075C18.8544 24.534 18.9542 24.2987 18.9542 24.0534C18.9542 23.808 18.8544 23.5727 18.6766 23.3992C18.4989 23.2257 18.2579 23.1282 18.0065 23.1282ZM10.425 43.4811C10.0501 43.4811 9.68363 43.5896 9.37193 43.7929C9.06024 43.9962 8.8173 44.2852 8.67384 44.6233C8.53039 44.9614 8.49285 45.3334 8.56599 45.6923C8.63912 46.0512 8.81964 46.3809 9.08471 46.6397C9.34979 46.8985 9.68751 47.0747 10.0552 47.1461C10.4229 47.2175 10.804 47.1808 11.1503 47.0408C11.4966 46.9007 11.7926 46.6636 12.0009 46.3593C12.2092 46.055 12.3203 45.6973 12.3203 45.3314C12.3203 44.8406 12.1207 44.37 11.7652 44.023C11.4097 43.676 10.9276 43.4811 10.425 43.4811ZM18.0065 23.1282C17.7552 23.1282 17.5141 23.2257 17.3364 23.3992C17.1587 23.5727 17.0588 23.808 17.0588 24.0534C17.0588 24.2987 17.1587 24.534 17.3364 24.7075C17.5141 24.881 17.7552 24.9785 18.0065 24.9785C18.2579 24.9785 18.4989 24.881 18.6766 24.7075C18.8544 24.534 18.9542 24.2987 18.9542 24.0534C18.9542 23.808 18.8544 23.5727 18.6766 23.3992C18.4989 23.2257 18.2579 23.1282 18.0065 23.1282ZM19.9019 35.6175C19.5249 35.6175 19.1633 35.7637 18.8967 36.0239C18.6301 36.2842 18.4804 36.6371 18.4804 37.0052C18.4804 37.3732 18.6301 37.7262 18.8967 37.9864C19.1633 38.2467 19.5249 38.3929 19.9019 38.3929C20.2789 38.3929 20.6405 38.2467 20.9071 37.9864C21.1737 37.7262 21.3234 37.3732 21.3234 37.0052C21.3234 36.6371 21.1737 36.2842 20.9071 36.0239C20.6405 35.7637 20.2789 35.6175 19.9019 35.6175ZM22.745 49.957C22.4936 49.957 22.2526 50.0545 22.0749 50.228C21.8971 50.4015 21.7973 50.6368 21.7973 50.8821C21.7973 51.1275 21.8971 51.3628 22.0749 51.5363C22.2526 51.7098 22.4936 51.8073 22.745 51.8073C22.9963 51.8073 23.2374 51.7098 23.4151 51.5363C23.5928 51.3628 23.6927 51.1275 23.6927 50.8821C23.6927 50.6368 23.5928 50.4015 23.4151 50.228C23.2374 50.0545 22.9963 49.957 22.745 49.957ZM32.2219 36.0801C31.6596 36.0801 31.1099 36.2428 30.6424 36.5478C30.1749 36.8528 29.8105 37.2862 29.5953 37.7934C29.3801 38.3005 29.3238 38.8585 29.4335 39.3969C29.5432 39.9353 29.814 40.4298 30.2116 40.8179C30.6092 41.2061 31.1158 41.4704 31.6673 41.5775C32.2188 41.6846 32.7904 41.6296 33.3099 41.4196C33.8294 41.2095 34.2735 40.8538 34.5859 40.3974C34.8983 39.941 35.065 39.4044 35.065 38.8554C35.065 38.1194 34.7655 37.4134 34.2323 36.893C33.6991 36.3725 32.976 36.0801 32.2219 36.0801ZM32.2219 36.0801C31.6596 36.0801 31.1099 36.2428 30.6424 36.5478C30.1749 36.8528 29.8105 37.2862 29.5953 37.7934C29.3801 38.3005 29.3238 38.8585 29.4335 39.3969C29.5432 39.9353 29.814 40.4298 30.2116 40.8179C30.6092 41.2061 31.1158 41.4704 31.6673 41.5775C32.2188 41.6846 32.7904 41.6296 33.3099 41.4196C33.8294 41.2095 34.2735 40.8538 34.5859 40.3974C34.8983 39.941 35.065 39.4044 35.065 38.8554C35.065 38.1194 34.7655 37.4134 34.2323 36.893C33.6991 36.3725 32.976 36.0801 32.2219 36.0801ZM22.745 49.957C22.4936 49.957 22.2526 50.0545 22.0749 50.228C21.8971 50.4015 21.7973 50.6368 21.7973 50.8821C21.7973 51.1275 21.8971 51.3628 22.0749 51.5363C22.2526 51.7098 22.4936 51.8073 22.745 51.8073C22.9963 51.8073 23.2374 51.7098 23.4151 51.5363C23.5928 51.3628 23.6927 51.1275 23.6927 50.8821C23.6927 50.6368 23.5928 50.4015 23.4151 50.228C23.2374 50.0545 22.9963 49.957 22.745 49.957ZM19.9019 35.6175C19.5249 35.6175 19.1633 35.7637 18.8967 36.0239C18.6301 36.2842 18.4804 36.6371 18.4804 37.0052C18.4804 37.3732 18.6301 37.7262 18.8967 37.9864C19.1633 38.2467 19.5249 38.3929 19.9019 38.3929C20.2789 38.3929 20.6405 38.2467 20.9071 37.9864C21.1737 37.7262 21.3234 37.3732 21.3234 37.0052C21.3234 36.6371 21.1737 36.2842 20.9071 36.0239C20.6405 35.7637 20.2789 35.6175 19.9019 35.6175ZM18.0065 23.1282C17.7552 23.1282 17.5141 23.2257 17.3364 23.3992C17.1587 23.5727 17.0588 23.808 17.0588 24.0534C17.0588 24.2987 17.1587 24.534 17.3364 24.7075C17.5141 24.881 17.7552 24.9785 18.0065 24.9785C18.2579 24.9785 18.4989 24.881 18.6766 24.7075C18.8544 24.534 18.9542 24.2987 18.9542 24.0534C18.9542 23.808 18.8544 23.5727 18.6766 23.3992C18.4989 23.2257 18.2579 23.1282 18.0065 23.1282ZM10.425 43.4811C10.0501 43.4811 9.68363 43.5896 9.37193 43.7929C9.06024 43.9962 8.8173 44.2852 8.67384 44.6233C8.53039 44.9614 8.49285 45.3334 8.56599 45.6923C8.63912 46.0512 8.81964 46.3809 9.08471 46.6397C9.34979 46.8985 9.68751 47.0747 10.0552 47.1461C10.4229 47.2175 10.804 47.1808 11.1503 47.0408C11.4966 46.9007 11.7926 46.6636 12.0009 46.3593C12.2092 46.055 12.3203 45.6973 12.3203 45.3314C12.3203 44.8406 12.1207 44.37 11.7652 44.023C11.4097 43.676 10.9276 43.4811 10.425 43.4811ZM10.425 43.4811C10.0501 43.4811 9.68363 43.5896 9.37193 43.7929C9.06024 43.9962 8.8173 44.2852 8.67384 44.6233C8.53039 44.9614 8.49285 45.3334 8.56599 45.6923C8.63912 46.0512 8.81964 46.3809 9.08471 46.6397C9.34979 46.8985 9.68751 47.0747 10.0552 47.1461C10.4229 47.2175 10.804 47.1808 11.1503 47.0408C11.4966 46.9007 11.7926 46.6636 12.0009 46.3593C12.2092 46.055 12.3203 45.6973 12.3203 45.3314C12.3203 44.8406 12.1207 44.37 11.7652 44.023C11.4097 43.676 10.9276 43.4811 10.425 43.4811ZM18.0065 23.1282C17.7552 23.1282 17.5141 23.2257 17.3364 23.3992C17.1587 23.5727 17.0588 23.808 17.0588 24.0534C17.0588 24.2987 17.1587 24.534 17.3364 24.7075C17.5141 24.881 17.7552 24.9785 18.0065 24.9785C18.2579 24.9785 18.4989 24.881 18.6766 24.7075C18.8544 24.534 18.9542 24.2987 18.9542 24.0534C18.9542 23.808 18.8544 23.5727 18.6766 23.3992C18.4989 23.2257 18.2579 23.1282 18.0065 23.1282ZM19.9019 35.6175C19.5249 35.6175 19.1633 35.7637 18.8967 36.0239C18.6301 36.2842 18.4804 36.6371 18.4804 37.0052C18.4804 37.3732 18.6301 37.7262 18.8967 37.9864C19.1633 38.2467 19.5249 38.3929 19.9019 38.3929C20.2789 38.3929 20.6405 38.2467 20.9071 37.9864C21.1737 37.7262 21.3234 37.3732 21.3234 37.0052C21.3234 36.6371 21.1737 36.2842 20.9071 36.0239C20.6405 35.7637 20.2789 35.6175 19.9019 35.6175ZM22.745 49.957C22.4936 49.957 22.2526 50.0545 22.0749 50.228C21.8971 50.4015 21.7973 50.6368 21.7973 50.8821C21.7973 51.1275 21.8971 51.3628 22.0749 51.5363C22.2526 51.7098 22.4936 51.8073 22.745 51.8073C22.9963 51.8073 23.2374 51.7098 23.4151 51.5363C23.5928 51.3628 23.6927 51.1275 23.6927 50.8821C23.6927 50.6368 23.5928 50.4015 23.4151 50.228C23.2374 50.0545 22.9963 49.957 22.745 49.957ZM32.2219 36.0801C31.6596 36.0801 31.1099 36.2428 30.6424 36.5478C30.1749 36.8528 29.8105 37.2862 29.5953 37.7934C29.3801 38.3005 29.3238 38.8585 29.4335 39.3969C29.5432 39.9353 29.814 40.4298 30.2116 40.8179C30.6092 41.2061 31.1158 41.4704 31.6673 41.5775C32.2188 41.6846 32.7904 41.6296 33.3099 41.4196C33.8294 41.2095 34.2735 40.8538 34.5859 40.3974C34.8983 39.941 35.065 39.4044 35.065 38.8554C35.065 38.1194 34.7655 37.4134 34.2323 36.893C33.6991 36.3725 32.976 36.0801 32.2219 36.0801ZM32.2219 36.0801C31.6596 36.0801 31.1099 36.2428 30.6424 36.5478C30.1749 36.8528 29.8105 37.2862 29.5953 37.7934C29.3801 38.3005 29.3238 38.8585 29.4335 39.3969C29.5432 39.9353 29.814 40.4298 30.2116 40.8179C30.6092 41.2061 31.1158 41.4704 31.6673 41.5775C32.2188 41.6846 32.7904 41.6296 33.3099 41.4196C33.8294 41.2095 34.2735 40.8538 34.5859 40.3974C34.8983 39.941 35.065 39.4044 35.065 38.8554C35.065 38.1194 34.7655 37.4134 34.2323 36.893C33.6991 36.3725 32.976 36.0801 32.2219 36.0801ZM22.745 49.957C22.4936 49.957 22.2526 50.0545 22.0749 50.228C21.8971 50.4015 21.7973 50.6368 21.7973 50.8821C21.7973 51.1275 21.8971 51.3628 22.0749 51.5363C22.2526 51.7098 22.4936 51.8073 22.745 51.8073C22.9963 51.8073 23.2374 51.7098 23.4151 51.5363C23.5928 51.3628 23.6927 51.1275 23.6927 50.8821C23.6927 50.6368 23.5928 50.4015 23.4151 50.228C23.2374 50.0545 22.9963 49.957 22.745 49.957ZM19.9019 35.6175C19.5249 35.6175 19.1633 35.7637 18.8967 36.0239C18.6301 36.2842 18.4804 36.6371 18.4804 37.0052C18.4804 37.3732 18.6301 37.7262 18.8967 37.9864C19.1633 38.2467 19.5249 38.3929 19.9019 38.3929C20.2789 38.3929 20.6405 38.2467 20.9071 37.9864C21.1737 37.7262 21.3234 37.3732 21.3234 37.0052C21.3234 36.6371 21.1737 36.2842 20.9071 36.0239C20.6405 35.7637 20.2789 35.6175 19.9019 35.6175ZM18.0065 23.1282C17.7552 23.1282 17.5141 23.2257 17.3364 23.3992C17.1587 23.5727 17.0588 23.808 17.0588 24.0534C17.0588 24.2987 17.1587 24.534 17.3364 24.7075C17.5141 24.881 17.7552 24.9785 18.0065 24.9785C18.2579 24.9785 18.4989 24.881 18.6766 24.7075C18.8544 24.534 18.9542 24.2987 18.9542 24.0534C18.9542 23.808 18.8544 23.5727 18.6766 23.3992C18.4989 23.2257 18.2579 23.1282 18.0065 23.1282ZM10.425 43.4811C10.0501 43.4811 9.68363 43.5896 9.37193 43.7929C9.06024 43.9962 8.8173 44.2852 8.67384 44.6233C8.53039 44.9614 8.49285 45.3334 8.56599 45.6923C8.63912 46.0512 8.81964 46.3809 9.08471 46.6397C9.34979 46.8985 9.68751 47.0747 10.0552 47.1461C10.4229 47.2175 10.804 47.1808 11.1503 47.0408C11.4966 46.9007 11.7926 46.6636 12.0009 46.3593C12.2092 46.055 12.3203 45.6973 12.3203 45.3314C12.3203 44.8406 12.1207 44.37 11.7652 44.023C11.4097 43.676 10.9276 43.4811 10.425 43.4811ZM10.425 43.4811C10.0501 43.4811 9.68363 43.5896 9.37193 43.7929C9.06024 43.9962 8.8173 44.2852 8.67384 44.6233C8.53039 44.9614 8.49285 45.3334 8.56599 45.6923C8.63912 46.0512 8.81964 46.3809 9.08471 46.6397C9.34979 46.8985 9.68751 47.0747 10.0552 47.1461C10.4229 47.2175 10.804 47.1808 11.1503 47.0408C11.4966 46.9007 11.7926 46.6636 12.0009 46.3593C12.2092 46.055 12.3203 45.6973 12.3203 45.3314C12.3203 44.8406 12.1207 44.37 11.7652 44.023C11.4097 43.676 10.9276 43.4811 10.425 43.4811ZM18.0065 23.1282C17.7552 23.1282 17.5141 23.2257 17.3364 23.3992C17.1587 23.5727 17.0588 23.808 17.0588 24.0534C17.0588 24.2987 17.1587 24.534 17.3364 24.7075C17.5141 24.881 17.7552 24.9785 18.0065 24.9785C18.2579 24.9785 18.4989 24.881 18.6766 24.7075C18.8544 24.534 18.9542 24.2987 18.9542 24.0534C18.9542 23.808 18.8544 23.5727 18.6766 23.3992C18.4989 23.2257 18.2579 23.1282 18.0065 23.1282ZM19.9019 35.6175C19.5249 35.6175 19.1633 35.7637 18.8967 36.0239C18.6301 36.2842 18.4804 36.6371 18.4804 37.0052C18.4804 37.3732 18.6301 37.7262 18.8967 37.9864C19.1633 38.2467 19.5249 38.3929 19.9019 38.3929C20.2789 38.3929 20.6405 38.2467 20.9071 37.9864C21.1737 37.7262 21.3234 37.3732 21.3234 37.0052C21.3234 36.6371 21.1737 36.2842 20.9071 36.0239C20.6405 35.7637 20.2789 35.6175 19.9019 35.6175ZM22.745 49.957C22.4936 49.957 22.2526 50.0545 22.0749 50.228C21.8971 50.4015 21.7973 50.6368 21.7973 50.8821C21.7973 51.1275 21.8971 51.3628 22.0749 51.5363C22.2526 51.7098 22.4936 51.8073 22.745 51.8073C22.9963 51.8073 23.2374 51.7098 23.4151 51.5363C23.5928 51.3628 23.6927 51.1275 23.6927 50.8821C23.6927 50.6368 23.5928 50.4015 23.4151 50.228C23.2374 50.0545 22.9963 49.957 22.745 49.957ZM32.2219 36.0801C31.6596 36.0801 31.1099 36.2428 30.6424 36.5478C30.1749 36.8528 29.8105 37.2862 29.5953 37.7934C29.3801 38.3005 29.3238 38.8585 29.4335 39.3969C29.5432 39.9353 29.814 40.4298 30.2116 40.8179C30.6092 41.2061 31.1158 41.4704 31.6673 41.5775C32.2188 41.6846 32.7904 41.6296 33.3099 41.4196C33.8294 41.2095 34.2735 40.8538 34.5859 40.3974C34.8983 39.941 35.065 39.4044 35.065 38.8554C35.065 38.1194 34.7655 37.4134 34.2323 36.893C33.6991 36.3725 32.976 36.0801 32.2219 36.0801ZM32.2219 36.0801C31.6596 36.0801 31.1099 36.2428 30.6424 36.5478C30.1749 36.8528 29.8105 37.2862 29.5953 37.7934C29.3801 38.3005 29.3238 38.8585 29.4335 39.3969C29.5432 39.9353 29.814 40.4298 30.2116 40.8179C30.6092 41.2061 31.1158 41.4704 31.6673 41.5775C32.2188 41.6846 32.7904 41.6296 33.3099 41.4196C33.8294 41.2095 34.2735 40.8538 34.5859 40.3974C34.8983 39.941 35.065 39.4044 35.065 38.8554C35.065 38.1194 34.7655 37.4134 34.2323 36.893C33.6991 36.3725 32.976 36.0801 32.2219 36.0801ZM22.745 49.957C22.4936 49.957 22.2526 50.0545 22.0749 50.228C21.8971 50.4015 21.7973 50.6368 21.7973 50.8821C21.7973 51.1275 21.8971 51.3628 22.0749 51.5363C22.2526 51.7098 22.4936 51.8073 22.745 51.8073C22.9963 51.8073 23.2374 51.7098 23.4151 51.5363C23.5928 51.3628 23.6927 51.1275 23.6927 50.8821C23.6927 50.6368 23.5928 50.4015 23.4151 50.228C23.2374 50.0545 22.9963 49.957 22.745 49.957ZM19.9019 35.6175C19.5249 35.6175 19.1633 35.7637 18.8967 36.0239C18.6301 36.2842 18.4804 36.6371 18.4804 37.0052C18.4804 37.3732 18.6301 37.7262 18.8967 37.9864C19.1633 38.2467 19.5249 38.3929 19.9019 38.3929C20.2789 38.3929 20.6405 38.2467 20.9071 37.9864C21.1737 37.7262 21.3234 37.3732 21.3234 37.0052C21.3234 36.6371 21.1737 36.2842 20.9071 36.0239C20.6405 35.7637 20.2789 35.6175 19.9019 35.6175ZM18.0065 23.1282C17.7552 23.1282 17.5141 23.2257 17.3364 23.3992C17.1587 23.5727 17.0588 23.808 17.0588 24.0534C17.0588 24.2987 17.1587 24.534 17.3364 24.7075C17.5141 24.881 17.7552 24.9785 18.0065 24.9785C18.2579 24.9785 18.4989 24.881 18.6766 24.7075C18.8544 24.534 18.9542 24.2987 18.9542 24.0534C18.9542 23.808 18.8544 23.5727 18.6766 23.3992C18.4989 23.2257 18.2579 23.1282 18.0065 23.1282ZM10.425 43.4811C10.0501 43.4811 9.68363 43.5896 9.37193 43.7929C9.06024 43.9962 8.8173 44.2852 8.67384 44.6233C8.53039 44.9614 8.49285 45.3334 8.56599 45.6923C8.63912 46.0512 8.81964 46.3809 9.08471 46.6397C9.34979 46.8985 9.68751 47.0747 10.0552 47.1461C10.4229 47.2175 10.804 47.1808 11.1503 47.0408C11.4966 46.9007 11.7926 46.6636 12.0009 46.3593C12.2092 46.055 12.3203 45.6973 12.3203 45.3314C12.3203 44.8406 12.1207 44.37 11.7652 44.023C11.4097 43.676 10.9276 43.4811 10.425 43.4811ZM6.77633 25.1173C-5.68585 37.2457 3.07084 58.2832 20.8496 58.2832C26.1278 58.2832 31.1899 56.2363 34.9222 52.5929C38.6544 48.9495 40.7512 44.008 40.7512 38.8554C40.7512 21.6203 19.2575 12.9518 6.77633 25.1173ZM4.26494 32.3795C4.26494 31.7391 4.45947 31.1131 4.82394 30.5806C5.18841 30.0481 5.70645 29.6331 6.31254 29.3881C6.91863 29.143 7.58555 29.0789 8.22897 29.2038C8.8724 29.3287 9.46342 29.6371 9.9273 30.09C10.3912 30.5428 10.7071 31.1197 10.8351 31.7478C10.9631 32.3759 10.8974 33.027 10.6463 33.6186C10.3953 34.2103 9.97013 34.716 9.42466 35.0718C8.87919 35.4276 8.2379 35.6175 7.58187 35.6175C6.70217 35.6175 5.85849 35.2763 5.23645 34.6691C4.6144 34.0619 4.26494 33.2383 4.26494 32.3795V32.3795ZM10.425 49.0319C9.67521 49.0319 8.9423 48.8149 8.31891 48.4082C7.69552 48.0016 7.20965 47.4237 6.92273 46.7475C6.63582 46.0713 6.56075 45.3273 6.70702 44.6094C6.85328 43.8916 7.21432 43.2322 7.74447 42.7147C8.27462 42.1972 8.95007 41.8447 9.68541 41.7019C10.4208 41.5592 11.183 41.6324 11.8756 41.9125C12.5683 42.1926 13.1603 42.6669 13.5769 43.2755C13.9934 43.884 14.2157 44.5995 14.2157 45.3314C14.2157 46.3128 13.8164 47.254 13.1054 47.948C12.3945 48.642 11.4303 49.0319 10.425 49.0319ZM15.1634 24.0534C15.1634 23.5044 15.3302 22.9678 15.6426 22.5114C15.955 22.055 16.399 21.6993 16.9185 21.4892C17.438 21.2792 18.0097 21.2242 18.5612 21.3313C19.1127 21.4384 19.6193 21.7027 20.0169 22.0909C20.4145 22.479 20.6853 22.9735 20.795 23.5119C20.9047 24.0503 20.8484 24.6083 20.6332 25.1155C20.418 25.6226 20.0536 26.056 19.586 26.361C19.1185 26.666 18.5688 26.8287 18.0065 26.8287C17.2525 26.8287 16.5293 26.5363 15.9962 26.0159C15.463 25.4954 15.1634 24.7894 15.1634 24.0534V24.0534ZM16.585 37.0052C16.585 36.3648 16.7795 35.7388 17.144 35.2063C17.5084 34.6738 18.0265 34.2588 18.6326 34.0137C19.2387 33.7686 19.9056 33.7045 20.549 33.8294C21.1924 33.9544 21.7834 34.2628 22.2473 34.7156C22.7112 35.1684 23.0271 35.7454 23.1551 36.3735C23.2831 37.0016 23.2174 37.6526 22.9663 38.2443C22.7153 38.836 22.2902 39.3417 21.7447 39.6975C21.1992 40.0532 20.5579 40.2431 19.9019 40.2431C19.0222 40.2431 18.1785 39.902 17.5565 39.2948C16.9344 38.6875 16.585 37.8639 16.585 37.0052V37.0052ZM22.745 53.6575C22.1827 53.6575 21.633 53.4948 21.1655 53.1898C20.6979 52.8848 20.3335 52.4514 20.1183 51.9442C19.9031 51.4371 19.8468 50.8791 19.9565 50.3407C20.0662 49.8023 20.337 49.3078 20.7346 48.9196C21.1322 48.5315 21.6388 48.2672 22.1903 48.1601C22.7418 48.053 23.3135 48.108 23.833 48.318C24.3525 48.5281 24.7965 48.8838 25.1089 49.3402C25.4213 49.7966 25.5881 50.3332 25.5881 50.8821C25.5881 51.6182 25.2885 52.3242 24.7554 52.8446C24.2222 53.3651 23.499 53.6575 22.745 53.6575ZM32.2219 43.4811C31.2848 43.4811 30.3686 43.2098 29.5894 42.7015C28.8101 42.1933 28.2028 41.4708 27.8442 40.6256C27.4855 39.7804 27.3917 38.8503 27.5745 37.953C27.7573 37.0557 28.2086 36.2315 28.8713 35.5846C29.534 34.9377 30.3783 34.4972 31.2975 34.3187C32.2167 34.1402 33.1694 34.2318 34.0353 34.5819C34.9011 34.932 35.6412 35.5249 36.1618 36.2856C36.6825 37.0463 36.9604 37.9406 36.9604 38.8554C36.9604 40.0822 36.4612 41.2588 35.5725 42.1263C34.6839 42.9938 33.4787 43.4811 32.2219 43.4811ZM32.2219 36.0801C31.6596 36.0801 31.1099 36.2428 30.6424 36.5478C30.1749 36.8528 29.8105 37.2862 29.5953 37.7934C29.3801 38.3005 29.3238 38.8585 29.4335 39.3969C29.5432 39.9353 29.814 40.4298 30.2116 40.8179C30.6092 41.2061 31.1158 41.4704 31.6673 41.5775C32.2188 41.6846 32.7904 41.6296 33.3099 41.4196C33.8294 41.2095 34.2735 40.8538 34.5859 40.3974C34.8983 39.941 35.065 39.4044 35.065 38.8554C35.065 38.1194 34.7655 37.4134 34.2323 36.893C33.6991 36.3725 32.976 36.0801 32.2219 36.0801ZM22.745 49.957C22.4936 49.957 22.2526 50.0545 22.0749 50.228C21.8971 50.4015 21.7973 50.6368 21.7973 50.8821C21.7973 51.1275 21.8971 51.3628 22.0749 51.5363C22.2526 51.7098 22.4936 51.8073 22.745 51.8073C22.9963 51.8073 23.2374 51.7098 23.4151 51.5363C23.5928 51.3628 23.6927 51.1275 23.6927 50.8821C23.6927 50.6368 23.5928 50.4015 23.4151 50.228C23.2374 50.0545 22.9963 49.957 22.745 49.957ZM21.3234 37.0052C21.3234 36.6371 21.1737 36.2842 20.9071 36.0239C20.6405 35.7637 20.2789 35.6175 19.9019 35.6175C19.5249 35.6175 19.1633 35.7637 18.8967 36.0239C18.6301 36.2842 18.4804 36.6371 18.4804 37.0052C18.4804 37.3732 18.6301 37.7262 18.8967 37.9864C19.1633 38.2467 19.5249 38.3929 19.9019 38.3929C20.2789 38.3929 20.6405 38.2467 20.9071 37.9864C21.1737 37.7262 21.3234 37.3732 21.3234 37.0052ZM18.9542 24.0534C18.9542 23.808 18.8544 23.5727 18.6766 23.3992C18.4989 23.2257 18.2579 23.1282 18.0065 23.1282C17.7552 23.1282 17.5141 23.2257 17.3364 23.3992C17.1587 23.5727 17.0588 23.808 17.0588 24.0534C17.0588 24.2987 17.1587 24.534 17.3364 24.7075C17.5141 24.881 17.7552 24.9785 18.0065 24.9785C18.2579 24.9785 18.4989 24.881 18.6766 24.7075C18.8544 24.534 18.9542 24.2987 18.9542 24.0534ZM10.425 43.4811C10.0501 43.4811 9.68363 43.5896 9.37193 43.7929C9.06024 43.9962 8.8173 44.2852 8.67384 44.6233C8.53039 44.9614 8.49285 45.3334 8.56599 45.6923C8.63912 46.0512 8.81964 46.3809 9.08471 46.6397C9.34979 46.8985 9.68751 47.0747 10.0552 47.1461C10.4229 47.2175 10.804 47.1808 11.1503 47.0408C11.4966 46.9007 11.7926 46.6636 12.0009 46.3593C12.2092 46.055 12.3203 45.6973 12.3203 45.3314C12.3203 44.8406 12.1207 44.37 11.7652 44.023C11.4097 43.676 10.9276 43.4811 10.425 43.4811ZM10.425 43.4811C10.0501 43.4811 9.68363 43.5896 9.37193 43.7929C9.06024 43.9962 8.8173 44.2852 8.67384 44.6233C8.53039 44.9614 8.49285 45.3334 8.56599 45.6923C8.63912 46.0512 8.81964 46.3809 9.08471 46.6397C9.34979 46.8985 9.68751 47.0747 10.0552 47.1461C10.4229 47.2175 10.804 47.1808 11.1503 47.0408C11.4966 46.9007 11.7926 46.6636 12.0009 46.3593C12.2092 46.055 12.3203 45.6973 12.3203 45.3314C12.3203 44.8406 12.1207 44.37 11.7652 44.023C11.4097 43.676 10.9276 43.4811 10.425 43.4811ZM18.0065 23.1282C17.7552 23.1282 17.5141 23.2257 17.3364 23.3992C17.1587 23.5727 17.0588 23.808 17.0588 24.0534C17.0588 24.2987 17.1587 24.534 17.3364 24.7075C17.5141 24.881 17.7552 24.9785 18.0065 24.9785C18.2579 24.9785 18.4989 24.881 18.6766 24.7075C18.8544 24.534 18.9542 24.2987 18.9542 24.0534C18.9542 23.808 18.8544 23.5727 18.6766 23.3992C18.4989 23.2257 18.2579 23.1282 18.0065 23.1282ZM19.9019 35.6175C19.5249 35.6175 19.1633 35.7637 18.8967 36.0239C18.6301 36.2842 18.4804 36.6371 18.4804 37.0052C18.4804 37.3732 18.6301 37.7262 18.8967 37.9864C19.1633 38.2467 19.5249 38.3929 19.9019 38.3929C20.2789 38.3929 20.6405 38.2467 20.9071 37.9864C21.1737 37.7262 21.3234 37.3732 21.3234 37.0052C21.3234 36.6371 21.1737 36.2842 20.9071 36.0239C20.6405 35.7637 20.2789 35.6175 19.9019 35.6175ZM22.745 49.957C22.4936 49.957 22.2526 50.0545 22.0749 50.228C21.8971 50.4015 21.7973 50.6368 21.7973 50.8821C21.7973 51.1275 21.8971 51.3628 22.0749 51.5363C22.2526 51.7098 22.4936 51.8073 22.745 51.8073C22.9963 51.8073 23.2374 51.7098 23.4151 51.5363C23.5928 51.3628 23.6927 51.1275 23.6927 50.8821C23.6927 50.6368 23.5928 50.4015 23.4151 50.228C23.2374 50.0545 22.9963 49.957 22.745 49.957ZM32.2219 36.0801C31.6596 36.0801 31.1099 36.2428 30.6424 36.5478C30.1749 36.8528 29.8105 37.2862 29.5953 37.7934C29.3801 38.3005 29.3238 38.8585 29.4335 39.3969C29.5432 39.9353 29.814 40.4298 30.2116 40.8179C30.6092 41.2061 31.1158 41.4704 31.6673 41.5775C32.2188 41.6846 32.7904 41.6296 33.3099 41.4196C33.8294 41.2095 34.2735 40.8538 34.5859 40.3974C34.8983 39.941 35.065 39.4044 35.065 38.8554C35.065 38.1194 34.7655 37.4134 34.2323 36.893C33.6991 36.3725 32.976 36.0801 32.2219 36.0801ZM32.2219 36.0801C31.6596 36.0801 31.1099 36.2428 30.6424 36.5478C30.1749 36.8528 29.8105 37.2862 29.5953 37.7934C29.3801 38.3005 29.3238 38.8585 29.4335 39.3969C29.5432 39.9353 29.814 40.4298 30.2116 40.8179C30.6092 41.2061 31.1158 41.4704 31.6673 41.5775C32.2188 41.6846 32.7904 41.6296 33.3099 41.4196C33.8294 41.2095 34.2735 40.8538 34.5859 40.3974C34.8983 39.941 35.065 39.4044 35.065 38.8554C35.065 38.1194 34.7655 37.4134 34.2323 36.893C33.6991 36.3725 32.976 36.0801 32.2219 36.0801ZM22.745 49.957C22.4936 49.957 22.2526 50.0545 22.0749 50.228C21.8971 50.4015 21.7973 50.6368 21.7973 50.8821C21.7973 51.1275 21.8971 51.3628 22.0749 51.5363C22.2526 51.7098 22.4936 51.8073 22.745 51.8073C22.9963 51.8073 23.2374 51.7098 23.4151 51.5363C23.5928 51.3628 23.6927 51.1275 23.6927 50.8821C23.6927 50.6368 23.5928 50.4015 23.4151 50.228C23.2374 50.0545 22.9963 49.957 22.745 49.957ZM19.9019 35.6175C19.5249 35.6175 19.1633 35.7637 18.8967 36.0239C18.6301 36.2842 18.4804 36.6371 18.4804 37.0052C18.4804 37.3732 18.6301 37.7262 18.8967 37.9864C19.1633 38.2467 19.5249 38.3929 19.9019 38.3929C20.2789 38.3929 20.6405 38.2467 20.9071 37.9864C21.1737 37.7262 21.3234 37.3732 21.3234 37.0052C21.3234 36.6371 21.1737 36.2842 20.9071 36.0239C20.6405 35.7637 20.2789 35.6175 19.9019 35.6175ZM18.0065 23.1282C17.7552 23.1282 17.5141 23.2257 17.3364 23.3992C17.1587 23.5727 17.0588 23.808 17.0588 24.0534C17.0588 24.2987 17.1587 24.534 17.3364 24.7075C17.5141 24.881 17.7552 24.9785 18.0065 24.9785C18.2579 24.9785 18.4989 24.881 18.6766 24.7075C18.8544 24.534 18.9542 24.2987 18.9542 24.0534C18.9542 23.808 18.8544 23.5727 18.6766 23.3992C18.4989 23.2257 18.2579 23.1282 18.0065 23.1282ZM10.425 43.4811C10.0501 43.4811 9.68363 43.5896 9.37193 43.7929C9.06024 43.9962 8.8173 44.2852 8.67384 44.6233C8.53039 44.9614 8.49285 45.3334 8.56599 45.6923C8.63912 46.0512 8.81964 46.3809 9.08471 46.6397C9.34979 46.8985 9.68751 47.0747 10.0552 47.1461C10.4229 47.2175 10.804 47.1808 11.1503 47.0408C11.4966 46.9007 11.7926 46.6636 12.0009 46.3593C12.2092 46.055 12.3203 45.6973 12.3203 45.3314C12.3203 44.8406 12.1207 44.37 11.7652 44.023C11.4097 43.676 10.9276 43.4811 10.425 43.4811ZM10.425 43.4811C10.0501 43.4811 9.68363 43.5896 9.37193 43.7929C9.06024 43.9962 8.8173 44.2852 8.67384 44.6233C8.53039 44.9614 8.49285 45.3334 8.56599 45.6923C8.63912 46.0512 8.81964 46.3809 9.08471 46.6397C9.34979 46.8985 9.68751 47.0747 10.0552 47.1461C10.4229 47.2175 10.804 47.1808 11.1503 47.0408C11.4966 46.9007 11.7926 46.6636 12.0009 46.3593C12.2092 46.055 12.3203 45.6973 12.3203 45.3314C12.3203 44.8406 12.1207 44.37 11.7652 44.023C11.4097 43.676 10.9276 43.4811 10.425 43.4811ZM18.0065 23.1282C17.7552 23.1282 17.5141 23.2257 17.3364 23.3992C17.1587 23.5727 17.0588 23.808 17.0588 24.0534C17.0588 24.2987 17.1587 24.534 17.3364 24.7075C17.5141 24.881 17.7552 24.9785 18.0065 24.9785C18.2579 24.9785 18.4989 24.881 18.6766 24.7075C18.8544 24.534 18.9542 24.2987 18.9542 24.0534C18.9542 23.808 18.8544 23.5727 18.6766 23.3992C18.4989 23.2257 18.2579 23.1282 18.0065 23.1282ZM19.9019 35.6175C19.5249 35.6175 19.1633 35.7637 18.8967 36.0239C18.6301 36.2842 18.4804 36.6371 18.4804 37.0052C18.4804 37.3732 18.6301 37.7262 18.8967 37.9864C19.1633 38.2467 19.5249 38.3929 19.9019 38.3929C20.2789 38.3929 20.6405 38.2467 20.9071 37.9864C21.1737 37.7262 21.3234 37.3732 21.3234 37.0052C21.3234 36.6371 21.1737 36.2842 20.9071 36.0239C20.6405 35.7637 20.2789 35.6175 19.9019 35.6175ZM22.745 49.957C22.4936 49.957 22.2526 50.0545 22.0749 50.228C21.8971 50.4015 21.7973 50.6368 21.7973 50.8821C21.7973 51.1275 21.8971 51.3628 22.0749 51.5363C22.2526 51.7098 22.4936 51.8073 22.745 51.8073C22.9963 51.8073 23.2374 51.7098 23.4151 51.5363C23.5928 51.3628 23.6927 51.1275 23.6927 50.8821C23.6927 50.6368 23.5928 50.4015 23.4151 50.228C23.2374 50.0545 22.9963 49.957 22.745 49.957ZM32.2219 36.0801C31.6596 36.0801 31.1099 36.2428 30.6424 36.5478C30.1749 36.8528 29.8105 37.2862 29.5953 37.7934C29.3801 38.3005 29.3238 38.8585 29.4335 39.3969C29.5432 39.9353 29.814 40.4298 30.2116 40.8179C30.6092 41.2061 31.1158 41.4704 31.6673 41.5775C32.2188 41.6846 32.7904 41.6296 33.3099 41.4196C33.8294 41.2095 34.2735 40.8538 34.5859 40.3974C34.8983 39.941 35.065 39.4044 35.065 38.8554C35.065 38.1194 34.7655 37.4134 34.2323 36.893C33.6991 36.3725 32.976 36.0801 32.2219 36.0801ZM32.2219 36.0801C31.6596 36.0801 31.1099 36.2428 30.6424 36.5478C30.1749 36.8528 29.8105 37.2862 29.5953 37.7934C29.3801 38.3005 29.3238 38.8585 29.4335 39.3969C29.5432 39.9353 29.814 40.4298 30.2116 40.8179C30.6092 41.2061 31.1158 41.4704 31.6673 41.5775C32.2188 41.6846 32.7904 41.6296 33.3099 41.4196C33.8294 41.2095 34.2735 40.8538 34.5859 40.3974C34.8983 39.941 35.065 39.4044 35.065 38.8554C35.065 38.1194 34.7655 37.4134 34.2323 36.893C33.6991 36.3725 32.976 36.0801 32.2219 36.0801ZM22.745 49.957C22.4936 49.957 22.2526 50.0545 22.0749 50.228C21.8971 50.4015 21.7973 50.6368 21.7973 50.8821C21.7973 51.1275 21.8971 51.3628 22.0749 51.5363C22.2526 51.7098 22.4936 51.8073 22.745 51.8073C22.9963 51.8073 23.2374 51.7098 23.4151 51.5363C23.5928 51.3628 23.6927 51.1275 23.6927 50.8821C23.6927 50.6368 23.5928 50.4015 23.4151 50.228C23.2374 50.0545 22.9963 49.957 22.745 49.957ZM19.9019 35.6175C19.5249 35.6175 19.1633 35.7637 18.8967 36.0239C18.6301 36.2842 18.4804 36.6371 18.4804 37.0052C18.4804 37.3732 18.6301 37.7262 18.8967 37.9864C19.1633 38.2467 19.5249 38.3929 19.9019 38.3929C20.2789 38.3929 20.6405 38.2467 20.9071 37.9864C21.1737 37.7262 21.3234 37.3732 21.3234 37.0052C21.3234 36.6371 21.1737 36.2842 20.9071 36.0239C20.6405 35.7637 20.2789 35.6175 19.9019 35.6175ZM18.0065 23.1282C17.7552 23.1282 17.5141 23.2257 17.3364 23.3992C17.1587 23.5727 17.0588 23.808 17.0588 24.0534C17.0588 24.2987 17.1587 24.534 17.3364 24.7075C17.5141 24.881 17.7552 24.9785 18.0065 24.9785C18.2579 24.9785 18.4989 24.881 18.6766 24.7075C18.8544 24.534 18.9542 24.2987 18.9542 24.0534C18.9542 23.808 18.8544 23.5727 18.6766 23.3992C18.4989 23.2257 18.2579 23.1282 18.0065 23.1282ZM10.425 43.4811C10.0501 43.4811 9.68363 43.5896 9.37193 43.7929C9.06024 43.9962 8.8173 44.2852 8.67384 44.6233C8.53039 44.9614 8.49285 45.3334 8.56599 45.6923C8.63912 46.0512 8.81964 46.3809 9.08471 46.6397C9.34979 46.8985 9.68751 47.0747 10.0552 47.1461C10.4229 47.2175 10.804 47.1808 11.1503 47.0408C11.4966 46.9007 11.7926 46.6636 12.0009 46.3593C12.2092 46.055 12.3203 45.6973 12.3203 45.3314C12.3203 44.8406 12.1207 44.37 11.7652 44.023C11.4097 43.676 10.9276 43.4811 10.425 43.4811ZM10.425 43.4811C10.0501 43.4811 9.68363 43.5896 9.37193 43.7929C9.06024 43.9962 8.8173 44.2852 8.67384 44.6233C8.53039 44.9614 8.49285 45.3334 8.56599 45.6923C8.63912 46.0512 8.81964 46.3809 9.08471 46.6397C9.34979 46.8985 9.68751 47.0747 10.0552 47.1461C10.4229 47.2175 10.804 47.1808 11.1503 47.0408C11.4966 46.9007 11.7926 46.6636 12.0009 46.3593C12.2092 46.055 12.3203 45.6973 12.3203 45.3314C12.3203 44.8406 12.1207 44.37 11.7652 44.023C11.4097 43.676 10.9276 43.4811 10.425 43.4811ZM18.0065 23.1282C17.7552 23.1282 17.5141 23.2257 17.3364 23.3992C17.1587 23.5727 17.0588 23.808 17.0588 24.0534C17.0588 24.2987 17.1587 24.534 17.3364 24.7075C17.5141 24.881 17.7552 24.9785 18.0065 24.9785C18.2579 24.9785 18.4989 24.881 18.6766 24.7075C18.8544 24.534 18.9542 24.2987 18.9542 24.0534C18.9542 23.808 18.8544 23.5727 18.6766 23.3992C18.4989 23.2257 18.2579 23.1282 18.0065 23.1282ZM19.9019 35.6175C19.5249 35.6175 19.1633 35.7637 18.8967 36.0239C18.6301 36.2842 18.4804 36.6371 18.4804 37.0052C18.4804 37.3732 18.6301 37.7262 18.8967 37.9864C19.1633 38.2467 19.5249 38.3929 19.9019 38.3929C20.2789 38.3929 20.6405 38.2467 20.9071 37.9864C21.1737 37.7262 21.3234 37.3732 21.3234 37.0052C21.3234 36.6371 21.1737 36.2842 20.9071 36.0239C20.6405 35.7637 20.2789 35.6175 19.9019 35.6175ZM32.2219 36.0801C31.6596 36.0801 31.1099 36.2428 30.6424 36.5478C30.1749 36.8528 29.8105 37.2862 29.5953 37.7934C29.3801 38.3005 29.3238 38.8585 29.4335 39.3969C29.5432 39.9353 29.814 40.4298 30.2116 40.8179C30.6092 41.2061 31.1158 41.4704 31.6673 41.5775C32.2188 41.6846 32.7904 41.6296 33.3099 41.4196C33.8294 41.2095 34.2735 40.8538 34.5859 40.3974C34.8983 39.941 35.065 39.4044 35.065 38.8554C35.065 38.1194 34.7655 37.4134 34.2323 36.893C33.6991 36.3725 32.976 36.0801 32.2219 36.0801ZM32.2219 36.0801C31.6596 36.0801 31.1099 36.2428 30.6424 36.5478C30.1749 36.8528 29.8105 37.2862 29.5953 37.7934C29.3801 38.3005 29.3238 38.8585 29.4335 39.3969C29.5432 39.9353 29.814 40.4298 30.2116 40.8179C30.6092 41.2061 31.1158 41.4704 31.6673 41.5775C32.2188 41.6846 32.7904 41.6296 33.3099 41.4196C33.8294 41.2095 34.2735 40.8538 34.5859 40.3974C34.8983 39.941 35.065 39.4044 35.065 38.8554C35.065 38.1194 34.7655 37.4134 34.2323 36.893C33.6991 36.3725 32.976 36.0801 32.2219 36.0801ZM19.9019 35.6175C19.5249 35.6175 19.1633 35.7637 18.8967 36.0239C18.6301 36.2842 18.4804 36.6371 18.4804 37.0052C18.4804 37.3732 18.6301 37.7262 18.8967 37.9864C19.1633 38.2467 19.5249 38.3929 19.9019 38.3929C20.2789 38.3929 20.6405 38.2467 20.9071 37.9864C21.1737 37.7262 21.3234 37.3732 21.3234 37.0052C21.3234 36.6371 21.1737 36.2842 20.9071 36.0239C20.6405 35.7637 20.2789 35.6175 19.9019 35.6175ZM18.0065 23.1282C17.7552 23.1282 17.5141 23.2257 17.3364 23.3992C17.1587 23.5727 17.0588 23.808 17.0588 24.0534C17.0588 24.2987 17.1587 24.534 17.3364 24.7075C17.5141 24.881 17.7552 24.9785 18.0065 24.9785C18.2579 24.9785 18.4989 24.881 18.6766 24.7075C18.8544 24.534 18.9542 24.2987 18.9542 24.0534C18.9542 23.808 18.8544 23.5727 18.6766 23.3992C18.4989 23.2257 18.2579 23.1282 18.0065 23.1282ZM10.425 43.4811C10.0501 43.4811 9.68363 43.5896 9.37193 43.7929C9.06024 43.9962 8.8173 44.2852 8.67384 44.6233C8.53039 44.9614 8.49285 45.3334 8.56599 45.6923C8.63912 46.0512 8.81964 46.3809 9.08471 46.6397C9.34979 46.8985 9.68751 47.0747 10.0552 47.1461C10.4229 47.2175 10.804 47.1808 11.1503 47.0408C11.4966 46.9007 11.7926 46.6636 12.0009 46.3593C12.2092 46.055 12.3203 45.6973 12.3203 45.3314C12.3203 44.8406 12.1207 44.37 11.7652 44.023C11.4097 43.676 10.9276 43.4811 10.425 43.4811ZM18.0065 23.1282C17.7552 23.1282 17.5141 23.2257 17.3364 23.3992C17.1587 23.5727 17.0588 23.808 17.0588 24.0534C17.0588 24.2987 17.1587 24.534 17.3364 24.7075C17.5141 24.881 17.7552 24.9785 18.0065 24.9785C18.2579 24.9785 18.4989 24.881 18.6766 24.7075C18.8544 24.534 18.9542 24.2987 18.9542 24.0534C18.9542 23.808 18.8544 23.5727 18.6766 23.3992C18.4989 23.2257 18.2579 23.1282 18.0065 23.1282ZM19.9019 35.6175C19.5249 35.6175 19.1633 35.7637 18.8967 36.0239C18.6301 36.2842 18.4804 36.6371 18.4804 37.0052C18.4804 37.3732 18.6301 37.7262 18.8967 37.9864C19.1633 38.2467 19.5249 38.3929 19.9019 38.3929C20.2789 38.3929 20.6405 38.2467 20.9071 37.9864C21.1737 37.7262 21.3234 37.3732 21.3234 37.0052C21.3234 36.6371 21.1737 36.2842 20.9071 36.0239C20.6405 35.7637 20.2789 35.6175 19.9019 35.6175ZM19.9019 35.6175C19.5249 35.6175 19.1633 35.7637 18.8967 36.0239C18.6301 36.2842 18.4804 36.6371 18.4804 37.0052C18.4804 37.3732 18.6301 37.7262 18.8967 37.9864C19.1633 38.2467 19.5249 38.3929 19.9019 38.3929C20.2789 38.3929 20.6405 38.2467 20.9071 37.9864C21.1737 37.7262 21.3234 37.3732 21.3234 37.0052C21.3234 36.6371 21.1737 36.2842 20.9071 36.0239C20.6405 35.7637 20.2789 35.6175 19.9019 35.6175ZM18.0065 23.1282C17.7552 23.1282 17.5141 23.2257 17.3364 23.3992C17.1587 23.5727 17.0588 23.808 17.0588 24.0534C17.0588 24.2987 17.1587 24.534 17.3364 24.7075C17.5141 24.881 17.7552 24.9785 18.0065 24.9785C18.2579 24.9785 18.4989 24.881 18.6766 24.7075C18.8544 24.534 18.9542 24.2987 18.9542 24.0534C18.9542 23.808 18.8544 23.5727 18.6766 23.3992C18.4989 23.2257 18.2579 23.1282 18.0065 23.1282Z" fill="#7A6AFB"/>
<path d="M50.2279 29.1416C50.2279 29.5096 50.0781 29.8626 49.8115 30.1229C49.5449 30.3831 49.1833 30.5293 48.8063 30.5293C48.4293 30.5293 48.0677 30.3831 47.8011 30.1229C47.5345 29.8626 47.3848 29.5096 47.3848 29.1416C47.3848 28.7736 47.5345 28.4206 47.8011 28.1604C48.0677 27.9001 48.4293 27.7539 48.8063 27.7539C49.1833 27.7539 49.5449 27.9001 49.8115 28.1604C50.0781 28.4206 50.2279 28.7736 50.2279 29.1416V29.1416Z" fill="#7A6AFB"/>
<path d="M39.8038 15.7271C39.2415 15.7271 38.6919 15.8899 38.2243 16.1948C37.7568 16.4998 37.3924 16.9333 37.1772 17.4404C36.962 17.9475 36.9057 18.5056 37.0154 19.0439C37.1251 19.5823 37.3959 20.0768 37.7935 20.465C38.1911 20.8531 38.6977 21.1175 39.2492 21.2246C39.8007 21.3316 40.3723 21.2767 40.8918 21.0666C41.4114 20.8566 41.8554 20.5008 42.1678 20.0444C42.4802 19.588 42.6469 19.0514 42.6469 18.5025C42.6469 17.7664 42.3474 17.0605 41.8142 16.54C41.281 16.0195 40.5579 15.7271 39.8038 15.7271ZM39.8038 15.7271C39.2415 15.7271 38.6919 15.8899 38.2243 16.1948C37.7568 16.4998 37.3924 16.9333 37.1772 17.4404C36.962 17.9475 36.9057 18.5056 37.0154 19.0439C37.1251 19.5823 37.3959 20.0768 37.7935 20.465C38.1911 20.8531 38.6977 21.1175 39.2492 21.2246C39.8007 21.3316 40.3723 21.2767 40.8918 21.0666C41.4114 20.8566 41.8554 20.5008 42.1678 20.0444C42.4802 19.588 42.6469 19.0514 42.6469 18.5025C42.6469 17.7664 42.3474 17.0605 41.8142 16.54C41.281 16.0195 40.5579 15.7271 39.8038 15.7271ZM39.8038 15.7271C39.2415 15.7271 38.6919 15.8899 38.2243 16.1948C37.7568 16.4998 37.3924 16.9333 37.1772 17.4404C36.962 17.9475 36.9057 18.5056 37.0154 19.0439C37.1251 19.5823 37.3959 20.0768 37.7935 20.465C38.1911 20.8531 38.6977 21.1175 39.2492 21.2246C39.8007 21.3316 40.3723 21.2767 40.8918 21.0666C41.4114 20.8566 41.8554 20.5008 42.1678 20.0444C42.4802 19.588 42.6469 19.0514 42.6469 18.5025C42.6469 17.7664 42.3474 17.0605 41.8142 16.54C41.281 16.0195 40.5579 15.7271 39.8038 15.7271ZM41.6992 5.55067C41.3244 5.55067 40.9579 5.65919 40.6462 5.8625C40.3345 6.0658 40.0916 6.35478 39.9481 6.69287C39.8047 7.03096 39.7671 7.40298 39.8403 7.7619C39.9134 8.12081 40.0939 8.4505 40.359 8.70926C40.6241 8.96803 40.9618 9.14425 41.3295 9.21564C41.6971 9.28703 42.0782 9.25039 42.4246 9.11035C42.7709 8.97031 43.0669 8.73315 43.2752 8.42888C43.4835 8.12461 43.5946 7.76688 43.5946 7.40093C43.5946 6.91021 43.3949 6.43959 43.0395 6.0926C42.684 5.74561 42.2019 5.55067 41.6992 5.55067V5.55067ZM53.0716 14.802C52.8202 14.802 52.5792 14.8994 52.4015 15.0729C52.2237 15.2464 52.1239 15.4817 52.1239 15.7271C52.1239 15.9725 52.2237 16.2078 52.4015 16.3813C52.5792 16.5548 52.8202 16.6522 53.0716 16.6522C53.3229 16.6522 53.564 16.5548 53.7417 16.3813C53.9194 16.2078 54.0193 15.9725 54.0193 15.7271C54.0193 15.4817 53.9194 15.2464 53.7417 15.0729C53.564 14.8994 53.3229 14.802 53.0716 14.802ZM53.0716 14.802C52.8202 14.802 52.5792 14.8994 52.4015 15.0729C52.2237 15.2464 52.1239 15.4817 52.1239 15.7271C52.1239 15.9725 52.2237 16.2078 52.4015 16.3813C52.5792 16.5548 52.8202 16.6522 53.0716 16.6522C53.3229 16.6522 53.564 16.5548 53.7417 16.3813C53.9194 16.2078 54.0193 15.9725 54.0193 15.7271C54.0193 15.4817 53.9194 15.2464 53.7417 15.0729C53.564 14.8994 53.3229 14.802 53.0716 14.802ZM39.8038 15.7271C39.2415 15.7271 38.6919 15.8899 38.2243 16.1948C37.7568 16.4998 37.3924 16.9333 37.1772 17.4404C36.962 17.9475 36.9057 18.5056 37.0154 19.0439C37.1251 19.5823 37.3959 20.0768 37.7935 20.465C38.1911 20.8531 38.6977 21.1175 39.2492 21.2246C39.8007 21.3316 40.3723 21.2767 40.8918 21.0666C41.4114 20.8566 41.8554 20.5008 42.1678 20.0444C42.4802 19.588 42.6469 19.0514 42.6469 18.5025C42.6469 17.7664 42.3474 17.0605 41.8142 16.54C41.281 16.0195 40.5579 15.7271 39.8038 15.7271ZM41.6992 5.55067C41.3244 5.55067 40.9579 5.65919 40.6462 5.8625C40.3345 6.0658 40.0916 6.35478 39.9481 6.69287C39.8047 7.03096 39.7671 7.40298 39.8403 7.7619C39.9134 8.12081 40.0939 8.4505 40.359 8.70926C40.6241 8.96803 40.9618 9.14425 41.3295 9.21564C41.6971 9.28703 42.0782 9.25039 42.4246 9.11035C42.7709 8.97031 43.0669 8.73315 43.2752 8.42888C43.4835 8.12461 43.5946 7.76688 43.5946 7.40093C43.5946 6.91021 43.3949 6.43959 43.0395 6.0926C42.684 5.74561 42.2019 5.55067 41.6992 5.55067V5.55067ZM25.7306 6.61457C22.6588 9.55813 20.6754 13.4142 20.0918 17.5774C20.2781 17.568 20.4647 17.568 20.6509 17.5774C33.1131 17.5774 43.5283 28.1424 42.6469 39.5862C47.3844 38.9187 51.7167 36.6068 54.8497 33.0743C57.9828 29.5418 59.7067 25.0253 59.7054 20.3528C59.7054 3.11758 38.2117 -5.55089 25.7306 6.61457ZM41.6992 3.70041C42.449 3.70041 43.1819 3.91744 43.8053 4.32406C44.4287 4.73068 44.9145 5.30862 45.2015 5.9848C45.4884 6.66098 45.5634 7.40504 45.4172 8.12287C45.2709 8.8407 44.9099 9.50007 44.3797 10.0176C43.8496 10.5351 43.1741 10.8876 42.4388 11.0303C41.7034 11.1731 40.9412 11.0999 40.2486 10.8198C39.5559 10.5397 38.9639 10.0654 38.5473 9.45683C38.1308 8.84828 37.9085 8.13282 37.9085 7.40093C37.9085 6.41949 38.3078 5.47825 39.0188 4.78427C39.7297 4.09028 40.6939 3.70041 41.6992 3.70041V3.70041ZM29.3792 13.8768C28.8169 13.8768 28.2672 13.7141 27.7997 13.4091C27.3321 13.1041 26.9677 12.6707 26.7525 12.1635C26.5374 11.6564 26.481 11.0984 26.5907 10.56C26.7005 10.0216 26.9712 9.5271 27.3688 9.13895C27.7665 8.75081 28.273 8.48648 28.8245 8.37939C29.3761 8.2723 29.9477 8.32726 30.4672 8.53733C30.9867 8.74739 31.4307 9.10312 31.7431 9.55953C32.0555 10.0159 32.2223 10.5525 32.2223 11.1015C32.2223 11.8375 31.9227 12.5435 31.3896 13.064C30.8564 13.5844 30.1332 13.8768 29.3792 13.8768V13.8768ZM39.8038 23.1281C38.8667 23.1281 37.9505 22.8569 37.1713 22.3486C36.3921 21.8403 35.7847 21.1179 35.4261 20.2727C35.0674 19.4274 34.9736 18.4974 35.1564 17.6001C35.3393 16.7028 35.7906 15.8786 36.4532 15.2317C37.1159 14.5848 37.9602 14.1442 38.8794 13.9657C39.7986 13.7872 40.7513 13.8788 41.6172 14.229C42.483 14.5791 43.2231 15.1719 43.7437 15.9326C44.2644 16.6933 44.5423 17.5876 44.5423 18.5025C44.5423 19.7293 44.0431 20.9058 43.1545 21.7733C42.2658 22.6408 41.0606 23.1281 39.8038 23.1281ZM48.8069 32.3795C48.1509 32.3795 47.5096 32.1896 46.9642 31.8338C46.4187 31.478 45.9936 30.9723 45.7425 30.3806C45.4915 29.789 45.4258 29.1379 45.5538 28.5098C45.6817 27.8817 45.9976 27.3048 46.4615 26.8519C46.9254 26.3991 47.5164 26.0907 48.1598 25.9658C48.8033 25.8408 49.4702 25.9049 50.0763 26.15C50.6824 26.3951 51.2004 26.8101 51.5649 27.3426C51.9293 27.8751 52.1239 28.5011 52.1239 29.1415C52.1239 30.0003 51.7744 30.8238 51.1524 31.4311C50.5303 32.0383 49.6867 32.3795 48.8069 32.3795V32.3795ZM53.0716 18.5025C52.5093 18.5025 51.9596 18.3397 51.492 18.0348C51.0245 17.7298 50.6601 17.2963 50.4449 16.7892C50.2297 16.2821 50.1734 15.724 50.2831 15.1857C50.3928 14.6473 50.6636 14.1528 51.0612 13.7646C51.4588 13.3765 51.9654 13.1121 52.5169 13.005C53.0684 12.898 53.6401 12.9529 54.1596 13.163C54.6791 13.373 55.1231 13.7288 55.4355 14.1852C55.7479 14.6416 55.9147 15.1782 55.9147 15.7271C55.9147 16.4632 55.6151 17.1691 55.0819 17.6896C54.5488 18.2101 53.8256 18.5025 53.0716 18.5025V18.5025ZM53.0716 14.802C52.8202 14.802 52.5792 14.8994 52.4015 15.0729C52.2237 15.2464 52.1239 15.4817 52.1239 15.7271C52.1239 15.9725 52.2237 16.2078 52.4015 16.3813C52.5792 16.5548 52.8202 16.6522 53.0716 16.6522C53.3229 16.6522 53.564 16.5548 53.7417 16.3813C53.9194 16.2078 54.0193 15.9725 54.0193 15.7271C54.0193 15.4817 53.9194 15.2464 53.7417 15.0729C53.564 14.8994 53.3229 14.802 53.0716 14.802ZM41.6992 9.25119C42.0741 9.25119 42.4406 9.14268 42.7523 8.93937C43.064 8.73606 43.3069 8.44709 43.4503 8.10899C43.5938 7.7709 43.6313 7.39888 43.5582 7.03996C43.4851 6.68105 43.3046 6.35136 43.0395 6.0926C42.7744 5.83383 42.4367 5.65761 42.069 5.58622C41.7013 5.51483 41.3202 5.55147 40.9739 5.69151C40.6276 5.83155 40.3315 6.06871 40.1233 6.37298C39.915 6.67725 39.8038 7.03498 39.8038 7.40093C39.8038 7.89165 40.0035 8.36227 40.359 8.70926C40.7144 9.05625 41.1965 9.25119 41.6992 9.25119ZM39.8038 15.7271C39.2415 15.7271 38.6919 15.8899 38.2243 16.1948C37.7568 16.4998 37.3924 16.9333 37.1772 17.4404C36.962 17.9475 36.9057 18.5056 37.0154 19.0439C37.1251 19.5823 37.3959 20.0768 37.7935 20.465C38.1911 20.8531 38.6977 21.1175 39.2492 21.2246C39.8007 21.3316 40.3723 21.2767 40.8918 21.0666C41.4114 20.8566 41.8554 20.5008 42.1678 20.0444C42.4802 19.588 42.6469 19.0514 42.6469 18.5025C42.6469 17.7664 42.3474 17.0605 41.8142 16.54C41.281 16.0195 40.5579 15.7271 39.8038 15.7271ZM29.3792 10.1763C29.1279 10.1763 28.8868 10.2738 28.7091 10.4473C28.5314 10.6208 28.4315 10.8561 28.4315 11.1015C28.4315 11.3468 28.5314 11.5821 28.7091 11.7556C28.8868 11.9291 29.1279 12.0266 29.3792 12.0266C29.6305 12.0266 29.8716 11.9291 30.0493 11.7556C30.2271 11.5821 30.3269 11.3468 30.3269 11.1015C30.3269 10.8561 30.2271 10.6208 30.0493 10.4473C29.8716 10.2738 29.6305 10.1763 29.3792 10.1763ZM39.8038 15.7271C39.2415 15.7271 38.6919 15.8899 38.2243 16.1948C37.7568 16.4998 37.3924 16.9333 37.1772 17.4404C36.962 17.9475 36.9057 18.5056 37.0154 19.0439C37.1251 19.5823 37.3959 20.0768 37.7935 20.465C38.1911 20.8531 38.6977 21.1175 39.2492 21.2246C39.8007 21.3316 40.3723 21.2767 40.8918 21.0666C41.4114 20.8566 41.8554 20.5008 42.1678 20.0444C42.4802 19.588 42.6469 19.0514 42.6469 18.5025C42.6469 17.7664 42.3474 17.0605 41.8142 16.54C41.281 16.0195 40.5579 15.7271 39.8038 15.7271ZM53.0716 14.802C52.8202 14.802 52.5792 14.8994 52.4015 15.0729C52.2237 15.2464 52.1239 15.4817 52.1239 15.7271C52.1239 15.9725 52.2237 16.2078 52.4015 16.3813C52.5792 16.5548 52.8202 16.6522 53.0716 16.6522C53.3229 16.6522 53.564 16.5548 53.7417 16.3813C53.9194 16.2078 54.0193 15.9725 54.0193 15.7271C54.0193 15.4817 53.9194 15.2464 53.7417 15.0729C53.564 14.8994 53.3229 14.802 53.0716 14.802ZM53.0716 14.802C52.8202 14.802 52.5792 14.8994 52.4015 15.0729C52.2237 15.2464 52.1239 15.4817 52.1239 15.7271C52.1239 15.9725 52.2237 16.2078 52.4015 16.3813C52.5792 16.5548 52.8202 16.6522 53.0716 16.6522C53.3229 16.6522 53.564 16.5548 53.7417 16.3813C53.9194 16.2078 54.0193 15.9725 54.0193 15.7271C54.0193 15.4817 53.9194 15.2464 53.7417 15.0729C53.564 14.8994 53.3229 14.802 53.0716 14.802ZM39.8038 15.7271C39.2415 15.7271 38.6919 15.8899 38.2243 16.1948C37.7568 16.4998 37.3924 16.9333 37.1772 17.4404C36.962 17.9475 36.9057 18.5056 37.0154 19.0439C37.1251 19.5823 37.3959 20.0768 37.7935 20.465C38.1911 20.8531 38.6977 21.1175 39.2492 21.2246C39.8007 21.3316 40.3723 21.2767 40.8918 21.0666C41.4114 20.8566 41.8554 20.5008 42.1678 20.0444C42.4802 19.588 42.6469 19.0514 42.6469 18.5025C42.6469 17.7664 42.3474 17.0605 41.8142 16.54C41.281 16.0195 40.5579 15.7271 39.8038 15.7271Z" fill="#7A6AFB"/>
</svg>
