<svg width="30" height="34" viewBox="0 0 30 34" fill="none" xmlns="http://www.w3.org/2000/svg">
<path d="M21.6667 0.333252L30 8.66659V32.0133C29.9996 32.4519 29.825 32.8724 29.5147 33.1824C29.2043 33.4925 28.7836 33.6666 28.345 33.6666H1.655C1.2173 33.6635 0.798362 33.4884 0.488696 33.1791C0.17903 32.8697 0.00349108 32.451 0 32.0133V1.98659C0 1.07325 0.741667 0.333252 1.655 0.333252H21.6667ZM15 23.6666C16.7681 23.6666 18.4638 22.9642 19.714 21.714C20.9643 20.4637 21.6667 18.768 21.6667 16.9999C21.6667 15.2318 20.9643 13.5361 19.714 12.2859C18.4638 11.0356 16.7681 10.3333 15 10.3333H8.33333V23.6666H15ZM11.6667 13.6666H15C15.8841 13.6666 16.7319 14.0178 17.357 14.6429C17.9821 15.268 18.3333 16.1159 18.3333 16.9999C18.3333 17.884 17.9821 18.7318 17.357 19.3569C16.7319 19.9821 15.8841 20.3333 15 20.3333H11.6667V13.6666Z" fill="white"/>
</svg>
