<svg width="26" height="26" viewBox="0 0 26 26" fill="none" xmlns="http://www.w3.org/2000/svg">
<path d="M20.2693 7.81093C20.1686 7.70939 20.0488 7.62879 19.9168 7.57379C19.7848 7.51879 19.6432 7.49048 19.5001 7.49048C19.3571 7.49048 19.2155 7.51879 19.0835 7.57379C18.9515 7.62879 18.8317 7.70939 18.731 7.81093L10.6601 15.8926L7.26932 12.4909C7.16475 12.3899 7.04131 12.3105 6.90605 12.2572C6.77079 12.2039 6.62636 12.1777 6.481 12.1803C6.33564 12.1828 6.19219 12.2139 6.05886 12.2718C5.92552 12.3298 5.80491 12.4134 5.7039 12.518C5.60289 12.6226 5.52347 12.746 5.47016 12.8813C5.41686 13.0165 5.39072 13.161 5.39323 13.3063C5.39575 13.4517 5.42687 13.5951 5.48482 13.7285C5.54277 13.8618 5.62642 13.9824 5.73098 14.0834L9.89098 18.2434C9.99169 18.345 10.1115 18.4256 10.2435 18.4806C10.3755 18.5356 10.5171 18.5639 10.6601 18.5639C10.8032 18.5639 10.9448 18.5356 11.0768 18.4806C11.2088 18.4256 11.3286 18.345 11.4293 18.2434L20.2693 9.40343C20.3793 9.30198 20.467 9.17886 20.5271 9.04182C20.5871 8.90478 20.6181 8.75679 20.6181 8.60718C20.6181 8.45757 20.5871 8.30958 20.5271 8.17254C20.467 8.0355 20.3793 7.91237 20.2693 7.81093V7.81093Z" fill="white"/>
</svg>
