<svg width="19" height="18" viewBox="0 0 19 18" fill="none" xmlns="http://www.w3.org/2000/svg">
<path d="M4.25 13.5H7.43C7.5287 13.5005 7.62655 13.4816 7.71793 13.4443C7.80931 13.407 7.89242 13.352 7.9625 13.2825L13.1525 8.08495L15.2825 5.99995C15.3528 5.93023 15.4086 5.84728 15.4467 5.75589C15.4847 5.66449 15.5043 5.56646 15.5043 5.46745C15.5043 5.36845 15.4847 5.27042 15.4467 5.17902C15.4086 5.08763 15.3528 5.00468 15.2825 4.93495L12.1025 1.71745C12.0328 1.64716 11.9498 1.59136 11.8584 1.55329C11.767 1.51521 11.669 1.49561 11.57 1.49561C11.471 1.49561 11.373 1.51521 11.2816 1.55329C11.1902 1.59136 11.1072 1.64716 11.0375 1.71745L8.9225 3.83995L3.7175 9.03745C3.64799 9.10753 3.593 9.19065 3.55567 9.28202C3.51835 9.3734 3.49943 9.47125 3.5 9.56995V12.75C3.5 12.9489 3.57902 13.1396 3.71967 13.2803C3.86032 13.4209 4.05109 13.5 4.25 13.5ZM11.57 3.30745L13.6925 5.42995L12.6275 6.49495L10.505 4.37245L11.57 3.30745ZM5 9.87745L9.4475 5.42995L11.57 7.55245L7.1225 12H5V9.87745ZM16.25 15H2.75C2.55109 15 2.36032 15.079 2.21967 15.2196C2.07902 15.3603 2 15.551 2 15.75C2 15.9489 2.07902 16.1396 2.21967 16.2803C2.36032 16.4209 2.55109 16.5 2.75 16.5H16.25C16.4489 16.5 16.6397 16.4209 16.7803 16.2803C16.921 16.1396 17 15.9489 17 15.75C17 15.551 16.921 15.3603 16.7803 15.2196C16.6397 15.079 16.4489 15 16.25 15Z" fill="#0D1C2E"/>
</svg>
