<svg width="110" height="101" viewBox="0 0 110 101" fill="none" xmlns="http://www.w3.org/2000/svg">
<circle opacity="0.5" cx="50.5" cy="50.5" r="49.5" stroke="#838F9C" stroke-linecap="round" stroke-linejoin="round" stroke-dasharray="5"/>
<circle cx="94" cy="27" r="16" fill="#3E66FB"/>
<path d="M93.5 33H92.5C92.5 33.5523 92.9477 34 93.5 34V33ZM93.5 27.5H94.5C94.5 26.9477 94.0523 26.5 93.5 26.5V27.5ZM94.5 33V34C95.0523 34 95.5 33.5523 95.5 33H94.5ZM94.5 27.5V26.5C93.9477 26.5 93.5 26.9477 93.5 27.5H94.5ZM100 27.5V28.5C100.552 28.5 101 28.0523 101 27.5H100ZM100 26.5H101C101 25.9477 100.552 25.5 100 25.5V26.5ZM94.5 26.5H93.5C93.5 27.0523 93.9477 27.5 94.5 27.5V26.5ZM94.5 21H95.5C95.5 20.4477 95.0523 20 94.5 20V21ZM93.5 21V20C92.9477 20 92.5 20.4477 92.5 21H93.5ZM93.5 26.5V27.5C94.0523 27.5 94.5 27.0523 94.5 26.5H93.5ZM88 26.5V25.5C87.4477 25.5 87 25.9477 87 26.5H88ZM88 27.5H87C87 28.0523 87.4477 28.5 88 28.5V27.5ZM94.5 33V27.5H92.5V33H94.5ZM94.5 32H93.5V34H94.5V32ZM93.5 27.5V33H95.5V27.5H93.5ZM100 26.5H94.5V28.5H100V26.5ZM99 26.5V27.5H101V26.5H99ZM94.5 27.5H100V25.5H94.5V27.5ZM93.5 21V26.5H95.5V21H93.5ZM93.5 22H94.5V20H93.5V22ZM94.5 26.5V21H92.5V26.5H94.5ZM88 27.5H93.5V25.5H88V27.5ZM89 27.5V26.5H87V27.5H89ZM93.5 26.5H88V28.5H93.5V26.5Z" fill="white"/>
<path d="M35.6 35.6V34.6C35.0477 34.6 34.6 35.0477 34.6 35.6H35.6ZM66 35.6H67C67 35.0477 66.5523 34.6 66 34.6V35.6ZM35.6 66H34.6C34.6 66.5523 35.0477 67 35.6 67V66ZM66 66V67C66.5523 67 67 66.5523 67 66H66ZM34.8 33C33.8059 33 33 33.8059 33 34.8H35C35 34.9105 34.9105 35 34.8 35V33ZM41.2 33H34.8V35H41.2V33ZM43 34.8C43 33.8059 42.1941 33 41.2 33V35C41.0895 35 41 34.9105 41 34.8H43ZM41.2 36.6C42.1941 36.6 43 35.7941 43 34.8H41C41 34.6895 41.0895 34.6 41.2 34.6V36.6ZM35.6 36.6H41.2V34.6H35.6V36.6ZM36.6 41.2V35.6H34.6V41.2H36.6ZM34.8 43C35.7941 43 36.6 42.1941 36.6 41.2H34.6C34.6 41.0895 34.6895 41 34.8 41V43ZM33 41.2C33 42.1941 33.8059 43 34.8 43V41C34.9105 41 35 41.0895 35 41.2H33ZM33 34.8V41.2H35V34.8H33ZM60.4 33C59.4059 33 58.6 33.8059 58.6 34.8H60.6C60.6 34.9105 60.5105 35 60.4 35V33ZM66.8 33H60.4V35H66.8V33ZM68.6 34.8C68.6 33.8059 67.7941 33 66.8 33V35C66.6895 35 66.6 34.9105 66.6 34.8H68.6ZM68.6 41.2V34.8H66.6V41.2H68.6ZM66.8 43C67.7941 43 68.6 42.1941 68.6 41.2H66.6C66.6 41.0895 66.6895 41 66.8 41V43ZM65 41.2C65 42.1941 65.8059 43 66.8 43V41C66.9105 41 67 41.0895 67 41.2H65ZM65 35.6V41.2H67V35.6H65ZM60.4 36.6H66V34.6H60.4V36.6ZM58.6 34.8C58.6 35.7941 59.4059 36.6 60.4 36.6V34.6C60.5105 34.6 60.6 34.6895 60.6 34.8H58.6ZM36.6 60.4C36.6 59.4059 35.7941 58.6 34.8 58.6V60.6C34.6895 60.6 34.6 60.5105 34.6 60.4H36.6ZM36.6 66V60.4H34.6V66H36.6ZM41.2 65H35.6V67H41.2V65ZM43 66.8C43 65.8059 42.1941 65 41.2 65V67C41.0895 67 41 66.9105 41 66.8H43ZM41.2 68.6C42.1941 68.6 43 67.7941 43 66.8H41C41 66.6895 41.0895 66.6 41.2 66.6V68.6ZM34.8 68.6H41.2V66.6H34.8V68.6ZM33 66.8C33 67.7941 33.8059 68.6 34.8 68.6V66.6C34.9105 66.6 35 66.6895 35 66.8H33ZM33 60.4V66.8H35V60.4H33ZM34.8 58.6C33.8059 58.6 33 59.4059 33 60.4H35C35 60.5105 34.9105 60.6 34.8 60.6V58.6ZM68.6 60.4C68.6 59.4059 67.7941 58.6 66.8 58.6V60.6C66.6895 60.6 66.6 60.5105 66.6 60.4H68.6ZM68.6 66.8V60.4H66.6V66.8H68.6ZM66.8 68.6C67.7941 68.6 68.6 67.7941 68.6 66.8H66.6C66.6 66.6895 66.6895 66.6 66.8 66.6V68.6ZM60.4 68.6H66.8V66.6H60.4V68.6ZM58.6 66.8C58.6 67.7941 59.4059 68.6 60.4 68.6V66.6C60.5105 66.6 60.6 66.6895 60.6 66.8H58.6ZM60.4 65C59.4059 65 58.6 65.8059 58.6 66.8H60.6C60.6 66.9105 60.5105 67 60.4 67V65ZM66 65H60.4V67H66V65ZM65 60.4V66H67V60.4H65ZM66.8 58.6C65.8059 58.6 65 59.4059 65 60.4H67C67 60.5105 66.9105 60.6 66.8 60.6V58.6Z" fill="#838F9C"/>
<path fill-rule="evenodd" clip-rule="evenodd" d="M43.8008 52.5553V56.8683C43.8008 57.1063 44.0248 57.3003 44.3008 57.3003H59.3008C59.5768 57.3003 59.8008 57.1063 59.8008 56.8683V48.2783C59.8008 48.0393 59.5768 47.8463 59.3008 47.8463H51.8008C51.5008 47.8463 51.2168 47.7113 51.0268 47.4783L48.4268 44.3003H44.3008C44.0248 44.3003 43.8008 44.4933 43.8008 44.7313V52.5553ZM59.3008 59.3003H44.3008C42.9228 59.3003 41.8008 58.2093 41.8008 56.8683V44.7313C41.8008 43.3903 42.9228 42.3003 44.3008 42.3003H48.9018C49.2008 42.3003 49.4858 42.4343 49.6758 42.6673L52.2748 45.8463H59.3008C60.6788 45.8463 61.8008 46.9363 61.8008 48.2783V56.8683C61.8008 58.2093 60.6788 59.3003 59.3008 59.3003Z" fill="#838F9C"/>
<mask id="mask0_2307_34386" style="mask-type:alpha" maskUnits="userSpaceOnUse" x="41" y="42" width="21" height="18">
<path fill-rule="evenodd" clip-rule="evenodd" d="M43.8008 52.5553V56.8683C43.8008 57.1063 44.0248 57.3003 44.3008 57.3003H59.3008C59.5768 57.3003 59.8008 57.1063 59.8008 56.8683V48.2783C59.8008 48.0393 59.5768 47.8463 59.3008 47.8463H51.8008C51.5008 47.8463 51.2168 47.7113 51.0268 47.4783L48.4268 44.3003H44.3008C44.0248 44.3003 43.8008 44.4933 43.8008 44.7313V52.5553ZM59.3008 59.3003H44.3008C42.9228 59.3003 41.8008 58.2093 41.8008 56.8683V44.7313C41.8008 43.3903 42.9228 42.3003 44.3008 42.3003H48.9018C49.2008 42.3003 49.4858 42.4343 49.6758 42.6673L52.2748 45.8463H59.3008C60.6788 45.8463 61.8008 46.9363 61.8008 48.2783V56.8683C61.8008 58.2093 60.6788 59.3003 59.3008 59.3003Z" fill="white"/>
</mask>
<g mask="url(#mask0_2307_34386)">
<rect x="39.8008" y="38.7998" width="24" height="24" fill="#838F9C"/>
</g>
</svg>
