<svg width="24" height="25" viewBox="0 0 24 25" fill="none" xmlns="http://www.w3.org/2000/svg">
<path fill-rule="evenodd" clip-rule="evenodd" d="M11.1114 23.5002C10.9974 23.5002 10.8824 23.4802 10.7694 23.4392C10.3374 23.2822 10.0674 22.8502 10.1174 22.3932L10.8854 15.3002H5.00036C4.63136 15.3002 4.29236 15.0972 4.11836 14.7712C3.94436 14.4452 3.96436 14.0512 4.16936 13.7442L12.0574 1.94418C12.3134 1.56118 12.7974 1.40218 13.2304 1.56118C13.6634 1.71818 13.9324 2.15018 13.8824 2.60718L13.1144 9.70018H19.0004C19.3694 9.70018 19.7084 9.90318 19.8824 10.2292C20.0554 10.5552 20.0364 10.9492 19.8314 11.2562L11.9424 23.0562C11.7534 23.3402 11.4374 23.5002 11.1114 23.5002Z" fill="#51DC8E"/>
<mask id="mask0_13_20944" style="mask-type:alpha" maskUnits="userSpaceOnUse" x="4" y="1" width="16" height="23">
<path fill-rule="evenodd" clip-rule="evenodd" d="M11.1114 23.5002C10.9974 23.5002 10.8824 23.4802 10.7694 23.4392C10.3374 23.2822 10.0674 22.8502 10.1174 22.3932L10.8854 15.3002H5.00036C4.63136 15.3002 4.29236 15.0972 4.11836 14.7712C3.94436 14.4452 3.96436 14.0512 4.16936 13.7442L12.0574 1.94418C12.3134 1.56118 12.7974 1.40218 13.2304 1.56118C13.6634 1.71818 13.9324 2.15018 13.8824 2.60718L13.1144 9.70018H19.0004C19.3694 9.70018 19.7084 9.90318 19.8824 10.2292C20.0554 10.5552 20.0364 10.9492 19.8314 11.2562L11.9424 23.0562C11.7534 23.3402 11.4374 23.5002 11.1114 23.5002Z" fill="white"/>
</mask>
<g mask="url(#mask0_13_20944)">
<rect y="0.5" width="24" height="24" fill="#51DC8E"/>
</g>
</svg>
