<svg width="20" height="24" viewBox="0 0 20 24" fill="none" xmlns="http://www.w3.org/2000/svg">
<path d="M18.8889 7.66928L12.2222 1.82488C11.6111 1.27827 10.82 0.976074 10 0.976074C9.18011 0.976074 8.38896 1.27827 7.77783 1.82488L1.11121 7.66928C0.758287 7.98492 0.476658 8.37212 0.285072 8.8051C0.0934866 9.23809 -0.00365837 9.70692 0.000105326 10.1804V19.8914C0.000105326 20.7755 0.351292 21.6233 0.976409 22.2484C1.60153 22.8735 2.44937 23.2247 3.33342 23.2247H16.6667C17.5507 23.2247 18.3985 22.8735 19.0237 22.2484C19.6488 21.6233 20 20.7755 20 19.8914V10.1693C20.0021 9.69767 19.9042 9.23099 19.7127 8.80003C19.5212 8.36908 19.2404 7.98368 18.8889 7.66928ZM12.2222 21.0025H7.77783V15.447C7.77783 15.1523 7.89489 14.8697 8.10326 14.6613C8.31164 14.453 8.59425 14.3359 8.88893 14.3359H11.1111C11.4058 14.3359 11.6884 14.453 11.8968 14.6613C12.1052 14.8697 12.2222 15.1523 12.2222 15.447V21.0025ZM17.7778 19.8914C17.7778 20.1861 17.6607 20.4687 17.4523 20.6771C17.2439 20.8855 16.9613 21.0025 16.6667 21.0025H14.4444V15.447C14.4444 14.563 14.0933 13.7151 13.4681 13.09C12.843 12.4649 11.9952 12.1137 11.1111 12.1137H8.88893C8.00488 12.1137 7.15704 12.4649 6.53192 13.09C5.90681 13.7151 5.55562 14.563 5.55562 15.447V21.0025H3.33342C3.03873 21.0025 2.75612 20.8855 2.54775 20.6771C2.33937 20.4687 2.22231 20.1861 2.22231 19.8914V10.1693C2.22251 10.0115 2.2563 9.8556 2.32144 9.71191C2.38658 9.56823 2.48157 9.44006 2.60009 9.33594L9.26671 3.50265C9.46947 3.32452 9.73014 3.22628 10 3.22628C10.2699 3.22628 10.5306 3.32452 10.7334 3.50265L17.4 9.33594C17.5185 9.44006 17.6135 9.56823 17.6786 9.71191C17.7438 9.8556 17.7776 10.0115 17.7778 10.1693V19.8914Z" fill="#C5CEE0"/>
</svg>
