<svg width="24" height="24" viewBox="0 0 24 24" fill="none" xmlns="http://www.w3.org/2000/svg">
<mask id="path-1-inside-1_1747_31791" fill="white">
<path d="M21.32 5.05006L15.32 3.05005H15.25C15.2035 3.04538 15.1566 3.04538 15.11 3.05005H14.88H14.75H14.68L9 5.00005L3.32 3.05005C3.16962 3.00047 3.00961 2.9873 2.85314 3.01164C2.69667 3.03598 2.54822 3.09713 2.42 3.19005C2.29076 3.28207 2.18527 3.40352 2.11224 3.54436C2.03921 3.68521 2.00074 3.8414 2 4.00005V18.0001C1.99946 18.2097 2.06482 18.4142 2.18685 18.5847C2.30887 18.7552 2.48138 18.883 2.68 18.9501L8.68 20.9501C8.88145 21.0157 9.09856 21.0157 9.3 20.9501V20.9501L15 19.0501L20.68 21.0001C20.7862 21.0145 20.8938 21.0145 21 21.0001C21.2091 21.003 21.4132 20.9361 21.58 20.8101C21.7092 20.718 21.8147 20.5966 21.8878 20.4557C21.9608 20.3149 21.9993 20.1587 22 20.0001V6.00005C22.0005 5.79041 21.9352 5.5859 21.8132 5.41543C21.6911 5.24495 21.5186 5.11714 21.32 5.05006V5.05006ZM8 18.6101L4 17.2801V5.39005L8 6.72005V18.6101ZM14 17.2801L10 18.6101V6.72005L14 5.39005V17.2801ZM20 18.6101L16 17.2801V5.39005L20 6.72005V18.6101Z"/>
</mask>
<path d="M21.32 5.05006L15.32 3.05005H15.25C15.2035 3.04538 15.1566 3.04538 15.11 3.05005H14.88H14.75H14.68L9 5.00005L3.32 3.05005C3.16962 3.00047 3.00961 2.9873 2.85314 3.01164C2.69667 3.03598 2.54822 3.09713 2.42 3.19005C2.29076 3.28207 2.18527 3.40352 2.11224 3.54436C2.03921 3.68521 2.00074 3.8414 2 4.00005V18.0001C1.99946 18.2097 2.06482 18.4142 2.18685 18.5847C2.30887 18.7552 2.48138 18.883 2.68 18.9501L8.68 20.9501C8.88145 21.0157 9.09856 21.0157 9.3 20.9501V20.9501L15 19.0501L20.68 21.0001C20.7862 21.0145 20.8938 21.0145 21 21.0001C21.2091 21.003 21.4132 20.9361 21.58 20.8101C21.7092 20.718 21.8147 20.5966 21.8878 20.4557C21.9608 20.3149 21.9993 20.1587 22 20.0001V6.00005C22.0005 5.79041 21.9352 5.5859 21.8132 5.41543C21.6911 5.24495 21.5186 5.11714 21.32 5.05006V5.05006ZM8 18.6101L4 17.2801V5.39005L8 6.72005V18.6101ZM14 17.2801L10 18.6101V6.72005L14 5.39005V17.2801ZM20 18.6101L16 17.2801V5.39005L20 6.72005V18.6101Z" fill="#425466"/>
<path d="M15.32 3.05005L16.1106 0.678346L15.7257 0.550055H15.32V3.05005ZM15.25 3.05005L15 5.53752L15.1247 5.55005H15.25V3.05005ZM15.11 3.05005V5.55005H15.2353L15.36 5.53752L15.11 3.05005ZM14.68 3.05005V0.550055H14.2628L13.8682 0.685518L14.68 3.05005ZM9 5.00005L8.18823 7.36459L9 7.64328L9.81177 7.36459L9 5.00005ZM3.32 3.05005L4.13177 0.685518L4.11736 0.680572L4.1029 0.675802L3.32 3.05005ZM2.42 3.19005L3.86998 5.22662L3.87857 5.2205L3.88711 5.21431L2.42 3.19005ZM2 4.00005L-0.499997 3.98849V4.00005H2ZM2 18.0001L4.5 18.0065V18.0001H2ZM2.68 18.9501L1.88001 21.3186L1.88943 21.3218L2.68 18.9501ZM8.68 20.9501L7.88943 23.3218L7.89721 23.3244L7.905 23.3269L8.68 20.9501ZM15 19.0501L15.8118 16.6855L15.0118 16.4109L14.2094 16.6783L15 19.0501ZM20.68 21.0001L19.8682 23.3646L20.1005 23.4443L20.3439 23.4774L20.68 21.0001ZM21 21.0001L21.0352 18.5003L20.8487 18.4977L20.6639 18.5228L21 21.0001ZM21.58 20.8101L20.13 18.7735L20.101 18.7941L20.0726 18.8156L21.58 20.8101ZM22 20.0001L24.5 20.0116V20.0001H22ZM22 6.00005L19.5 5.9936V6.00005H22ZM8 18.6101L7.21121 20.9824L10.5 22.0759V18.6101H8ZM4 17.2801H1.5V19.0834L3.21121 19.6524L4 17.2801ZM4 5.39005L4.78879 3.01775L1.5 1.92423V5.39005H4ZM8 6.72005H10.5V4.91673L8.78879 4.34775L8 6.72005ZM14 17.2801L14.7888 19.6524L16.5 19.0834V17.2801H14ZM10 18.6101H7.5V22.0759L10.7888 20.9824L10 18.6101ZM10 6.72005L9.21121 4.34775L7.5 4.91673V6.72005H10ZM14 5.39005H16.5V1.92423L13.2112 3.01775L14 5.39005ZM20 18.6101L19.2112 20.9824L22.5 22.0759V18.6101H20ZM16 17.2801H13.5V19.0834L15.2112 19.6524L16 17.2801ZM16 5.39005L16.7888 3.01775L13.5 1.92423V5.39005H16ZM20 6.72005H22.5V4.91673L20.7888 4.34775L20 6.72005ZM22.1106 2.67835L16.1106 0.678346L14.5294 5.42176L20.5294 7.42176L22.1106 2.67835ZM15.32 0.550055H15.25V5.55005H15.32V0.550055ZM15.5 0.562586C15.2872 0.541199 15.0728 0.541199 14.86 0.562586L15.36 5.53752C15.2403 5.54955 15.1197 5.54955 15 5.53752L15.5 0.562586ZM15.11 0.550055H14.88V5.55005H15.11V0.550055ZM14.88 0.550055H14.75V5.55005H14.88V0.550055ZM14.75 0.550055H14.68V5.55005H14.75V0.550055ZM13.8682 0.685518L8.18823 2.63552L9.81177 7.36459L15.4918 5.41459L13.8682 0.685518ZM9.81177 2.63552L4.13177 0.685518L2.50823 5.41459L8.18823 7.36459L9.81177 2.63552ZM4.1029 0.675802C3.57655 0.502242 3.01651 0.45616 2.46887 0.541348L3.23741 5.48193C3.00271 5.51844 2.76269 5.49869 2.53711 5.42431L4.1029 0.675802ZM2.46887 0.541348C1.92123 0.626537 1.40165 0.84056 0.952897 1.1658L3.88711 5.21431C3.69479 5.3537 3.47211 5.44542 3.23741 5.48193L2.46887 0.541348ZM0.97003 1.15349C0.517685 1.47555 0.148458 1.90061 -0.107148 2.39357L4.33162 4.69515C4.22208 4.90642 4.06384 5.08859 3.86998 5.22662L0.97003 1.15349ZM-0.107148 2.39357C-0.362754 2.88652 -0.497402 3.43322 -0.49997 3.98849L4.49998 4.01162C4.49888 4.24959 4.44117 4.48389 4.33162 4.69515L-0.107148 2.39357ZM-0.499997 4.00005V18.0001H4.5V4.00005H-0.499997ZM-0.499988 17.9936C-0.501882 18.7274 -0.273122 19.4431 0.153958 20.0398L4.21973 17.1296C4.40277 17.3853 4.50081 17.692 4.5 18.0065L-0.499988 17.9936ZM0.153958 20.0398C0.581037 20.6365 1.18483 21.0838 1.88001 21.3186L3.48 16.5815C3.77793 16.6821 4.0367 16.8739 4.21973 17.1296L0.153958 20.0398ZM1.88943 21.3218L7.88943 23.3218L9.47057 18.5783L3.47057 16.5783L1.88943 21.3218ZM7.905 23.3269C8.61007 23.5568 9.36994 23.5568 10.075 23.3269L8.525 18.5732C8.82717 18.4747 9.15283 18.4747 9.455 18.5732L7.905 23.3269ZM10.0906 23.3218L15.7906 21.4218L14.2094 16.6783L8.50943 18.5783L10.0906 23.3218ZM14.1882 21.4146L19.8682 23.3646L21.4918 18.6355L15.8118 16.6855L14.1882 21.4146ZM20.3439 23.4774C20.6731 23.522 21.0069 23.522 21.3361 23.4774L20.6639 18.5228C20.7808 18.5069 20.8993 18.5069 21.0161 18.5228L20.3439 23.4774ZM20.9648 23.4998C21.73 23.5106 22.4769 23.2659 23.0874 22.8045L20.0726 18.8156C20.3495 18.6064 20.6882 18.4954 21.0352 18.5003L20.9648 23.4998ZM23.03 22.8466C23.4823 22.5246 23.8515 22.0995 24.1072 21.6065L19.6684 19.305C19.7779 19.0937 19.9362 18.9115 20.13 18.7735L23.03 22.8466ZM24.1072 21.6065C24.3628 21.1136 24.4974 20.5669 24.5 20.0116L19.5 19.9885C19.5011 19.7505 19.5588 19.5162 19.6684 19.305L24.1072 21.6065ZM24.5 20.0001V6.00005H19.5V20.0001H24.5ZM24.5 6.00651C24.5019 5.27276 24.2731 4.55696 23.846 3.96031L19.7803 6.87054C19.5972 6.61483 19.4992 6.30807 19.5 5.9936L24.5 6.00651ZM23.846 3.96031C23.419 3.36365 22.8152 2.91631 22.12 2.68151L20.52 7.4186C20.2221 7.31797 19.9633 7.12626 19.7803 6.87054L23.846 3.96031ZM8.78879 16.2378L4.78879 14.9078L3.21121 19.6524L7.21121 20.9824L8.78879 16.2378ZM6.5 17.2801V5.39005H1.5V17.2801H6.5ZM3.21121 7.76236L7.21121 9.09236L8.78879 4.34775L4.78879 3.01775L3.21121 7.76236ZM5.5 6.72005V18.6101H10.5V6.72005H5.5ZM13.2112 14.9078L9.21121 16.2378L10.7888 20.9824L14.7888 19.6524L13.2112 14.9078ZM12.5 18.6101V6.72005H7.5V18.6101H12.5ZM10.7888 9.09236L14.7888 7.76236L13.2112 3.01775L9.21121 4.34775L10.7888 9.09236ZM11.5 5.39005V17.2801H16.5V5.39005H11.5ZM20.7888 16.2378L16.7888 14.9078L15.2112 19.6524L19.2112 20.9824L20.7888 16.2378ZM18.5 17.2801V5.39005H13.5V17.2801H18.5ZM15.2112 7.76236L19.2112 9.09236L20.7888 4.34775L16.7888 3.01775L15.2112 7.76236ZM17.5 6.72005V18.6101H22.5V6.72005H17.5Z" fill="#425466" mask="url(#path-1-inside-1_1747_31791)"/>
</svg>
