<svg width="38" height="38" viewBox="0 0 38 38" fill="none" xmlns="http://www.w3.org/2000/svg">
<path d="M24.7275 9.40396C23.6928 8.61321 22.4811 8.04707 21.1808 7.74685C19.8806 7.44663 18.5246 7.4199 17.2118 7.66861C15.4639 7.99668 13.8601 8.7998 12.6042 9.97609C11.3482 11.1524 10.4966 12.6488 10.1574 14.2755C9.90975 15.4952 9.95476 16.7506 10.2893 17.9523C10.6238 19.1539 11.2395 20.2722 12.0926 21.2274C12.8843 22.0575 13.3382 23.119 13.3752 24.2276V27.3638C13.3752 28.1956 13.7309 28.9933 14.3638 29.5814C14.9968 30.1696 15.8554 30.5 16.7505 30.5H21.251C22.1461 30.5 23.0047 30.1696 23.6377 29.5814C24.2707 28.9933 24.6263 28.1956 24.6263 27.3638V24.4263C24.664 23.2023 25.148 22.0265 25.9989 21.0915C27.4898 19.3778 28.1926 17.1867 27.9545 14.9943C27.7164 12.8019 26.5568 10.7854 24.7275 9.38306V9.40396ZM22.3761 27.3638C22.3761 27.6411 22.2575 27.907 22.0465 28.103C21.8355 28.2991 21.5494 28.4092 21.251 28.4092H16.7505C16.4522 28.4092 16.166 28.2991 15.955 28.103C15.744 27.907 15.6254 27.6411 15.6254 27.3638V26.3184H22.3761V27.3638ZM24.255 19.7952C23.1237 21.0419 22.4637 22.599 22.3761 24.2276H20.1259V21.0915C20.1259 20.8142 20.0073 20.5483 19.7963 20.3523C19.5853 20.1562 19.2991 20.0461 19.0008 20.0461C18.7024 20.0461 18.4162 20.1562 18.2052 20.3523C17.9942 20.5483 17.8756 20.8142 17.8756 21.0915V24.2276H15.6254C15.5958 22.6262 14.9582 21.086 13.8253 19.8788C13.0778 19.0467 12.5752 18.0488 12.3664 16.9824C12.1576 15.916 12.2497 14.8175 12.6339 13.7941C13.018 12.7707 13.6811 11.8572 14.5583 11.1428C15.4356 10.4284 16.4971 9.93732 17.6394 9.71758C18.6211 9.52977 19.6355 9.54744 20.6089 9.7693C21.5824 9.99116 22.4904 10.4116 23.2672 11.0002C24.0439 11.5888 24.6699 12.3307 25.0996 13.1721C25.5293 14.0135 25.7519 14.9332 25.7514 15.8645C25.7597 17.2965 25.2305 18.6865 24.255 19.7952V19.7952Z" fill="#F6F5F5"/>
</svg>
