<svg width="243" height="94" viewBox="0 0 243 94" fill="none" xmlns="http://www.w3.org/2000/svg">
<path d="M117.763 68.4941C119.997 68.4941 121.565 67.2266 121.565 64.5625V50.2109H123.628C125.132 50.2109 126.313 49.2441 126.313 47.4824C126.313 45.7422 125.132 44.7754 123.628 44.7754H121.35V43.7871C121.35 42.4121 122.059 41.7461 123.971 41.6387C124.444 41.6172 124.852 41.5527 125.196 41.4453C126.141 41.1875 126.614 40.6074 126.614 39.6191C126.614 37.9219 125.046 36.6758 121.007 36.6758C116.28 36.7188 113.938 38.7383 113.938 43.4219V44.7754H113.1C111.618 44.7754 110.415 45.7422 110.415 47.4824C110.415 49.2441 111.618 50.2109 113.1 50.2109H113.938V64.5625C113.938 67.2266 115.507 68.4941 117.763 68.4941ZM139.301 68.5586C146.67 68.5586 151.268 64.1113 151.268 56.291C151.268 48.6211 146.606 44.0449 139.301 44.0449C132.039 44.0449 127.334 48.6426 127.334 56.291C127.334 64.0898 131.932 68.5586 139.301 68.5586ZM139.301 62.9727C136.68 62.9727 135.069 60.5879 135.069 56.3125C135.069 52.1016 136.723 49.6309 139.301 49.6309C141.901 49.6309 143.555 52.1016 143.555 56.3125C143.555 60.5879 141.901 62.9727 139.301 62.9727ZM165.029 68.5586C172.398 68.5586 176.996 64.1113 176.996 56.291C176.996 48.6211 172.334 44.0449 165.029 44.0449C157.767 44.0449 153.062 48.6426 153.062 56.291C153.062 64.0898 157.66 68.5586 165.029 68.5586ZM165.029 62.9727C162.408 62.9727 160.797 60.5879 160.797 56.3125C160.797 52.1016 162.451 49.6309 165.029 49.6309C167.629 49.6309 169.283 52.1016 169.283 56.3125C169.283 60.5879 167.629 62.9727 165.029 62.9727ZM188.114 68.3438C191.659 68.3438 194.302 66.4531 195.204 63.918H195.355V64.584C195.355 67.2266 196.944 68.4941 199.157 68.4941C201.392 68.4941 202.96 67.2266 202.96 64.584V40.457C202.96 37.793 201.392 36.5039 199.157 36.5039C196.923 36.5039 195.355 37.793 195.355 40.457V48.7285H195.204C194.173 46.1074 191.595 44.2598 188.2 44.2598C182.357 44.2598 178.79 48.7715 178.79 56.248C178.79 63.8105 182.292 68.3438 188.114 68.3438ZM190.972 62.3926C188.222 62.3926 186.589 60.0938 186.589 56.3125C186.589 52.5527 188.243 50.2109 190.972 50.2109C193.7 50.2109 195.376 52.5527 195.376 56.3125C195.376 60.1152 193.722 62.3926 190.972 62.3926ZM214.723 68.4512C218.247 68.4512 220.481 66.6465 221.534 63.5742H221.684V64.6484C221.684 67.248 223.188 68.4941 225.379 68.4941C227.571 68.4941 229.075 67.248 229.075 64.627V48.0625C229.075 45.3984 227.506 44.1094 225.272 44.1094C223.038 44.1094 221.469 45.3984 221.469 48.0625V57.8379C221.469 60.4805 219.965 62.2422 217.602 62.2422C215.217 62.2422 213.778 60.7598 213.778 57.9883V48.0625C213.778 45.3984 212.188 44.1094 209.975 44.1094C207.741 44.1094 206.151 45.3984 206.151 48.0625V59.6426C206.151 65.1641 209.696 68.4512 214.723 68.4512ZM236.283 68.4941C238.496 68.4941 240.086 67.2051 240.086 64.541V40.457C240.086 37.793 238.496 36.5039 236.283 36.5039C234.049 36.5039 232.459 37.793 232.459 40.457V64.541C232.459 67.2051 234.049 68.4941 236.283 68.4941Z" fill="#2D0C57"/>
<circle cx="47" cy="47" r="47" fill="#51DC8E"/>
<path fill-rule="evenodd" clip-rule="evenodd" d="M44.1146 35.6204C44.3571 33.7127 44.4821 31.7683 44.4821 29.7947C44.4821 19.1757 40.8635 9.4018 34.7921 1.63892C34.784 1.62849 34.7758 1.61808 34.7677 1.60766C15.7282 6.72571 1.46558 23.5035 0.106201 43.8146C7.97662 37.4105 18.0176 33.5715 28.9553 33.5715C34.2439 33.5715 39.3229 34.469 44.0483 36.1201C44.0713 35.9538 44.0934 35.7873 44.1146 35.6204Z" fill="#4A80F0"/>
<path fill-rule="evenodd" clip-rule="evenodd" d="M8.82368 74.4209C3.27065 66.7034 0 57.2337 0 47.0001C0 45.9295 0.0357939 44.8673 0.10625 43.8146C7.97667 37.4105 18.0177 33.5715 28.9554 33.5715C34.244 33.5715 39.323 34.4691 44.0483 36.1202C41.4296 55.0514 27.2251 70.2812 8.82368 74.4209Z" fill="#00F462"/>
<path fill-rule="evenodd" clip-rule="evenodd" d="M74.3142 85.2528C86.2324 76.7275 94 62.7708 94 47C94 45.4067 93.9207 43.832 93.7659 42.2795C90.4686 41.5241 87.0354 41.125 83.5089 41.125C75.4227 41.125 67.8266 43.2232 61.2354 46.905C69.5504 55.1875 74.6964 66.649 74.6964 79.3125C74.6964 81.3256 74.5664 83.3084 74.3142 85.2528Z" fill="#4A80F0"/>
<path fill-rule="evenodd" clip-rule="evenodd" d="M38.1997 93.1776C16.4486 89.0576 0 69.9497 0 47.0001C0 45.9295 0.0357939 44.8673 0.10625 43.8146C7.97667 37.4105 18.0177 33.5715 28.9554 33.5715C41.554 33.5715 52.9629 38.665 61.2354 46.9051C47.2348 54.7255 37.7679 69.6903 37.7679 86.8662C37.7679 89.0075 37.915 91.1145 38.1997 93.1776Z" fill="#7A6AFB"/>
<path fill-rule="evenodd" clip-rule="evenodd" d="M74.3142 85.2528C74.5664 83.3084 74.6965 81.3257 74.6965 79.3126C74.6965 66.6491 69.5504 55.1875 61.2354 46.905C47.2348 54.7254 37.7679 69.6902 37.7679 86.8661C37.7679 89.0075 37.915 91.1145 38.1998 93.1776C41.0505 93.7175 43.9923 94.0001 47 94.0001C57.1866 94.0001 66.6162 90.7594 74.3142 85.2528Z" fill="#483FF7"/>
<path fill-rule="evenodd" clip-rule="evenodd" d="M44.0483 36.1202C41.4296 55.0514 27.2251 70.2812 8.82369 74.4209C3.27066 66.7034 0 57.2337 0 47.0001C0 45.9295 0.0357939 44.8673 0.10625 43.8146C7.97667 37.4105 18.0177 33.5715 28.9554 33.5715C34.244 33.5715 39.323 34.4691 44.0483 36.1202Z" fill="#483FF7"/>
<path fill-rule="evenodd" clip-rule="evenodd" d="M26.4375 27.0025C26.4375 22.5188 30.0723 18.884 34.556 18.884H67.5625C72.893 18.884 77.2143 23.2053 77.2143 28.5358C77.2143 33.8664 72.893 38.1876 67.5625 38.1876H26.4375V27.0025ZM34.556 24.759C33.3169 24.759 32.3125 25.7635 32.3125 27.0025V32.3126H67.5625C69.6484 32.3126 71.3393 30.6217 71.3393 28.5358C71.3393 26.45 69.6484 24.759 67.5625 24.759H34.556Z" fill="white"/>
<path fill-rule="evenodd" clip-rule="evenodd" d="M26.0179 42.8035H56.442C61.8884 42.8035 66.3036 47.2187 66.3036 52.6651C66.3036 58.1115 61.8884 62.5267 56.442 62.5267H45.7411V67.3526C45.7411 72.799 41.3259 77.2142 35.8795 77.2142C30.4331 77.2142 26.0179 72.799 26.0179 67.3526V42.8035ZM31.8929 48.6785V67.3526C31.8929 69.5543 33.6777 71.3392 35.8795 71.3392C38.0812 71.3392 39.8661 69.5543 39.8661 67.3526V56.6517H56.442C58.6437 56.6517 60.4286 54.8668 60.4286 52.6651C60.4286 50.4633 58.6437 48.6785 56.442 48.6785H31.8929Z" fill="white"/>
</svg>
