<svg width="113" height="46" viewBox="0 0 113 46" fill="none" xmlns="http://www.w3.org/2000/svg">
<path d="M66.913 19.6601C66.913 20.6709 66.7445 21.6086 66.4076 22.4732C66.077 23.3315 65.6065 24.0753 64.9962 24.7047C64.3859 25.3341 63.6516 25.8268 62.7934 26.1828C61.9351 26.5325 60.9815 26.7073 59.9325 26.7073C58.8899 26.7073 57.9395 26.5325 57.0812 26.1828C56.223 25.8268 55.4855 25.3341 54.8689 24.7047C54.2585 24.0753 53.7849 23.3315 53.448 22.4732C53.111 21.6086 52.9426 20.6709 52.9426 19.6601C52.9426 18.6493 53.111 17.7147 53.448 16.8565C53.7849 15.9919 54.2585 15.2449 54.8689 14.6155C55.4855 13.9861 56.223 13.4966 57.0812 13.1469C57.9395 12.7909 58.8899 12.6129 59.9325 12.6129C60.6319 12.6129 61.2899 12.6955 61.9065 12.8608C62.5232 13.0198 63.089 13.2486 63.604 13.5474C64.1189 13.8399 64.5798 14.1991 64.9867 14.625C65.3999 15.0446 65.7496 15.5151 66.0357 16.0364C66.3218 16.5577 66.5379 17.1235 66.6841 17.7338C66.8367 18.3441 66.913 18.9862 66.913 19.6601ZM64.2906 19.6601C64.2906 18.9036 64.1888 18.2265 63.9854 17.6289C63.782 17.0249 63.4927 16.5132 63.1176 16.0936C62.7425 15.674 62.2848 15.3529 61.7444 15.1304C61.2104 14.9079 60.6064 14.7967 59.9325 14.7967C59.2587 14.7967 58.6515 14.9079 58.1111 15.1304C57.5771 15.3529 57.1194 15.674 56.7379 16.0936C56.3629 16.5132 56.0736 17.0249 55.8702 17.6289C55.6667 18.2265 55.565 18.9036 55.565 19.6601C55.565 20.4166 55.6667 21.0969 55.8702 21.7008C56.0736 22.2984 56.3629 22.807 56.7379 23.2266C57.1194 23.6398 57.5771 23.9577 58.1111 24.1802C58.6515 24.4027 59.2587 24.514 59.9325 24.514C60.6064 24.514 61.2104 24.4027 61.7444 24.1802C62.2848 23.9577 62.7425 23.6398 63.1176 23.2266C63.4927 22.807 63.782 22.2984 63.9854 21.7008C64.1888 21.0969 64.2906 20.4166 64.2906 19.6601ZM59.1315 10.658C59.1315 10.8296 59.0965 10.9917 59.0266 11.1443C58.9567 11.2969 58.8613 11.4304 58.7405 11.5448C58.6261 11.6593 58.4894 11.7483 58.3305 11.8119C58.1715 11.8754 58.0031 11.9072 57.8251 11.9072C57.6598 11.9072 57.5008 11.8754 57.3483 11.8119C57.202 11.7483 57.0717 11.6593 56.9573 11.5448C56.8428 11.4304 56.7507 11.2969 56.6807 11.1443C56.6108 10.9917 56.5758 10.8296 56.5758 10.658C56.5758 10.4863 56.6108 10.3242 56.6807 10.1716C56.7507 10.0127 56.8428 9.87602 56.9573 9.76159C57.0717 9.6408 57.202 9.54543 57.3483 9.4755C57.5008 9.40557 57.6598 9.37061 57.8251 9.37061C58.0031 9.37061 58.1715 9.40557 58.3305 9.4755C58.4894 9.54543 58.6261 9.6408 58.7405 9.76159C58.8613 9.87602 58.9567 10.0127 59.0266 10.1716C59.0965 10.3242 59.1315 10.4863 59.1315 10.658ZM63.3274 10.658C63.3274 10.8296 63.2924 10.9917 63.2225 11.1443C63.1589 11.2969 63.0668 11.4304 62.946 11.5448C62.8315 11.6593 62.6948 11.7483 62.5359 11.8119C62.3833 11.8754 62.2212 11.9072 62.0496 11.9072C61.8716 11.9072 61.7031 11.8754 61.5442 11.8119C61.3916 11.7483 61.2581 11.6593 61.1436 11.5448C61.0292 11.4304 60.937 11.2969 60.8671 11.1443C60.8035 10.9917 60.7717 10.8296 60.7717 10.658C60.7717 10.4863 60.8035 10.3242 60.8671 10.1716C60.937 10.0127 61.0292 9.87602 61.1436 9.76159C61.2581 9.6408 61.3916 9.54543 61.5442 9.4755C61.7031 9.40557 61.8716 9.37061 62.0496 9.37061C62.2212 9.37061 62.3833 9.40557 62.5359 9.4755C62.6948 9.54543 62.8315 9.6408 62.946 9.76159C63.0668 9.87602 63.1589 10.0127 63.2225 10.1716C63.2924 10.3242 63.3274 10.4863 63.3274 10.658Z" fill="#0D1C2E"/>
<path d="M70.8291 17.9722C71.0261 17.7751 71.2328 17.5939 71.4489 17.4286C71.6714 17.257 71.9035 17.1139 72.145 16.9995C72.393 16.8787 72.6568 16.7865 72.9365 16.723C73.2163 16.653 73.5214 16.6181 73.852 16.6181C74.386 16.6181 74.8597 16.7102 75.2729 16.8946C75.6861 17.0726 76.0294 17.3269 76.3028 17.6575C76.5825 17.9817 76.7923 18.3727 76.9322 18.8304C77.0784 19.2818 77.1515 19.7809 77.1515 20.3276V26.5547H74.7961V20.3276C74.7961 19.73 74.6594 19.2691 74.386 18.9449C74.1127 18.6143 73.6963 18.449 73.1368 18.449C72.7299 18.449 72.3485 18.5412 71.9925 18.7255C71.6365 18.9099 71.2995 19.161 70.9816 19.4789V26.5547H68.6262V16.7706H70.0662C70.3713 16.7706 70.5716 16.9137 70.6669 17.1998L70.8291 17.9722Z" fill="#0D1C2E"/>
<path d="M85.695 20.5374C85.695 20.2323 85.6505 19.9462 85.5615 19.6792C85.4788 19.4058 85.3517 19.1674 85.18 18.9639C85.0084 18.7605 84.7891 18.6016 84.522 18.4871C84.2614 18.3664 83.9562 18.306 83.6066 18.306C82.9263 18.306 82.3891 18.4999 81.995 18.8877C81.6072 19.2755 81.3592 19.8254 81.2512 20.5374H85.695ZM81.2035 21.9583C81.2416 22.4605 81.3306 22.896 81.4705 23.2647C81.6103 23.6271 81.7947 23.9291 82.0236 24.1707C82.2524 24.4059 82.5226 24.5839 82.8342 24.7047C83.152 24.8191 83.5017 24.8763 83.8831 24.8763C84.2646 24.8763 84.592 24.8318 84.8653 24.7428C85.1451 24.6538 85.3867 24.5553 85.5901 24.4472C85.7999 24.3391 85.9811 24.2406 86.1337 24.1516C86.2926 24.0626 86.4452 24.0181 86.5914 24.0181C86.7885 24.0181 86.9347 24.0912 87.03 24.2374L87.7071 25.0957C87.4465 25.4008 87.154 25.6583 86.8298 25.8681C86.5056 26.0715 86.1654 26.2368 85.8094 26.364C85.4598 26.4848 85.1006 26.5706 84.7318 26.6215C84.3695 26.6723 84.0166 26.6978 83.6733 26.6978C82.9931 26.6978 82.3605 26.5865 81.7756 26.364C81.1908 26.1351 80.6822 25.8014 80.2499 25.3627C79.8176 24.9177 79.4774 24.3709 79.2295 23.7225C78.9816 23.0677 78.8576 22.3111 78.8576 21.4529C78.8576 20.7853 78.9657 20.1591 79.1818 19.5743C79.398 18.983 79.7063 18.4712 80.1068 18.0389C80.5137 17.6003 81.0064 17.2538 81.5849 16.9995C82.1698 16.7452 82.8278 16.6181 83.5589 16.6181C84.1756 16.6181 84.7446 16.7166 85.2659 16.9137C85.7872 17.1108 86.2354 17.4 86.6105 17.7815C86.9855 18.1566 87.278 18.6206 87.4878 19.1737C87.7039 19.7205 87.812 20.3467 87.812 21.0524C87.812 21.4084 87.7739 21.65 87.6976 21.7771C87.6213 21.8979 87.4751 21.9583 87.2589 21.9583H81.2035Z" fill="#0D1C2E"/>
<path d="M91.8015 18.4681C92.1067 17.8832 92.4691 17.4255 92.8887 17.0949C93.3082 16.7579 93.8041 16.5895 94.3763 16.5895C94.8277 16.5895 95.19 16.688 95.4634 16.8851L95.3108 18.6493C95.279 18.7637 95.2314 18.8463 95.1678 18.8972C95.1106 18.9417 95.0311 18.9639 94.9294 18.9639C94.834 18.9639 94.691 18.9481 94.5003 18.9163C94.3159 18.8845 94.1347 18.8686 93.9567 18.8686C93.696 18.8686 93.464 18.9067 93.2606 18.983C93.0571 19.0593 92.8728 19.1706 92.7075 19.3168C92.5485 19.4566 92.4055 19.6283 92.2783 19.8317C92.1576 20.0352 92.0431 20.2672 91.935 20.5279V26.5547H89.5796V16.7706H90.9624C91.2039 16.7706 91.3724 16.8151 91.4678 16.9041C91.5631 16.9868 91.6267 17.1394 91.6585 17.3619L91.8015 18.4681Z" fill="#0D1C2E"/>
<path d="M99.1357 16.7706V26.5547H96.7708V16.7706H99.1357ZM99.4599 13.9193C99.4599 14.1228 99.4186 14.3135 99.336 14.4915C99.2533 14.6695 99.1421 14.8253 99.0022 14.9588C98.8687 15.0923 98.7098 15.2004 98.5254 15.283C98.341 15.3593 98.144 15.3974 97.9342 15.3974C97.7307 15.3974 97.5368 15.3593 97.3525 15.283C97.1744 15.2004 97.0187 15.0923 96.8852 14.9588C96.7517 14.8253 96.6436 14.6695 96.561 14.4915C96.4847 14.3135 96.4465 14.1228 96.4465 13.9193C96.4465 13.7095 96.4847 13.5125 96.561 13.3281C96.6436 13.1437 96.7517 12.9848 96.8852 12.8513C97.0187 12.7178 97.1744 12.6129 97.3525 12.5366C97.5368 12.454 97.7307 12.4126 97.9342 12.4126C98.144 12.4126 98.341 12.454 98.5254 12.5366C98.7098 12.6129 98.8687 12.7178 99.0022 12.8513C99.1421 12.9848 99.2533 13.1437 99.336 13.3281C99.4186 13.5125 99.4599 13.7095 99.4599 13.9193Z" fill="#0D1C2E"/>
<path d="M61.1055 32.9768C61.0292 33.1103 60.9466 33.2088 60.8575 33.2724C60.7749 33.3296 60.67 33.3582 60.5429 33.3582C60.4094 33.3582 60.2631 33.3105 60.1042 33.2152C59.9516 33.1134 59.7673 33.0022 59.5511 32.8814C59.3349 32.7606 59.0807 32.6525 58.7882 32.5572C58.5021 32.4554 58.162 32.4046 57.7678 32.4046C57.4118 32.4046 57.1003 32.4491 56.8333 32.5381C56.5663 32.6207 56.3406 32.7383 56.1562 32.8909C55.9782 33.0435 55.8447 33.2279 55.7557 33.444C55.6667 33.6538 55.6222 33.8859 55.6222 34.1402C55.6222 34.4644 55.7112 34.7346 55.8892 34.9507C56.0736 35.1669 56.3152 35.3512 56.614 35.5038C56.9128 35.6564 57.2529 35.7931 57.6343 35.9139C58.0158 36.0347 58.4068 36.165 58.8073 36.3049C59.2078 36.4384 59.5988 36.5973 59.9802 36.7817C60.3617 36.9597 60.7018 37.1885 61.0006 37.4683C61.2994 37.7416 61.5378 38.0786 61.7158 38.4791C61.9002 38.8796 61.9923 39.366 61.9923 39.9381C61.9923 40.5612 61.8843 41.146 61.6681 41.6928C61.4583 42.2332 61.1468 42.7068 60.7336 43.1137C60.3267 43.5142 59.8276 43.832 59.2364 44.0673C58.6452 44.2961 57.9681 44.4106 57.2052 44.4106C56.7666 44.4106 56.3342 44.3661 55.9083 44.2771C55.4824 44.1944 55.0723 44.0736 54.6781 43.9147C54.2903 43.7558 53.9248 43.565 53.5815 43.3425C53.2382 43.12 52.933 42.8721 52.666 42.5987L53.4194 41.3685C53.4829 41.2795 53.5656 41.2064 53.6673 41.1492C53.769 41.0856 53.8771 41.0539 53.9915 41.0539C54.1505 41.0539 54.3221 41.1206 54.5065 41.2541C54.6909 41.3813 54.9102 41.5243 55.1645 41.6832C55.4188 41.8422 55.7144 41.9884 56.0513 42.1219C56.3946 42.249 56.8047 42.3126 57.2815 42.3126C58.0126 42.3126 58.5784 42.141 58.9789 41.7977C59.3794 41.448 59.5797 40.949 59.5797 40.3005C59.5797 39.9381 59.4875 39.6425 59.3032 39.4136C59.1252 39.1848 58.8868 38.994 58.588 38.8415C58.2892 38.6825 57.949 38.549 57.5676 38.441C57.1861 38.3329 56.7983 38.2153 56.4042 38.0881C56.01 37.961 55.6222 37.8084 55.2408 37.6304C54.8593 37.4524 54.5192 37.2203 54.2204 36.9342C53.9216 36.6482 53.68 36.2921 53.4957 35.8662C53.3177 35.4339 53.2286 34.903 53.2286 34.2737C53.2286 33.7714 53.3272 33.2819 53.5243 32.8051C53.7277 32.3283 54.0201 31.9055 54.4016 31.5368C54.783 31.1681 55.2535 30.8724 55.8129 30.6499C56.3724 30.4274 57.0145 30.3162 57.7392 30.3162C58.553 30.3162 59.3032 30.4433 59.9898 30.6976C60.6764 30.9519 61.2612 31.3079 61.7444 31.7657L61.1055 32.9768Z" fill="#0D1C2E"/>
<path d="M66.2621 34.4739V44.258H63.8972V34.4739H66.2621ZM66.5864 31.6226C66.5864 31.8261 66.5451 32.0168 66.4624 32.1948C66.3798 32.3728 66.2685 32.5286 66.1286 32.6621C65.9951 32.7956 65.8362 32.9036 65.6518 32.9863C65.4675 33.0626 65.2704 33.1007 65.0606 33.1007C64.8572 33.1007 64.6633 33.0626 64.4789 32.9863C64.3009 32.9036 64.1451 32.7956 64.0116 32.6621C63.8781 32.5286 63.77 32.3728 63.6874 32.1948C63.6111 32.0168 63.573 31.8261 63.573 31.6226C63.573 31.4128 63.6111 31.2157 63.6874 31.0314C63.77 30.847 63.8781 30.6881 64.0116 30.5546C64.1451 30.4211 64.3009 30.3162 64.4789 30.2399C64.6633 30.1572 64.8572 30.1159 65.0606 30.1159C65.2704 30.1159 65.4675 30.1572 65.6518 30.2399C65.8362 30.3162 65.9951 30.4211 66.1286 30.5546C66.2685 30.6881 66.3798 30.847 66.4624 31.0314C66.5451 31.2157 66.5864 31.4128 66.5864 31.6226Z" fill="#0D1C2E"/>
<path d="M74.6331 36.3812C74.5695 36.4829 74.5028 36.556 74.4328 36.6005C74.3629 36.6386 74.2739 36.6577 74.1658 36.6577C74.0514 36.6577 73.9274 36.6259 73.7939 36.5623C73.6668 36.4988 73.5174 36.4288 73.3457 36.3525C73.1741 36.2699 72.977 36.1968 72.7545 36.1332C72.5383 36.0696 72.2808 36.0378 71.982 36.0378C71.5179 36.0378 71.1524 36.1364 70.8854 36.3335C70.6247 36.5306 70.4944 36.788 70.4944 37.1059C70.4944 37.3157 70.5612 37.4937 70.6947 37.6399C70.8345 37.7798 71.0157 37.9038 71.2382 38.0118C71.4671 38.1199 71.7246 38.2184 72.0106 38.3074C72.2967 38.3901 72.586 38.4823 72.8784 38.584C73.1772 38.6857 73.4697 38.8033 73.7558 38.9368C74.0418 39.064 74.2961 39.2293 74.5186 39.4327C74.7475 39.6298 74.9287 39.8682 75.0622 40.1479C75.2021 40.4276 75.272 40.7646 75.272 41.1588C75.272 41.6292 75.1862 42.0647 75.0145 42.4652C74.8492 42.8594 74.6013 43.2027 74.2707 43.4951C73.9401 43.7812 73.5301 44.0069 73.0405 44.1722C72.5574 44.3311 71.9979 44.4106 71.3622 44.4106C71.0252 44.4106 70.6947 44.3788 70.3704 44.3152C70.0526 44.258 69.7442 44.1753 69.4454 44.0673C69.153 43.9592 68.8796 43.832 68.6253 43.6858C68.3774 43.5396 68.1581 43.3807 67.9673 43.209L68.5109 42.3126C68.5808 42.2045 68.6635 42.1219 68.7588 42.0647C68.8542 42.0075 68.975 41.9789 69.1212 41.9789C69.2674 41.9789 69.4041 42.0202 69.5313 42.1028C69.6648 42.1855 69.8173 42.2745 69.989 42.3698C70.1606 42.4652 70.3609 42.5542 70.5898 42.6369C70.825 42.7195 71.1206 42.7608 71.4766 42.7608C71.7563 42.7608 71.9948 42.729 72.1918 42.6655C72.3953 42.5955 72.5606 42.5065 72.6877 42.3984C72.8212 42.2904 72.9166 42.1664 72.9738 42.0265C73.0374 41.8803 73.0692 41.7309 73.0692 41.5783C73.0692 41.3495 72.9992 41.1619 72.8594 41.0157C72.7259 40.8695 72.5447 40.7423 72.3158 40.6343C72.0933 40.5262 71.8358 40.4308 71.5434 40.3482C71.2573 40.2592 70.9617 40.1638 70.6565 40.0621C70.3577 39.9604 70.0621 39.8428 69.7697 39.7093C69.4836 39.5694 69.2261 39.3946 68.9972 39.1848C68.7747 38.975 68.5935 38.7175 68.4537 38.4123C68.3202 38.1072 68.2534 37.7385 68.2534 37.3062C68.2534 36.9056 68.3329 36.5242 68.4918 36.1618C68.6508 35.7994 68.8828 35.4848 69.188 35.2177C69.4995 34.9444 69.8841 34.7282 70.3418 34.5693C70.8059 34.404 71.3399 34.3213 71.9439 34.3213C72.6178 34.3213 73.2313 34.4326 73.7844 34.6551C74.3375 34.8776 74.7984 35.1701 75.1671 35.5324L74.6331 36.3812Z" fill="#0D1C2E"/>
<path d="M80.3062 44.4106C79.4543 44.4106 78.7995 44.1722 78.3417 43.6954C77.8904 43.2122 77.6647 42.5478 77.6647 41.7023V36.2381H76.6634C76.5362 36.2381 76.4282 36.1968 76.3392 36.1141C76.2502 36.0315 76.2056 35.9075 76.2056 35.7422V34.8077L77.7791 34.5502L78.275 31.8801C78.3068 31.7529 78.3672 31.6544 78.4562 31.5845C78.5452 31.5145 78.6596 31.4796 78.7995 31.4796H80.0201V34.5598H82.633V36.2381H80.0201V41.5402C80.0201 41.8454 80.0932 42.0838 80.2394 42.2554C80.392 42.4271 80.5986 42.5129 80.8593 42.5129C81.0055 42.5129 81.1263 42.497 81.2217 42.4652C81.3234 42.4271 81.4092 42.3889 81.4791 42.3508C81.5554 42.3126 81.6222 42.2777 81.6794 42.2459C81.7366 42.2077 81.7938 42.1886 81.851 42.1886C81.921 42.1886 81.9782 42.2077 82.0227 42.2459C82.0672 42.2777 82.1149 42.3285 82.1657 42.3984L82.8714 43.5428C82.5281 43.8289 82.1339 44.045 81.6889 44.1912C81.2439 44.3375 80.783 44.4106 80.3062 44.4106Z" fill="#0D1C2E"/>
<path d="M90.3699 38.2407C90.3699 37.9355 90.3254 37.6495 90.2364 37.3824C90.1538 37.1091 90.0266 36.8707 89.855 36.6672C89.6833 36.4638 89.464 36.3049 89.197 36.1904C88.9363 36.0696 88.6312 36.0092 88.2815 36.0092C87.6013 36.0092 87.0641 36.2031 86.6699 36.5909C86.2821 36.9787 86.0342 37.5287 85.9261 38.2407H90.3699ZM85.8784 39.6616C85.9166 40.1638 86.0056 40.5993 86.1454 40.968C86.2853 41.3304 86.4696 41.6324 86.6985 41.874C86.9274 42.1092 87.1976 42.2872 87.5091 42.408C87.827 42.5224 88.1766 42.5796 88.5581 42.5796C88.9395 42.5796 89.2669 42.5351 89.5403 42.4461C89.82 42.3571 90.0616 42.2586 90.265 42.1505C90.4748 42.0424 90.656 41.9439 90.8086 41.8549C90.9675 41.7659 91.1201 41.7214 91.2663 41.7214C91.4634 41.7214 91.6096 41.7945 91.705 41.9407L92.382 42.799C92.1214 43.1041 91.829 43.3616 91.5047 43.5714C91.1805 43.7748 90.8404 43.9401 90.4844 44.0673C90.1347 44.1881 89.7755 44.2739 89.4068 44.3247C89.0444 44.3756 88.6916 44.401 88.3483 44.401C87.668 44.401 87.0355 44.2898 86.4506 44.0673C85.8657 43.8384 85.3571 43.5046 84.9248 43.066C84.4925 42.621 84.1524 42.0742 83.9044 41.4258C83.6565 40.7709 83.5325 40.0144 83.5325 39.1562C83.5325 38.4886 83.6406 37.8624 83.8567 37.2775C84.0729 36.6863 84.3812 36.1745 84.7818 35.7422C85.1886 35.3036 85.6813 34.9571 86.2599 34.7028C86.8447 34.4485 87.5027 34.3213 88.2338 34.3213C88.8505 34.3213 89.4195 34.4199 89.9408 34.617C90.4621 34.814 90.9103 35.1033 91.2854 35.4848C91.6605 35.8598 91.9529 36.3239 92.1627 36.877C92.3789 37.4238 92.4869 38.05 92.4869 38.7556C92.4869 39.1117 92.4488 39.3532 92.3725 39.4804C92.2962 39.6012 92.15 39.6616 91.9338 39.6616H85.8784Z" fill="#0D1C2E"/>
<path d="M94.2546 44.258V34.4739H95.6945C95.9997 34.4739 96.1999 34.617 96.2953 34.903L96.4479 35.6278C96.6195 35.4371 96.7975 35.2622 96.9819 35.1033C97.1726 34.9444 97.3729 34.8077 97.5827 34.6933C97.7988 34.5788 98.0277 34.4898 98.2693 34.4262C98.5172 34.3563 98.7874 34.3213 99.0798 34.3213C99.6965 34.3213 100.202 34.4898 100.596 34.8268C100.997 35.1573 101.295 35.5992 101.492 36.1523C101.645 35.8281 101.836 35.5515 102.065 35.3226C102.294 35.0874 102.545 34.8967 102.818 34.7505C103.091 34.6043 103.381 34.4962 103.686 34.4262C103.997 34.3563 104.309 34.3213 104.62 34.3213C105.161 34.3213 105.641 34.404 106.06 34.5693C106.48 34.7346 106.833 34.9762 107.119 35.294C107.405 35.6119 107.621 35.9997 107.767 36.4574C107.92 36.9152 107.996 37.4397 107.996 38.0309V44.258H105.641V38.0309C105.641 37.4079 105.504 36.9406 105.231 36.6291C104.957 36.3112 104.557 36.1523 104.029 36.1523C103.788 36.1523 103.562 36.1936 103.352 36.2763C103.149 36.3589 102.967 36.4797 102.808 36.6386C102.656 36.7912 102.535 36.9851 102.446 37.2203C102.357 37.4556 102.313 37.7257 102.313 38.0309V44.258H99.9476V38.0309C99.9476 37.3761 99.8141 36.8993 99.5471 36.6005C99.2865 36.3017 98.9018 36.1523 98.3932 36.1523C98.0499 36.1523 97.7289 36.2381 97.4301 36.4098C97.1376 36.5751 96.8643 36.8039 96.61 37.0964V44.258H94.2546Z" fill="#0D1C2E"/>
<path d="M112.676 34.4739V44.258H110.311V34.4739H112.676ZM113 31.6226C113 31.8261 112.959 32.0168 112.877 32.1948C112.794 32.3728 112.683 32.5286 112.543 32.6621C112.409 32.7956 112.25 32.9036 112.066 32.9863C111.882 33.0626 111.685 33.1007 111.475 33.1007C111.271 33.1007 111.077 33.0626 110.893 32.9863C110.715 32.9036 110.559 32.7956 110.426 32.6621C110.292 32.5286 110.184 32.3728 110.102 32.1948C110.025 32.0168 109.987 31.8261 109.987 31.6226C109.987 31.4128 110.025 31.2157 110.102 31.0314C110.184 30.847 110.292 30.6881 110.426 30.5546C110.559 30.4211 110.715 30.3162 110.893 30.2399C111.077 30.1572 111.271 30.1159 111.475 30.1159C111.685 30.1159 111.882 30.1572 112.066 30.2399C112.25 30.3162 112.409 30.4211 112.543 30.5546C112.683 30.6881 112.794 30.847 112.877 31.0314C112.959 31.2157 113 31.4128 113 31.6226Z" fill="#0D1C2E"/>
<path d="M43.2847 32.7388C48.7785 21.419 44.0586 7.79074 32.7388 2.29359C21.419 -3.20355 7.79074 1.51968 2.29359 12.8395C-3.20355 24.1593 1.51968 37.7876 12.8395 43.2847C19.6985 46.6162 27.7698 46.294 34.3431 42.4244L32.1542 38.1695C23.6677 43.3179 12.6136 40.6075 7.46855 32.121C2.32349 23.6345 5.03054 12.5804 13.5171 7.43534C22.0036 2.29027 33.0577 4.99733 38.2028 13.4839C41.8232 19.4527 41.6571 26.9759 37.7842 32.7787L42.4344 41.873L42.637 42.2683L44.0055 44.9488L43.3046 32.7388H43.2847Z" fill="#0D1C2E"/>
<path d="M28.1311 30.3543L27.955 30.0454C23.8496 32.882 18.2196 31.8523 15.383 27.7469C12.5464 23.6415 13.5761 18.0115 17.6815 15.1749C21.7869 12.3383 27.4169 13.368 30.2535 17.4734C31.0009 18.5529 31.5024 19.7852 31.725 21.0773L35.2624 27.9495C38.202 21.0706 35.01 13.1056 28.1277 10.166C21.2455 7.22645 13.2871 10.4218 10.3442 17.3007C7.40466 24.1796 10.5967 32.1446 17.4789 35.0842C21.5777 36.838 26.2776 36.4593 30.0476 34.0745L28.1311 30.3543Z" fill="#FFE212"/>
</svg>
