<svg width="24" height="25" viewBox="0 0 24 25" fill="none" xmlns="http://www.w3.org/2000/svg">
<path fill-rule="evenodd" clip-rule="evenodd" d="M19 18.0703H5C4.449 18.0703 4 17.6223 4 17.0703V7.32031L11.4 12.8703C11.578 13.0043 11.789 13.0703 12 13.0703C12.211 13.0703 12.422 13.0043 12.6 12.8703L20 7.32031V17.0703C20 17.6223 19.551 18.0703 19 18.0703ZM18.333 6.07031L12 10.8203L5.667 6.07031H18.333ZM19 4.07031H5C3.346 4.07031 2 5.41631 2 7.07031V17.0703C2 18.7243 3.346 20.0703 5 20.0703H19C20.654 20.0703 22 18.7243 22 17.0703V7.07031C22 5.41631 20.654 4.07031 19 4.07031Z" fill="#838F9C"/>
<mask id="mask0_2774_35340" style="mask-type:alpha" maskUnits="userSpaceOnUse" x="2" y="4" width="20" height="17">
<path fill-rule="evenodd" clip-rule="evenodd" d="M19 18.0703H5C4.449 18.0703 4 17.6223 4 17.0703V7.32031L11.4 12.8703C11.578 13.0043 11.789 13.0703 12 13.0703C12.211 13.0703 12.422 13.0043 12.6 12.8703L20 7.32031V17.0703C20 17.6223 19.551 18.0703 19 18.0703ZM18.333 6.07031L12 10.8203L5.667 6.07031H18.333ZM19 4.07031H5C3.346 4.07031 2 5.41631 2 7.07031V17.0703C2 18.7243 3.346 20.0703 5 20.0703H19C20.654 20.0703 22 18.7243 22 17.0703V7.07031C22 5.41631 20.654 4.07031 19 4.07031Z" fill="white"/>
</mask>
<g mask="url(#mask0_2774_35340)">
<rect y="0.0703125" width="24" height="24" rx="10" fill="#838F9C"/>
</g>
</svg>
