<svg width="30" height="31" viewBox="0 0 30 31" fill="none" xmlns="http://www.w3.org/2000/svg">
<path d="M15 9.25C15.4945 9.25 15.9778 9.10338 16.3889 8.82868C16.8 8.55397 17.1205 8.16353 17.3097 7.70671C17.4989 7.24989 17.5484 6.74723 17.452 6.26228C17.3555 5.77732 17.1174 5.33187 16.7678 4.98223C16.4181 4.6326 15.9727 4.3945 15.4877 4.29804C15.0028 4.20157 14.5001 4.25108 14.0433 4.4403C13.5865 4.62952 13.196 4.94995 12.9213 5.36108C12.6466 5.7722 12.5 6.25555 12.5 6.75C12.5 7.41304 12.7634 8.04893 13.2322 8.51777C13.7011 8.98661 14.337 9.25 15 9.25ZM15 21.75C14.5055 21.75 14.0222 21.8966 13.6111 22.1713C13.2 22.446 12.8795 22.8365 12.6903 23.2933C12.5011 23.7501 12.4516 24.2528 12.548 24.7377C12.6445 25.2227 12.8826 25.6681 13.2322 26.0178C13.5819 26.3674 14.0273 26.6055 14.5123 26.702C14.9972 26.7984 15.4999 26.7489 15.9567 26.5597C16.4135 26.3705 16.804 26.05 17.0787 25.6389C17.3534 25.2278 17.5 24.7445 17.5 24.25C17.5 23.587 17.2366 22.9511 16.7678 22.4822C16.2989 22.0134 15.663 21.75 15 21.75ZM15 13C14.5055 13 14.0222 13.1466 13.6111 13.4213C13.2 13.696 12.8795 14.0865 12.6903 14.5433C12.5011 15.0001 12.4516 15.5028 12.548 15.9877C12.6445 16.4727 12.8826 16.9181 13.2322 17.2678C13.5819 17.6174 14.0273 17.8555 14.5123 17.952C14.9972 18.0484 15.4999 17.9989 15.9567 17.8097C16.4135 17.6205 16.804 17.3 17.0787 16.8889C17.3534 16.4778 17.5 15.9945 17.5 15.5C17.5 14.837 17.2366 14.2011 16.7678 13.7322C16.2989 13.2634 15.663 13 15 13Z" fill="#0D1C2E"/>
</svg>
