<svg width="24" height="24" viewBox="0 0 24 24" fill="none" xmlns="http://www.w3.org/2000/svg">
<mask id="path-1-inside-1_1747_31795" fill="white">
<path d="M21.0001 4.40994L21.7101 3.70994C21.8984 3.52164 22.0042 3.26624 22.0042 2.99994C22.0042 2.73364 21.8984 2.47824 21.7101 2.28994C21.5218 2.10164 21.2664 1.99585 21.0001 1.99585C20.7338 1.99585 20.4784 2.10164 20.2901 2.28994L18.8901 3.69994L16.0601 6.52994L9.7501 12.8299C8.71614 12.1478 7.46577 11.8737 6.24126 12.0608C5.01676 12.248 3.90532 12.883 3.12228 13.8428C2.33925 14.8026 1.94038 16.0189 2.00297 17.2561C2.06556 18.4932 2.58515 19.6631 3.46105 20.539C4.33696 21.4149 5.50682 21.9345 6.74395 21.9971C7.98109 22.0597 9.19741 21.6608 10.1572 20.8778C11.1171 20.0947 11.7521 18.9833 11.9392 17.7588C12.1263 16.5343 11.8523 15.2839 11.1701 14.2499L16.7601 8.64994L18.8801 10.7799C18.9733 10.8725 19.0839 10.9458 19.2055 10.9957C19.327 11.0455 19.4572 11.071 19.5886 11.0705C19.72 11.07 19.85 11.0437 19.9713 10.993C20.0925 10.9423 20.2025 10.8682 20.2951 10.7749C20.3877 10.6817 20.461 10.5711 20.5108 10.4496C20.5607 10.328 20.5861 10.1978 20.5857 10.0664C20.5852 9.93501 20.5588 9.80499 20.5081 9.68378C20.4574 9.56256 20.3833 9.45252 20.2901 9.35994L18.1701 7.23994L19.5901 5.82994L20.2901 6.52994C20.3827 6.62318 20.4927 6.69727 20.6139 6.74798C20.7352 6.79869 20.8652 6.82503 20.9966 6.8255C21.128 6.82596 21.2582 6.80054 21.3797 6.75069C21.5013 6.70083 21.6119 6.62752 21.7051 6.53494C21.7983 6.44236 21.8724 6.33232 21.9231 6.2111C21.9738 6.08989 22.0002 5.95987 22.0007 5.82848C22.0011 5.69708 21.9757 5.56688 21.9258 5.44531C21.876 5.32374 21.8027 5.21318 21.7101 5.11994L21.0001 4.40994ZM7.0001 19.9999C6.40675 19.9999 5.82673 19.824 5.33339 19.4944C4.84004 19.1647 4.45552 18.6962 4.22846 18.148C4.0014 17.5998 3.94199 16.9966 4.05774 16.4147C4.1735 15.8327 4.45922 15.2982 4.87878 14.8786C5.29833 14.4591 5.83288 14.1733 6.41483 14.0576C6.99677 13.9418 7.59997 14.0012 8.14815 14.2283C8.69632 14.4554 9.16486 14.8399 9.4945 15.3332C9.82415 15.8266 10.0001 16.4066 10.0001 16.9999C10.0001 17.7956 9.68403 18.5587 9.12142 19.1213C8.55881 19.6839 7.79575 19.9999 7.0001 19.9999Z"/>
</mask>
<path d="M21.0001 4.40994L21.7101 3.70994C21.8984 3.52164 22.0042 3.26624 22.0042 2.99994C22.0042 2.73364 21.8984 2.47824 21.7101 2.28994C21.5218 2.10164 21.2664 1.99585 21.0001 1.99585C20.7338 1.99585 20.4784 2.10164 20.2901 2.28994L18.8901 3.69994L16.0601 6.52994L9.7501 12.8299C8.71614 12.1478 7.46577 11.8737 6.24126 12.0608C5.01676 12.248 3.90532 12.883 3.12228 13.8428C2.33925 14.8026 1.94038 16.0189 2.00297 17.2561C2.06556 18.4932 2.58515 19.6631 3.46105 20.539C4.33696 21.4149 5.50682 21.9345 6.74395 21.9971C7.98109 22.0597 9.19741 21.6608 10.1572 20.8778C11.1171 20.0947 11.7521 18.9833 11.9392 17.7588C12.1263 16.5343 11.8523 15.2839 11.1701 14.2499L16.7601 8.64994L18.8801 10.7799C18.9733 10.8725 19.0839 10.9458 19.2055 10.9957C19.327 11.0455 19.4572 11.071 19.5886 11.0705C19.72 11.07 19.85 11.0437 19.9713 10.993C20.0925 10.9423 20.2025 10.8682 20.2951 10.7749C20.3877 10.6817 20.461 10.5711 20.5108 10.4496C20.5607 10.328 20.5861 10.1978 20.5857 10.0664C20.5852 9.93501 20.5588 9.80499 20.5081 9.68378C20.4574 9.56256 20.3833 9.45252 20.2901 9.35994L18.1701 7.23994L19.5901 5.82994L20.2901 6.52994C20.3827 6.62318 20.4927 6.69727 20.6139 6.74798C20.7352 6.79869 20.8652 6.82503 20.9966 6.8255C21.128 6.82596 21.2582 6.80054 21.3797 6.75069C21.5013 6.70083 21.6119 6.62752 21.7051 6.53494C21.7983 6.44236 21.8724 6.33232 21.9231 6.2111C21.9738 6.08989 22.0002 5.95987 22.0007 5.82848C22.0011 5.69708 21.9757 5.56688 21.9258 5.44531C21.876 5.32374 21.8027 5.21318 21.7101 5.11994L21.0001 4.40994ZM7.0001 19.9999C6.40675 19.9999 5.82673 19.824 5.33339 19.4944C4.84004 19.1647 4.45552 18.6962 4.22846 18.148C4.0014 17.5998 3.94199 16.9966 4.05774 16.4147C4.1735 15.8327 4.45922 15.2982 4.87878 14.8786C5.29833 14.4591 5.83288 14.1733 6.41483 14.0576C6.99677 13.9418 7.59997 14.0012 8.14815 14.2283C8.69632 14.4554 9.16486 14.8399 9.4945 15.3332C9.82415 15.8266 10.0001 16.4066 10.0001 16.9999C10.0001 17.7956 9.68403 18.5587 9.12142 19.1213C8.55881 19.6839 7.79575 19.9999 7.0001 19.9999Z" fill="#425466"/>
<path d="M21.0001 4.40994L19.2449 2.62968L17.452 4.39736L19.2323 6.17771L21.0001 4.40994ZM21.7101 3.70994L23.4653 5.4902L23.4716 5.48398L23.4779 5.47771L21.7101 3.70994ZM22.0042 2.99994L24.5042 2.99994L22.0042 2.99994ZM21.0001 1.99585L21.0001 -0.50415L21.0001 1.99585ZM20.2901 2.28994L18.5223 0.522163L18.5161 0.528475L20.2901 2.28994ZM18.8901 3.69994L20.6579 5.46772L20.6641 5.46141L18.8901 3.69994ZM16.0601 6.52994L17.8265 8.29911L17.8279 8.29771L16.0601 6.52994ZM9.7501 12.8299L8.37334 14.9167L10.0743 16.0389L11.5165 14.5991L9.7501 12.8299ZM11.1701 14.2499L9.40075 12.4838L7.96121 13.9259L9.08334 15.6267L11.1701 14.2499ZM16.7601 8.64994L18.532 6.88634L16.7627 5.10865L14.9908 6.88375L16.7601 8.64994ZM18.8801 10.7799L17.1082 12.5435L17.1134 12.5488L17.1186 12.5539L18.8801 10.7799ZM20.2901 9.35994L18.5223 11.1277L18.5286 11.1339L20.2901 9.35994ZM18.1701 7.23994L16.4086 5.46594L14.6283 7.23368L16.4023 9.00771L18.1701 7.23994ZM19.5901 5.82994L21.3579 4.06217L19.5963 2.30064L17.8286 4.05594L19.5901 5.82994ZM20.2901 6.52994L22.0641 4.76842L22.0579 4.76217L20.2901 6.52994ZM21.7101 5.11994L23.4841 3.35842L23.4779 3.35218L21.7101 5.11994ZM7.0001 19.9999L7.0001 22.4999L7.0001 19.9999ZM10.0001 16.9999L12.5001 16.9999L10.0001 16.9999ZM22.7553 6.1902L23.4653 5.4902L19.9549 1.92968L19.2449 2.62968L22.7553 6.1902ZM23.4779 5.47771C24.135 4.82057 24.5042 3.92929 24.5042 2.99994H19.5042C19.5042 2.6032 19.6618 2.22271 19.9423 1.94217L23.4779 5.47771ZM24.5042 2.99994C24.5042 2.07059 24.135 1.17932 23.4779 0.522174L19.9423 4.05771C19.6618 3.77717 19.5042 3.39668 19.5042 2.99994L24.5042 2.99994ZM23.4779 0.522174C22.8207 -0.134969 21.9294 -0.50415 21.0001 -0.50415L21.0001 4.49585C20.6034 4.49585 20.2229 4.33824 19.9423 4.05771L23.4779 0.522174ZM21.0001 -0.50415C20.0708 -0.50415 19.1795 -0.134969 18.5223 0.522174L22.0579 4.05771C21.7773 4.33824 21.3968 4.49585 21.0001 4.49585L21.0001 -0.50415ZM18.5161 0.528475L17.1161 1.93848L20.6641 5.46141L22.0641 4.05141L18.5161 0.528475ZM17.1223 1.93217L14.2923 4.76217L17.8279 8.29771L20.6579 5.46771L17.1223 1.93217ZM14.2937 4.76077L7.98373 11.0608L11.5165 14.5991L17.8265 8.29911L14.2937 4.76077ZM11.1269 10.7432C9.57591 9.71994 7.70036 9.30883 5.8636 9.58952L6.61893 14.5321C7.23118 14.4386 7.85636 14.5756 8.37334 14.9167L11.1269 10.7432ZM5.8636 9.58952C4.02685 9.87021 2.35968 10.8227 1.18513 12.2625L5.05943 15.4231C5.45095 14.9432 6.00667 14.6257 6.61893 14.5321L5.8636 9.58952ZM1.18513 12.2625C0.0105818 13.7022 -0.587716 15.5267 -0.493834 17.3824L4.49978 17.1298C4.46849 16.5112 4.66792 15.903 5.05943 15.4231L1.18513 12.2625ZM-0.493834 17.3824C-0.399951 19.2381 0.379428 20.9929 1.69329 22.3068L5.22882 18.7712C4.79087 18.3333 4.53107 17.7483 4.49978 17.1298L-0.493834 17.3824ZM1.69329 22.3068C3.00714 23.6206 4.76193 24.4 6.61764 24.4939L6.87027 19.5003C6.2517 19.469 5.66677 19.2092 5.22882 18.7712L1.69329 22.3068ZM6.61764 24.4939C8.47334 24.5878 10.2978 23.9895 11.7376 22.8149L8.57692 18.9406C8.097 19.3321 7.48884 19.5316 6.87027 19.5003L6.61764 24.4939ZM11.7376 22.8149C13.1773 21.6404 14.1298 19.9732 14.4105 18.1364L9.4679 17.3811C9.37433 17.9934 9.05683 18.5491 8.57692 18.9406L11.7376 22.8149ZM14.4105 18.1364C14.6912 16.2997 14.2801 14.4241 13.2569 12.8732L9.08334 15.6267C9.42442 16.1437 9.56146 16.7689 9.4679 17.3811L14.4105 18.1364ZM12.9394 16.0161L18.5294 10.4161L14.9908 6.88375L9.40075 12.4838L12.9394 16.0161ZM14.9882 10.4135L17.1082 12.5435L20.652 9.01634L18.532 6.88634L14.9882 10.4135ZM17.1186 12.5539C17.4448 12.8778 17.8316 13.1343 18.2569 13.3088L20.154 8.68262C20.3362 8.75733 20.5019 8.8672 20.6416 9.00594L17.1186 12.5539ZM18.2569 13.3088C18.6823 13.4832 19.1378 13.5721 19.5975 13.5705L19.5798 8.57051C19.7767 8.56982 19.9718 8.60791 20.154 8.68262L18.2569 13.3088ZM19.5975 13.5705C20.0572 13.5689 20.512 13.4767 20.9361 13.2993L19.0064 8.68668C19.1881 8.61068 19.3829 8.57121 19.5798 8.57051L19.5975 13.5705ZM20.9361 13.2993C21.3602 13.1219 21.7452 12.8627 22.0691 12.5364L18.5211 9.01343C18.6598 8.87371 18.8247 8.76267 19.0064 8.68668L20.9361 13.2993ZM22.0691 12.5364C22.393 12.2102 22.6495 11.8234 22.8239 11.3981L18.1978 9.50103C18.2725 9.31885 18.3824 9.15316 18.5211 9.01343L22.0691 12.5364ZM22.8239 11.3981C22.9983 10.9728 23.0873 10.5173 23.0856 10.0576L18.0857 10.0752C18.085 9.87833 18.1231 9.68321 18.1978 9.50103L22.8239 11.3981ZM23.0856 10.0576C23.084 9.59786 22.9919 9.14299 22.8144 8.71891L18.2018 10.6486C18.1258 10.467 18.0864 10.2722 18.0857 10.0752L23.0856 10.0576ZM22.8144 8.71891C22.637 8.29485 22.3778 7.90986 22.0516 7.58594L18.5286 11.1339C18.3888 10.9952 18.2778 10.8303 18.2018 10.6486L22.8144 8.71891ZM22.0579 7.59217L19.9379 5.47217L16.4023 9.00771L18.5223 11.1277L22.0579 7.59217ZM19.9316 9.01394L21.3516 7.60394L17.8286 4.05594L16.4086 5.46594L19.9316 9.01394ZM17.8223 7.59771L18.5223 8.29771L22.0579 4.76217L21.3579 4.06217L17.8223 7.59771ZM18.5161 8.29145C18.84 8.61766 19.225 8.87687 19.6491 9.05429L21.5788 4.44168C21.7604 4.51767 21.9254 4.6287 22.0641 4.76843L18.5161 8.29145ZM19.6491 9.05429C20.0731 9.2317 20.528 9.32386 20.9877 9.32548L21.0054 4.32551C21.2023 4.32621 21.3972 4.36568 21.5788 4.44168L19.6491 9.05429ZM20.9877 9.32548C21.4474 9.32711 21.9029 9.23817 22.3283 9.06375L20.4312 4.43762C20.6134 4.36291 20.8085 4.32482 21.0054 4.32551L20.9877 9.32548ZM22.3283 9.06375C22.7536 8.88934 23.1404 8.63285 23.4666 8.30894L19.9436 4.76094C20.0833 4.62219 20.249 4.51233 20.4312 4.43762L22.3283 9.06375ZM23.4666 8.30894C23.7928 7.98504 24.052 7.60005 24.2294 7.17597L19.6168 5.24624C19.6928 5.06459 19.8039 4.89968 19.9436 4.76094L23.4666 8.30894ZM24.2294 7.17597C24.4069 6.75189 24.499 6.29702 24.5006 5.83731L19.5007 5.81964C19.5014 5.62273 19.5408 5.42788 19.6168 5.24624L24.2294 7.17597ZM24.5006 5.83731C24.5023 5.37761 24.4133 4.92209 24.2389 4.49677L19.6128 6.39385C19.5381 6.21167 19.5 6.01655 19.5007 5.81964L24.5006 5.83731ZM24.2389 4.49677C24.0645 4.07143 23.808 3.68462 23.4841 3.35843L19.9361 6.88145C19.7974 6.74174 19.6875 6.57605 19.6128 6.39385L24.2389 4.49677ZM23.4779 3.35218L22.7679 2.64218L19.2323 6.17771L19.9423 6.88771L23.4779 3.35218ZM7.0001 17.4999C6.9012 17.4999 6.80453 17.4706 6.72231 17.4157L3.94446 21.573C4.84893 22.1774 5.9123 22.4999 7.0001 22.4999V17.4999ZM6.72231 17.4157C6.64009 17.3607 6.576 17.2826 6.53816 17.1913L1.91876 19.1047C2.33504 20.1097 3.03999 20.9687 3.94446 21.573L6.72231 17.4157ZM6.53816 17.1913C6.50031 17.0999 6.49041 16.9994 6.5097 16.9024L1.60578 15.9269C1.39356 16.9938 1.50248 18.0997 1.91876 19.1047L6.53816 17.1913ZM6.5097 16.9024C6.529 16.8054 6.57662 16.7163 6.64654 16.6464L3.11101 13.1109C2.34182 13.88 1.818 14.86 1.60578 15.9269L6.5097 16.9024ZM6.64654 16.6464C6.71647 16.5765 6.80556 16.5288 6.90255 16.5095L5.9271 11.6056C4.8602 11.8178 3.8802 12.3417 3.11101 13.1109L6.64654 16.6464ZM6.90255 16.5095C6.99954 16.4903 7.10008 16.5002 7.19144 16.538L9.10486 11.9186C8.09986 11.5023 6.994 11.3934 5.9271 11.6056L6.90255 16.5095ZM7.19144 16.538C7.2828 16.5758 7.36089 16.6399 7.41583 16.7222L11.5732 13.9443C10.9688 13.0398 10.1098 12.3349 9.10486 11.9186L7.19144 16.538ZM7.41583 16.7222C7.47077 16.8044 7.5001 16.9011 7.5001 16.9999L12.5001 16.9999C12.5001 15.9121 12.1775 14.8488 11.5732 13.9443L7.41583 16.7222ZM7.5001 16.9999C7.5001 17.1326 7.44742 17.2597 7.35365 17.3535L10.8892 20.889C11.9206 19.8576 12.5001 18.4586 12.5001 16.9999L7.5001 16.9999ZM7.35365 17.3535C7.25988 17.4473 7.13271 17.4999 7.0001 17.4999L7.0001 22.4999C8.45879 22.4999 9.85773 21.9205 10.8892 20.889L7.35365 17.3535Z" fill="#425466" mask="url(#path-1-inside-1_1747_31795)"/>
</svg>
