<svg width="24" height="25" viewBox="0 0 24 25" fill="none" xmlns="http://www.w3.org/2000/svg">
<path d="M19.44 13.0702C19.22 13.0702 18.99 13.0002 18.77 12.9502C18.3245 12.852 17.8866 12.7217 17.46 12.5602C16.9961 12.3914 16.4861 12.4002 16.0283 12.5848C15.5704 12.7694 15.1971 13.1168 14.98 13.5602L14.76 14.0102C13.786 13.4684 12.891 12.7954 12.1 12.0102C11.3147 11.2192 10.6418 10.3242 10.1 9.35018L10.52 9.07018C10.9633 8.8531 11.3108 8.47971 11.4954 8.02187C11.68 7.56403 11.6888 7.05409 11.52 6.59018C11.3612 6.1626 11.2309 5.72498 11.13 5.28018C11.08 5.06018 11.04 4.83018 11.01 4.60018C10.8885 3.8958 10.5196 3.25792 9.9696 2.80142C9.4196 2.34492 8.72467 2.09979 8.00998 2.11018H5.00998C4.57901 2.10613 4.15223 2.19499 3.75869 2.37071C3.36515 2.54643 3.01409 2.80488 2.72941 3.12846C2.44473 3.45205 2.23311 3.83317 2.10897 4.24589C1.98482 4.65862 1.95106 5.09324 2.00998 5.52018C2.54272 9.70956 4.45601 13.6021 7.44763 16.5828C10.4393 19.5636 14.3387 21.4627 18.53 21.9802H18.91C19.6474 21.9813 20.3594 21.7107 20.91 21.2202C21.2263 20.9372 21.4791 20.5904 21.6514 20.2025C21.8238 19.8146 21.9119 19.3946 21.91 18.9702V15.9702C21.8977 15.2756 21.6448 14.6067 21.1943 14.0778C20.7439 13.549 20.1238 13.1928 19.44 13.0702ZM19.94 19.0702C19.9398 19.2122 19.9094 19.3525 19.8508 19.4818C19.7921 19.6111 19.7066 19.7265 19.6 19.8202C19.4886 19.9172 19.358 19.9896 19.2167 20.0327C19.0754 20.0758 18.9266 20.0885 18.78 20.0702C15.0349 19.59 11.5562 17.8767 8.89269 15.2005C6.22917 12.5243 4.53239 9.03752 4.06998 5.29018C4.05406 5.1437 4.06801 4.99551 4.11098 4.85457C4.15395 4.71363 4.22505 4.58287 4.31998 4.47018C4.41369 4.36351 4.52904 4.27802 4.65836 4.2194C4.78767 4.16077 4.92799 4.13036 5.06998 4.13018H8.06998C8.30253 4.12501 8.5296 4.20106 8.71212 4.34525C8.89464 4.48944 9.02119 4.69275 9.06998 4.92018C9.10998 5.19351 9.15998 5.46351 9.21998 5.73018C9.3355 6.25732 9.48924 6.77536 9.67998 7.28018L8.27998 7.93018C8.16028 7.9851 8.0526 8.06313 7.96314 8.15978C7.87367 8.25643 7.80418 8.36979 7.75865 8.49338C7.71312 8.61696 7.69245 8.74831 7.69783 8.8799C7.7032 9.01149 7.73452 9.14073 7.78998 9.26018C9.22918 12.3429 11.7072 14.821 14.79 16.2602C15.0334 16.3602 15.3065 16.3602 15.55 16.2602C15.6747 16.2156 15.7893 16.1466 15.8871 16.0574C15.985 15.9681 16.0641 15.8603 16.12 15.7402L16.74 14.3402C17.2569 14.5251 17.7846 14.6787 18.32 14.8002C18.5866 14.8602 18.8566 14.9102 19.13 14.9502C19.3574 14.999 19.5607 15.1255 19.7049 15.308C19.8491 15.4906 19.9252 15.7176 19.92 15.9502L19.94 19.0702Z" fill="#838F9C"/>
</svg>
