<svg width="14" height="14" viewBox="0 0 14 14" fill="none" xmlns="http://www.w3.org/2000/svg">
<path fill-rule="evenodd" clip-rule="evenodd" d="M6.66667 0.333252C3 0.333252 0 3.33325 0 6.99992C0 10.6666 3 13.6666 6.66667 13.6666C10.3333 13.6666 13.3333 10.6666 13.3333 6.99992C13.3333 3.33325 10.3333 0.333252 6.66667 0.333252ZM7.05948 11.0141L9.83729 8.40987C10.0545 8.20622 10.0545 7.87705 9.83729 7.6734C9.62006 7.46975 9.26895 7.46975 9.05173 7.6734L7.22226 9.38852V3.35409C7.22226 3.06607 6.97393 2.83325 6.6667 2.83325C6.35948 2.83325 6.11114 3.06607 6.11114 3.35409V9.38852L4.28168 7.6734C4.06445 7.46975 3.71334 7.46975 3.49611 7.6734C3.38778 7.77496 3.33333 7.9083 3.33333 8.04163C3.33333 8.17497 3.38778 8.3083 3.49611 8.40987L6.27392 11.0141C6.49114 11.2177 6.84226 11.2177 7.05948 11.0141Z" fill="#838F9C"/>
</svg>
