<svg width="24" height="24" viewBox="0 0 24 24" fill="none" xmlns="http://www.w3.org/2000/svg">
<path fill-rule="evenodd" clip-rule="evenodd" d="M4.89 1.99998H18.11C19.6709 1.97202 20.9618 3.20925 21 4.76998V10.77C20.5457 10.3205 20.0307 9.93674 19.47 9.62998C16.8538 8.23656 13.6529 8.57605 11.3872 10.4872C9.12149 12.3984 8.24741 15.4964 9.18 18.31C9.37347 18.9087 9.64946 19.4775 10 20H4.89C3.32524 20.0279 2.03281 18.7846 2 17.22V4.77998C2.03281 3.21532 3.32524 1.97208 4.89 1.99998ZM7 7.99998H16C16.5523 7.99998 17 7.55226 17 6.99998C17 6.44769 16.5523 5.99998 16 5.99998H7C6.44772 5.99998 6 6.44769 6 6.99998C6 7.55226 6.44772 7.99998 7 7.99998Z" fill="#838F9C"/>
<path fill-rule="evenodd" clip-rule="evenodd" d="M18.9999 10.51C19.781 10.935 20.4628 11.5213 20.9999 12.23C21.8221 13.3138 22.2617 14.6397 22.2499 16C22.2589 18.6406 20.6074 21.002 18.1239 21.8994C15.6404 22.7968 12.8609 22.0365 11.1799 20C10.6907 19.4085 10.3175 18.7299 10.0799 18C9.43569 16.0927 9.74965 13.9918 10.9233 12.3562C12.097 10.7206 13.9867 9.75044 15.9999 9.75C17.0474 9.75121 18.0782 10.0124 18.9999 10.51ZM18.1957 17.16C18.1957 16.8934 18.0892 16.6378 17.8999 16.45L17.4199 16L17.8699 15.55C18.1236 15.2963 18.2226 14.9266 18.1298 14.5801C18.0369 14.2336 17.7663 13.963 17.4198 13.8701C17.0733 13.7773 16.7036 13.8763 16.4499 14.13L15.9999 14.58L15.5499 14.13C15.1578 13.7379 14.522 13.7379 14.1299 14.13C13.7378 14.5221 13.7378 15.1579 14.1299 15.55L14.5799 16L14.1299 16.45C13.9406 16.6378 13.8341 16.8934 13.8341 17.16C13.8341 17.4266 13.9406 17.6822 14.1299 17.87C14.3186 18.0572 14.5741 18.1615 14.8399 18.16C15.1057 18.1615 15.3612 18.0572 15.5499 17.87L15.9999 17.42L16.4799 17.87C16.6686 18.0572 16.9241 18.1615 17.1899 18.16C17.4557 18.1615 17.7112 18.0572 17.8999 17.87C18.0892 17.6822 18.1957 17.4266 18.1957 17.16Z" fill="#838F9C"/>
</svg>
