<svg width="84" height="81" viewBox="0 0 84 81" fill="none" xmlns="http://www.w3.org/2000/svg">
<path d="M78.4482 30.6787C78.6891 28.7254 78.3842 26.7456 77.5651 24.9441C76.746 23.1425 75.4425 21.5849 73.7895 20.4323C72.1364 19.2797 70.194 18.5741 68.1632 18.3885C66.1324 18.2029 64.087 18.5441 62.2389 19.3767C60.1332 17.4058 57.416 16.1544 54.5029 15.8138C51.5898 15.4733 48.6412 16.0623 46.1082 17.4909C45.8149 16.7903 45.4728 16.1095 45.0845 15.4533C47.2501 12.3525 47.7882 11.7576 48.8251 11.6564C50.4264 11.6564 50.9907 14.2636 54.1932 14.2636C57.6189 14.2636 58.577 8.79607 59.7582 7.74561C62.5014 7.98607 62.5276 15.5672 66.3207 15.5672C69.5889 15.5672 69.5757 12.96 70.3895 12.96C73.2114 12.96 72.1614 19.9589 75.9676 19.4779C78.2382 19.2248 77.6345 18.2123 79.9051 18.2123C82.1757 18.2123 82.3201 25.1479 78.4482 30.6787Z" fill="#C5CEE0"/>
<path d="M75.6264 31.4002H72.8307C72.3943 30.614 71.7705 29.939 71.0106 29.4307C70.2508 28.9224 69.3766 28.5954 68.4601 28.4766C67.8819 27.6759 67.0813 27.0486 66.1501 26.6667C65.8447 24.782 65.1144 22.9848 64.0107 21.4017C65.512 20.8641 67.1368 20.7314 68.7104 21.0179C70.284 21.3043 71.7468 21.9991 72.9415 23.0274C74.1361 24.0558 75.0174 25.3787 75.4905 26.854C75.9636 28.3293 76.0105 29.901 75.6264 31.4002Z" fill="#C5CEE0"/>
<path d="M63.315 25.958C62.9047 25.9214 62.4917 25.9214 62.0813 25.958C61.0025 25.2195 59.7662 24.7226 58.4628 24.5037C57.1594 24.2847 55.8218 24.3492 54.5475 24.6924C53.1884 24.0373 51.6898 23.6964 50.1703 23.6964C48.6509 23.6964 47.1523 24.0373 45.7932 24.6924C45.228 24.0392 44.5372 23.4977 43.7588 23.0977C44.8979 21.4135 46.5155 20.0809 48.4184 19.2588C50.3214 18.4368 52.4295 18.16 54.4911 18.4615C56.5527 18.7631 58.4809 19.6302 60.0455 20.9594C61.6101 22.2886 62.7451 24.0238 63.315 25.958Z" fill="#C5CEE0"/>
<path d="M24.5832 19.5539C24.3602 19.7031 24.1455 19.8636 23.9401 20.0348C22.7733 19.6306 21.5133 19.5455 20.2995 19.789C19.0857 20.0325 17.9654 20.595 17.0626 21.4143C15.0762 19.5131 13.8295 17.0103 13.532 14.3268C20.7507 14.3268 21.0657 14.2129 23.1657 14.6939C23.3847 16.3729 23.8625 18.0109 24.5832 19.5539Z" fill="#C5CEE0"/>
<path d="M43.8899 18.9843C42.8057 19.9211 41.8841 21.0192 41.1599 22.237H40.5956C39.7354 21.1322 38.5315 20.3214 37.1597 19.9229C35.7878 19.5245 34.3198 19.5592 32.9699 20.0222C32.1787 19.3096 31.217 18.7969 30.1704 18.5297C29.1239 18.2625 28.025 18.2491 26.9718 18.4908C25.4624 15.0989 25.6593 12.8714 25.6593 9.08716H29.3868C32.568 9.0914 35.6699 10.045 38.2667 11.8171C40.8634 13.5891 42.8277 16.0928 43.8899 18.9843Z" fill="#C5CEE0"/>
<path d="M40.2806 24.8189C39.5215 25.0698 38.8116 25.442 38.1806 25.92C37.6853 25.9025 37.1893 25.9237 36.6975 25.9833C35.339 25.1932 33.7692 24.8067 32.1842 24.872C30.5992 24.9372 29.0693 25.4514 27.7856 26.3503C26.6684 25.5711 25.3631 25.0803 23.9938 24.9247C22.6245 24.769 21.2367 24.9536 19.9622 25.4609C18.6877 25.9682 17.5689 26.7814 16.7122 27.8231C15.8555 28.8649 15.2893 30.1006 15.0675 31.4128H8.30811C8.54121 30.784 8.93538 30.2223 9.45397 29.7797C9.97256 29.3372 10.5988 29.0282 11.2744 28.8816C11.5289 28.8241 11.7598 28.6946 11.9376 28.5097C12.1153 28.3248 12.2317 28.0929 12.2719 27.8438C12.4933 26.9144 13.0572 26.0941 13.8587 25.5354C14.6601 24.9768 15.6447 24.7177 16.6294 24.8063C16.9147 24.8696 17.2136 24.8436 17.4826 24.7321C17.7517 24.6206 17.9769 24.4294 18.1256 24.1861C18.6505 23.286 19.5223 22.6218 20.5518 22.3375C21.5813 22.0532 22.6855 22.1717 23.625 22.6674C23.8953 22.8103 24.2091 22.8569 24.5115 22.7991C24.8139 22.7412 25.0855 22.5826 25.2787 22.351C25.6556 21.8855 26.1375 21.5089 26.6878 21.2499C27.2382 20.9909 27.8426 20.8563 28.455 20.8563C29.0674 20.8563 29.6717 20.9909 30.2221 21.2499C30.7725 21.5089 31.2544 21.8855 31.6312 22.351C31.8245 22.5826 32.0961 22.7412 32.3984 22.7991C32.7008 22.8569 33.0147 22.8103 33.285 22.6674C34.226 22.1727 35.3315 22.0561 36.3612 22.3429C37.3909 22.6296 38.2616 23.2965 38.7843 24.1988C38.9249 24.4495 39.1491 24.6472 39.4207 24.7597C39.6922 24.8723 39.9952 24.8931 40.2806 24.8189Z" fill="#C5CEE0"/>
<path d="M25.9089 28.1855C25.221 29.1456 24.7719 30.2456 24.5964 31.4002H17.7451C17.952 30.596 18.3528 29.8502 18.915 29.2234C19.4772 28.5967 20.1848 28.1068 20.9803 27.7936C21.7759 27.4803 22.6369 27.3525 23.4933 27.4206C24.3497 27.4887 25.1773 27.7508 25.9089 28.1855Z" fill="#C5CEE0"/>
<path d="M37.8 31.4001H27.3C27.6175 30.2925 28.303 29.3159 29.2513 28.6199C30.1995 27.924 31.3584 27.5471 32.55 27.5471C33.7417 27.5471 34.9005 27.924 35.8488 28.6199C36.7971 29.3159 37.4825 30.2925 37.8 31.4001Z" fill="#C5CEE0"/>
<path d="M69.2738 31.4001H40.4907C40.2832 30.301 39.8358 29.257 39.1782 28.3373C39.3295 28.2801 39.4645 28.189 39.572 28.0715C40.622 26.9957 43.4045 26.5401 45.4782 27.1982C46.6857 27.6159 46.922 26.0845 50.0851 26.0845C53.2482 26.0845 53.432 27.6285 54.7051 27.1982C56.7657 26.5401 59.5613 26.9957 60.6113 28.0715C60.7411 28.2068 60.9 28.3132 61.0768 28.3831C61.2536 28.4531 61.4442 28.4849 61.6351 28.4765C62.5951 28.387 63.564 28.4861 64.4832 28.7676C66.872 29.5143 65.9795 30.6913 67.3838 30.8685C68.0397 30.945 68.6782 31.1246 69.2738 31.4001Z" fill="#C5CEE0"/>
<path d="M82.6875 33.9314C82.3377 43.0722 78.327 51.7263 71.4983 58.0751C64.6696 64.424 55.5545 67.9731 46.0688 67.9767H37.9313C28.4455 67.9731 19.3305 64.424 12.5017 58.0751C5.67301 51.7263 1.66231 43.0722 1.3125 33.9314L82.6875 33.9314Z" fill="#C5CEE0"/>
<path d="M55.5843 69.3689V73.1658H28.4155V69.3689C31.5259 70.1287 34.7225 70.5114 37.9312 70.508C46.1212 70.508 49.8749 70.7611 55.5843 69.3689Z" fill="#C5CEE0"/>
</svg>
