<svg width="20" height="20" viewBox="0 0 20 20" fill="none" xmlns="http://www.w3.org/2000/svg">
<path fill-rule="evenodd" clip-rule="evenodd" d="M16 9.33333C16 13.0152 13.0152 16 9.33329 16C5.65139 16 2.66662 13.0152 2.66662 9.33333C2.66662 5.65144 5.65139 2.66667 9.33329 2.66667C13.0152 2.66667 16 5.65144 16 9.33333ZM0 9.33333C0 14.488 4.17868 18.6667 9.33333 18.6667C11.4298 18.6667 13.3649 17.9754 14.923 16.8084L17.724 19.6095C18.2447 20.1302 19.0889 20.1302 19.6096 19.6095C20.1303 19.0888 20.1303 18.2446 19.6096 17.7239L16.8086 14.9228C17.9755 13.3647 18.6667 11.4297 18.6667 9.33333C18.6667 4.17867 14.488 0 9.33333 0C4.17868 0 0 4.17867 0 9.33333Z" fill="#C5CEE0"/>
</svg>
