<svg width="481" height="499" viewBox="0 0 481 499" fill="none" xmlns="http://www.w3.org/2000/svg">
<path d="M331.261 215.346C315.62 199.694 294.995 190.006 272.964 187.955C250.933 185.905 228.878 191.623 210.616 204.123C206.186 207.123 202.038 210.518 198.21 214.26C197.874 214.549 197.534 214.878 197.065 215.342V215.346C194.69 217.698 192.464 220.194 190.393 222.819L190.315 222.921L190.3 222.94L190.296 222.944H190.3C187.679 226.147 185.292 229.538 183.163 233.085C172.03 251.222 167.343 272.589 169.866 293.722C172.386 314.855 181.968 334.519 197.054 349.527C197.699 350.179 198.3 350.769 198.714 351.113C201.109 353.414 203.62 355.586 206.245 357.621L206.253 357.625L206.281 357.648C209.913 360.437 213.745 362.961 217.746 365.195C221.781 367.476 225.988 369.449 230.324 371.097C247.433 377.617 266.066 379.05 283.976 375.222C301.882 371.398 318.304 362.48 331.261 349.538H331.264C349.022 331.722 358.994 307.593 358.994 282.44C358.994 257.288 349.018 233.159 331.26 215.346L331.261 215.346ZM214.731 341.576C213.282 343.022 211.743 344.397 210.161 345.713C210.032 345.819 209.895 345.916 209.766 346.022L209.711 345.979C208.547 344.975 207.403 343.936 206.258 342.838C205.825 342.459 205.422 342.057 204.981 341.612C191.672 328.374 183.219 311.03 180.993 292.389C178.77 273.744 182.907 254.897 192.731 238.901C193.852 237.049 194.993 235.35 196.165 233.713C196.251 233.592 196.348 233.479 196.434 233.358C196.86 233.561 197.297 233.74 197.715 233.955C198.395 234.303 199.063 234.666 199.727 235.033C200.899 235.682 202.047 236.365 203.172 237.084C203.809 237.49 204.446 237.889 205.067 238.315C206.243 239.119 207.387 239.983 208.512 240.865C209.024 241.268 209.547 241.643 210.047 242.061C211.645 243.389 213.203 244.783 214.692 246.268V246.272C227.317 258.917 234.411 276.049 234.419 293.917C234.423 311.784 227.345 328.921 214.731 341.577L214.731 341.576ZM231.122 359.275C230.825 359.146 230.528 359.029 230.235 358.9C227.845 357.838 225.485 356.705 223.223 355.424C221.817 354.639 220.427 353.772 219.04 352.885C220.282 351.791 221.485 350.658 222.653 349.494H222.649C237.36 334.74 245.618 314.752 245.614 293.916C245.606 273.08 237.333 253.096 222.61 238.354C220.931 236.674 219.173 235.108 217.372 233.604C216.837 233.155 216.282 232.729 215.735 232.296C214.384 231.225 213.005 230.206 211.595 229.229C211.013 228.827 210.438 228.421 209.849 228.038C207.981 226.823 206.075 225.671 204.106 224.62C204.016 224.573 203.934 224.514 203.845 224.467C204.27 224.026 204.641 223.604 205.095 223.151L205.755 222.526C207.321 220.991 208.966 219.542 210.645 218.143C211.126 217.745 211.618 217.366 212.102 216.979C212.774 216.444 213.473 215.952 214.161 215.44C238.302 229.96 254.415 254.784 257.852 282.741C261.293 310.702 251.676 338.686 231.778 358.628C231.559 358.843 231.344 359.058 231.122 359.273L231.122 359.275ZM323.341 341.615C302.224 362.681 271.493 370.927 242.665 363.263C262.927 341.283 272.579 311.548 269.087 281.857C265.595 252.166 249.306 225.482 224.493 208.806C248.266 195.982 276.77 195.427 301.028 207.318C325.286 219.205 342.305 242.076 346.735 268.724C351.161 295.372 342.45 322.517 323.34 341.611L323.341 341.615Z" fill="black"/>
<path d="M398.711 352.576C395.629 349.537 391.656 347.565 387.371 346.947C383.086 346.33 378.715 347.108 374.902 349.154L371.257 345.506V345.51C385.14 321.733 390.792 294.041 387.331 266.729C383.874 239.417 371.499 214.006 352.128 194.444H352.124C328.952 171.354 297.624 158.307 264.913 158.128C232.202 157.944 200.729 170.64 177.304 193.472C176.941 193.769 176.574 194.124 176.211 194.484C173.355 197.343 170.75 200.292 168.32 203.245H168.316C141.086 200.917 114.218 210.757 94.9291 230.12C80.5381 244.647 71.2961 263.483 68.6051 283.753C65.9141 304.023 69.9254 324.616 80.0311 342.394L78.8827 343.543C75.8554 342.168 72.4804 341.746 69.2069 342.328C65.9335 342.914 62.9139 344.476 60.5467 346.816L4.8047 402.55C1.7266 405.628 0 409.796 0 414.144C0 418.496 1.7305 422.664 4.8047 425.738L31.2427 452.179C34.3208 455.242 38.4888 456.953 42.8287 456.949C47.1685 456.945 51.3326 455.218 54.4067 452.152L110.145 396.41C112.488 394.047 114.059 391.027 114.645 387.75C115.227 384.476 114.805 381.097 113.422 378.07L114.516 376.976C138.137 390.624 166.586 393.132 192.231 383.832C194.758 385.636 197.348 387.382 200.02 388.976V388.972C219.227 400.499 241.188 406.632 263.586 406.73C285.988 406.824 308 400.879 327.305 389.515L330.899 393.109C328.832 396.929 328.051 401.308 328.668 405.605C329.285 409.902 331.27 413.886 334.324 416.968L409.844 492.484C413.633 496.273 418.77 498.402 424.125 498.406C429.481 498.414 434.621 496.293 438.418 492.511L474.234 456.695L474.23 456.699C478.02 452.902 480.148 447.758 480.148 442.398C480.148 437.035 478.02 431.89 474.23 428.097L398.711 352.576ZM102.231 388.49L46.4888 444.232C44.4693 446.256 41.1958 446.268 39.1607 444.256L12.7267 417.818H12.7306C11.7541 416.845 11.2072 415.521 11.2072 414.142C11.2072 412.763 11.7541 411.443 12.7306 410.47L68.4686 354.732C69.4491 353.756 70.7772 353.213 72.16 353.216C73.4842 353.209 74.7577 353.716 75.7147 354.631L102.289 381.205C104.261 383.244 104.234 386.486 102.23 388.49L102.231 388.49ZM116.68 365.24L116.652 365.213C115.492 364.471 114.418 363.604 113.297 362.803L113.301 362.807C110.391 360.725 107.617 358.467 104.992 356.037C104.293 355.385 103.535 354.799 102.859 354.123C100.262 351.486 97.8478 348.674 95.629 345.705C94.2852 343.932 92.9415 342.158 91.7501 340.283C81.7461 324.502 77.3981 305.795 79.4141 287.221C81.4336 268.647 89.6951 251.307 102.852 238.037C118.059 222.756 138.704 214.115 160.266 214.014C159.969 214.463 159.743 214.948 159.45 215.401C158.864 216.315 158.227 217.229 157.68 218.143C156.43 220.147 155.247 222.288 154.086 224.51C154.012 224.651 153.918 224.78 153.844 224.92C153.25 224.979 152.672 225.096 152.082 225.17C151.137 225.288 150.2 225.417 149.266 225.569C148.09 225.76 146.93 225.991 145.77 226.241C144.86 226.436 143.954 226.635 143.051 226.87C141.891 227.167 140.75 227.51 139.61 227.866C138.731 228.139 137.856 228.405 136.993 228.713C135.856 229.116 134.739 229.573 133.625 230.03C132.793 230.374 131.953 230.706 131.133 231.081C130.012 231.592 128.922 232.167 127.828 232.737C127.051 233.143 126.266 233.526 125.504 233.96C124.387 234.596 123.309 235.299 122.223 235.999C121.528 236.444 120.817 236.866 120.137 237.335C118.969 238.147 117.848 239.034 116.723 239.917C116.176 240.346 115.602 240.741 115.067 241.19C113.43 242.557 111.852 243.999 110.329 245.514C95.8676 259.869 88.2466 279.725 89.3876 300.069C90.5243 320.409 100.318 339.292 116.29 351.94C116.958 352.475 117.657 352.948 118.34 353.46C119.778 354.53 121.235 355.557 122.739 356.51C123.567 357.034 124.411 357.526 125.258 358.018C126.707 358.854 128.176 359.632 129.672 360.358C130.551 360.788 131.426 361.217 132.325 361.608C133.946 362.315 135.598 362.932 137.266 363.518C138.055 363.796 138.825 364.112 139.622 364.358L139.618 364.35C142.043 365.112 144.512 365.741 147.004 366.241C147.571 366.354 148.153 366.397 148.723 366.495C150.708 366.835 152.7 367.116 154.711 367.288C155.665 367.37 156.626 367.385 157.586 367.428C158.649 367.475 159.7 367.585 160.766 367.585C161.348 367.585 161.934 367.506 162.516 367.491C163.665 367.464 164.805 367.393 165.958 367.311C167.543 367.198 169.129 367.026 170.711 366.803C171.348 366.714 171.981 366.706 172.618 366.6C173.782 367.87 174.977 369.128 176.215 370.362C177.989 372.139 179.805 373.85 181.661 375.491C159.52 381.296 135.962 377.581 116.681 365.241L116.68 365.24ZM139.868 287.658C139.907 288.549 139.911 289.444 139.969 290.334C140.329 295.947 141.067 301.529 142.18 307.041C142.36 307.928 142.587 308.807 142.786 309.69C143.208 311.553 143.645 313.412 144.149 315.252C144.434 316.291 144.755 317.318 145.067 318.354C145.575 320.033 146.11 321.705 146.692 323.365C147.063 324.428 147.454 325.486 147.856 326.541C148.473 328.162 149.13 329.776 149.821 331.373C150.266 332.404 150.708 333.44 151.18 334.459C151.942 336.107 152.762 337.729 153.598 339.35C154.075 340.275 154.532 341.205 155.032 342.119C156.087 344.041 157.219 345.924 158.38 347.799C158.735 348.373 159.055 348.963 159.423 349.529C160.88 351.795 162.415 354.022 164.028 356.205C162.649 356.279 161.274 356.322 159.899 356.303C159.309 356.295 158.72 356.334 158.13 356.307L158.134 356.303C155.829 356.205 153.528 355.971 151.247 355.607C150.7 355.518 150.165 355.369 149.618 355.264C147.907 354.94 146.208 354.568 144.536 354.1C143.704 353.865 142.888 353.576 142.067 353.303C140.7 352.854 139.341 352.373 138.009 351.826C137.145 351.471 136.298 351.088 135.45 350.697C134.173 350.104 132.919 349.455 131.681 348.768C130.88 348.322 130.075 347.881 129.29 347.396C127.981 346.588 126.716 345.705 125.466 344.795C124.829 344.33 124.173 343.9 123.548 343.408H123.552C108.841 331.978 100.282 314.357 100.4 295.732C100.513 277.103 109.282 259.587 124.134 248.341C124.598 247.982 125.059 247.626 125.532 247.283C127.563 245.794 129.688 244.435 131.891 243.212C132.22 243.033 132.559 242.884 132.891 242.712C134.903 241.658 136.973 240.72 139.095 239.904C139.583 239.716 140.063 239.509 140.555 239.333H140.552C142.907 238.49 145.313 237.794 147.755 237.251C147.93 237.212 148.11 237.189 148.29 237.15C147.29 239.697 146.38 242.263 145.563 244.853C145.376 245.447 145.231 246.044 145.051 246.638C144.399 248.798 143.782 250.962 143.251 253.142C143.008 254.13 142.817 255.126 142.602 256.122C142.208 257.931 141.833 259.74 141.524 261.556C141.337 262.646 141.184 263.736 141.024 264.829C140.774 266.572 140.555 268.31 140.38 270.056C140.266 271.169 140.165 272.279 140.083 273.396C139.954 275.161 139.872 276.931 139.817 278.697C139.786 279.763 139.743 280.826 139.735 281.892C139.727 283.814 139.79 285.736 139.868 287.658L139.868 287.658ZM325.168 377.775C307.379 389.099 286.789 395.248 265.707 395.529C244.625 395.811 223.879 390.217 205.793 379.373C202.574 377.451 199.461 375.354 196.469 373.096C192.074 369.83 187.922 366.241 184.059 362.358C183.926 362.225 183.809 362.085 183.68 361.952L183.602 361.862C182.48 360.741 181.441 359.577 180.387 358.421C179.895 357.881 179.367 357.358 178.887 356.811L178.879 356.815C175.168 352.569 171.777 348.053 168.731 343.303C149.063 312.619 145.446 274.315 159.016 240.483C160.063 237.87 161.211 235.284 162.461 232.725L162.469 232.71C164.075 229.436 165.844 226.245 167.774 223.151C168.2 222.452 168.672 221.757 169.122 221.057C171.001 218.163 172.965 215.315 175.114 212.592L175.239 212.424H175.243C177.997 208.901 180.969 205.553 184.137 202.397L184.797 201.772C213.547 173.51 255.16 162.674 294.047 173.323C332.926 183.971 363.211 214.499 373.547 253.468C383.883 292.433 372.708 333.956 344.215 362.478C338.446 368.26 332.059 373.388 325.172 377.775L325.168 377.775ZM336.949 383.314C337.035 383.252 337.113 383.182 337.199 383.119C339.492 381.463 341.714 379.697 343.898 377.873C344.457 377.404 345.015 376.936 345.566 376.455C347.812 374.51 350.019 372.51 352.132 370.396C354.23 368.299 356.222 366.103 358.16 363.865C358.664 363.283 359.16 362.697 359.652 362.107C361.453 359.951 363.195 357.756 364.839 355.49C364.918 355.381 365.011 355.279 365.089 355.17L366.304 356.385L338.163 384.53L336.949 383.314ZM466.319 448.779L430.503 484.595L430.507 484.592C426.976 488.092 421.284 488.076 417.769 484.564L342.249 409.044C338.776 405.579 338.714 399.97 342.108 396.427L342.128 396.415L378.155 360.392V360.389C381.702 356.99 387.311 357.037 390.8 360.494L466.32 436.014C469.839 439.541 469.839 445.252 466.32 448.78L466.319 448.779Z" fill="black"/>
<path d="M286.341 44.9564C286.583 32.8664 281.723 21.2294 272.958 12.8974C264.243 4.39354 252.478 -0.250564 240.302 0.0104356C232.946 0.0299666 225.7 1.79564 219.154 5.15494C212.576 8.41274 206.873 13.2018 202.525 19.1159C196.45 28.0182 193.396 38.6389 193.814 49.4089V55.0105H225.748V55.0066C223.295 56.9832 221.322 59.491 219.97 62.3347C217.599 68.4285 216.548 74.9557 216.892 81.4867V92.8067H261.806V87.2051V87.209C261.795 85.3574 261.9 83.5059 262.123 81.666C263.451 80.5527 264.935 79.6387 266.529 78.9551C272.853 75.9199 278.123 71.0567 281.654 64.9941C285.185 58.9355 286.818 51.9551 286.341 44.9551L286.341 44.9564ZM261.517 68.9364H261.521C257.946 70.3466 254.841 72.7372 252.564 75.827C251.603 77.6161 251.028 79.5848 250.876 81.6082H228.091V81.4871C227.767 76.6043 228.45 71.7098 230.103 67.1041C231.493 64.4869 233.79 62.4713 236.568 61.44L242.751 58.7173H242.747C245.7 57.7759 248.286 55.9321 250.138 53.4478C251.993 50.9634 253.021 47.9634 253.083 44.8619C253.095 41.3033 251.685 37.8814 249.165 35.3658C246.65 32.8463 243.228 31.44 239.665 31.4517C232.454 31.1978 226.294 36.6197 225.638 43.8067H205.275C205.705 37.3223 207.881 31.0727 211.572 25.7207C214.877 21.2402 219.209 17.6152 224.201 15.1507C229.182 12.5843 234.701 11.2366 240.303 11.2093C249.573 10.9359 258.549 14.4515 265.17 20.9437C271.76 27.1625 275.389 35.8967 275.143 44.9557C275.604 49.8659 274.545 54.8034 272.108 59.0927C269.67 63.3818 265.975 66.8193 261.522 68.9365L261.517 68.9364ZM236.361 49.2884C236.384 42.6556 238.357 42.6556 239.665 42.6556C240.259 42.6361 240.829 42.8666 241.251 43.2845C241.669 43.7025 241.896 44.2728 241.88 44.8626C241.88 45.4056 241.88 46.8548 238.224 48.4681L236.361 49.2884Z" fill="black"/>
<path d="M239.941 93.2064C232.73 93.1049 225.8 95.9917 220.793 101.179C213.968 108.058 211.316 118.042 213.824 127.402C216.332 136.758 223.621 144.078 232.969 146.621C242.316 149.16 252.313 146.543 259.215 139.746C264.453 134.773 267.367 127.836 267.258 120.613C267.223 113.371 264.336 106.433 259.223 101.304C254.113 96.1753 247.184 93.265 239.942 93.2064H239.941ZM251.382 131.737V131.741C248.362 134.784 244.229 136.456 239.941 136.366C235.679 136.585 231.519 134.984 228.5 131.964C225.48 128.945 223.882 124.788 224.097 120.523C223.992 116.226 225.671 112.078 228.742 109.066C231.66 106.015 235.722 104.324 239.941 104.41C244.226 104.347 248.339 106.09 251.281 109.203C254.386 112.179 256.117 116.312 256.058 120.613C256.148 124.816 254.449 128.863 251.382 131.742L251.382 131.737Z" fill="black"/>
</svg>
