<svg width="14" height="14" viewBox="0 0 14 14" fill="none" xmlns="http://www.w3.org/2000/svg">
<path fill-rule="evenodd" clip-rule="evenodd" d="M6.99967 13.6667C3.33301 13.6667 0.333008 10.6667 0.333008 7.00008C0.333008 3.33342 3.33301 0.333416 6.99967 0.333416C10.6663 0.333416 13.6663 3.33342 13.6663 7.00008C13.6663 10.6667 10.6663 13.6667 6.99967 13.6667ZM7.39249 2.98594L10.1703 5.59013C10.3875 5.79378 10.3875 6.12295 10.1703 6.3266C9.95307 6.53025 9.60196 6.53025 9.38473 6.3266L7.55527 4.61148V10.6459C7.55527 10.9339 7.30693 11.1667 6.99971 11.1667C6.69248 11.1667 6.44415 10.9339 6.44415 10.6459V4.61148L4.61468 6.3266C4.39746 6.53025 4.04635 6.53025 3.82912 6.3266C3.72079 6.22504 3.66634 6.0917 3.66634 5.95837C3.66634 5.82503 3.72079 5.6917 3.82912 5.59013L6.60693 2.98594C6.82415 2.7823 7.17527 2.7823 7.39249 2.98594Z" fill="#838F9C"/>
</svg>
