<svg width="12" height="12" viewBox="0 0 12 12" fill="none" xmlns="http://www.w3.org/2000/svg">
<path fill-rule="evenodd" clip-rule="evenodd" d="M11.1704 5.32621C11.4046 5.09355 11.4872 4.75231 11.3862 4.43526C11.2853 4.11822 11.0218 3.89176 10.6986 3.84398L7.87138 3.42518C7.81615 3.41712 7.76789 3.38175 7.74313 3.33026L6.47903 0.718206C6.33364 0.419154 6.04095 0.233643 5.71397 0.233643C5.38699 0.233643 5.0943 0.419154 4.95017 0.718206L3.68544 3.33026C3.66068 3.38175 3.61242 3.41712 3.55719 3.42518L0.729945 3.8446C0.406778 3.89238 0.143291 4.11884 0.0423407 4.43588C-0.0586096 4.75293 0.0239284 5.09417 0.258209 5.32683L2.30388 7.36001C2.34388 7.39972 2.36229 7.45742 2.35277 7.51388L1.8696 10.3853C1.81437 10.7135 1.94452 11.0392 2.20864 11.2353C2.47277 11.4313 2.81689 11.4568 3.10577 11.3017L5.6346 9.94601C5.68413 9.91933 5.74381 9.91933 5.79333 9.94601L8.32217 11.3017C8.44788 11.3681 8.58375 11.4016 8.71962 11.4016C8.89549 11.4016 9.07009 11.3451 9.21993 11.2347C9.48405 11.0386 9.6142 10.7129 9.55897 10.3847L9.0758 7.51326C9.06628 7.4568 9.08469 7.3991 9.12469 7.35939L11.1704 5.32621Z" fill="#C5CEE0"/>
<mask id="mask0_29_24171" style="mask-type:alpha" maskUnits="userSpaceOnUse" x="0" y="0" width="12" height="12">
<path fill-rule="evenodd" clip-rule="evenodd" d="M11.1704 5.32621C11.4046 5.09355 11.4872 4.75231 11.3862 4.43526C11.2853 4.11822 11.0218 3.89176 10.6986 3.84398L7.87138 3.42518C7.81615 3.41712 7.76789 3.38175 7.74313 3.33026L6.47903 0.718206C6.33364 0.419154 6.04095 0.233643 5.71397 0.233643C5.38699 0.233643 5.0943 0.419154 4.95017 0.718206L3.68544 3.33026C3.66068 3.38175 3.61242 3.41712 3.55719 3.42518L0.729945 3.8446C0.406778 3.89238 0.143291 4.11884 0.0423407 4.43588C-0.0586096 4.75293 0.0239284 5.09417 0.258209 5.32683L2.30388 7.36001C2.34388 7.39972 2.36229 7.45742 2.35277 7.51388L1.8696 10.3853C1.81437 10.7135 1.94452 11.0392 2.20864 11.2353C2.47277 11.4313 2.81689 11.4568 3.10577 11.3017L5.6346 9.94601C5.68413 9.91933 5.74381 9.91933 5.79333 9.94601L8.32217 11.3017C8.44788 11.3681 8.58375 11.4016 8.71962 11.4016C8.89549 11.4016 9.07009 11.3451 9.21993 11.2347C9.48405 11.0386 9.6142 10.7129 9.55897 10.3847L9.0758 7.51326C9.06628 7.4568 9.08469 7.3991 9.12469 7.35939L11.1704 5.32621Z" fill="white"/>
</mask>
<g mask="url(#mask0_29_24171)">
</g>
</svg>
