<svg width="24" height="24" viewBox="0 0 24 24" fill="none" xmlns="http://www.w3.org/2000/svg">
<g clip-path="url(#clip0_1751_32160)">
<path d="M23.781 14.375L19.781 9.375C19.6873 9.25793 19.5684 9.16344 19.4332 9.09853C19.298 9.03362 19.15 8.99994 19 9V14C19 14.7956 18.6839 15.5587 18.1213 16.1213C17.5587 16.6839 16.7956 17 16 17H7V20C7 20.2652 7.10536 20.5196 7.29289 20.7071C7.48043 20.8946 7.73478 21 8 21H19C19.15 21.0001 19.298 20.9664 19.4332 20.9015C19.5684 20.8366 19.6873 20.7421 19.781 20.625L23.781 15.625C23.923 15.4476 24.0004 15.2272 24.0004 15C24.0004 14.7728 23.923 14.5524 23.781 14.375Z" fill="white"/>
<path d="M15.9999 15H4.99989C4.84992 15.0001 4.70186 14.9664 4.56667 14.9015C4.43148 14.8366 4.31262 14.7421 4.21889 14.625L0.218887 9.625C0.0768836 9.44764 -0.000488281 9.22721 -0.000488281 9C-0.000488281 8.77279 0.0768836 8.55236 0.218887 8.375L4.21889 3.375C4.31262 3.25793 4.43148 3.16344 4.56667 3.09853C4.70186 3.03362 4.84992 2.99994 4.99989 3H15.9999C16.2651 3 16.5195 3.10536 16.707 3.29289C16.8945 3.48043 16.9999 3.73478 16.9999 4V14C16.9999 14.2652 16.8945 14.5196 16.707 14.7071C16.5195 14.8946 16.2651 15 15.9999 15Z" fill="white"/>
</g>
<defs>
<clipPath id="clip0_1751_32160">
<rect width="24" height="24" fill="white"/>
</clipPath>
</defs>
</svg>
