<svg width="30" height="30" viewBox="0 0 30 30" fill="none" xmlns="http://www.w3.org/2000/svg">
<g opacity="0.9">
<path d="M26.25 14.9999C25.9185 14.9999 25.6005 15.1316 25.3661 15.366C25.1317 15.6005 25 15.9184 25 16.2499V23.7499C25 24.0814 24.8683 24.3994 24.6339 24.6338C24.3995 24.8682 24.0815 24.9999 23.75 24.9999H6.25C5.91848 24.9999 5.60054 24.8682 5.36612 24.6338C5.1317 24.3994 5 24.0814 5 23.7499V6.24992C5 5.9184 5.1317 5.60046 5.36612 5.36604C5.60054 5.13162 5.91848 4.99992 6.25 4.99992H13.75C14.0815 4.99992 14.3995 4.86823 14.6339 4.63381C14.8683 4.39939 15 4.08144 15 3.74992C15 3.4184 14.8683 3.10046 14.6339 2.86604C14.3995 2.63162 14.0815 2.49992 13.75 2.49992H6.25C5.25544 2.49992 4.30161 2.89501 3.59835 3.59827C2.89509 4.30153 2.5 5.25536 2.5 6.24992V23.7499C2.5 24.7445 2.89509 25.6983 3.59835 26.4016C4.30161 27.1048 5.25544 27.4999 6.25 27.4999H23.75C24.7446 27.4999 25.6984 27.1048 26.4017 26.4016C27.1049 25.6983 27.5 24.7445 27.5 23.7499V16.2499C27.5 15.9184 27.3683 15.6005 27.1339 15.366C26.8995 15.1316 26.5815 14.9999 26.25 14.9999ZM7.5 15.9499V21.2499C7.5 21.5814 7.6317 21.8994 7.86612 22.1338C8.10054 22.3682 8.41848 22.4999 8.75 22.4999H14.05C14.2145 22.5009 14.3776 22.4693 14.5299 22.4071C14.6822 22.3449 14.8207 22.2533 14.9375 22.1374L23.5875 13.4749L27.1375 9.99992C27.2547 9.88372 27.3477 9.74547 27.4111 9.59314C27.4746 9.44082 27.5072 9.27744 27.5072 9.11242C27.5072 8.94741 27.4746 8.78403 27.4111 8.6317C27.3477 8.47938 27.2547 8.34113 27.1375 8.22492L21.8375 2.86242C21.7213 2.74526 21.583 2.65227 21.4307 2.58881C21.2784 2.52535 21.115 2.49268 20.95 2.49268C20.785 2.49268 20.6216 2.52535 20.4693 2.58881C20.317 2.65227 20.1787 2.74526 20.0625 2.86242L16.5375 6.39992L7.8625 15.0624C7.74665 15.1792 7.65499 15.3177 7.59279 15.47C7.53058 15.6223 7.49905 15.7854 7.5 15.9499ZM20.95 5.51242L24.4875 9.04992L22.7125 10.8249L19.175 7.28742L20.95 5.51242ZM10 16.4624L17.4125 9.04992L20.95 12.5874L13.5375 19.9999H10V16.4624Z" fill="#838F9C"/>
</g>
</svg>
