<svg width="18" height="23" viewBox="0 0 18 23" fill="none" xmlns="http://www.w3.org/2000/svg">
<path d="M14.7275 1.90396C13.6928 1.11321 12.4811 0.547073 11.1808 0.246852C9.88058 -0.0533695 8.52461 -0.0801001 7.21184 0.16861C5.46385 0.496678 3.86015 1.2998 2.60419 2.47609C1.34823 3.65237 0.496635 5.14879 0.157449 6.7755C-0.0902462 7.99518 -0.0452361 9.25062 0.289268 10.4523C0.623772 11.6539 1.23953 12.7722 2.09262 13.7274C2.88434 14.5575 3.33815 15.619 3.37524 16.7276V19.8638C3.37524 20.6956 3.73085 21.4933 4.36385 22.0814C4.99684 22.6696 5.85536 23 6.75055 23H11.251C12.1461 23 13.0047 22.6696 13.6377 22.0814C14.2707 21.4933 14.6263 20.6956 14.6263 19.8638V16.9263C14.664 15.7023 15.148 14.5265 15.9989 13.5915C17.4898 11.8778 18.1926 9.68673 17.9545 7.49434C17.7164 5.30194 16.5568 3.28544 14.7275 1.88306V1.90396ZM12.3761 19.8638C12.3761 20.1411 12.2575 20.407 12.0465 20.603C11.8355 20.7991 11.5494 20.9092 11.251 20.9092H6.75055C6.45215 20.9092 6.16598 20.7991 5.95498 20.603C5.74398 20.407 5.62545 20.1411 5.62545 19.8638V18.8184H12.3761V19.8638ZM14.255 12.2952C13.1237 13.5419 12.4637 15.099 12.3761 16.7276H10.1259V13.5915C10.1259 13.3142 10.0073 13.0483 9.79632 12.8523C9.58532 12.6562 9.29915 12.5461 9.00075 12.5461C8.70236 12.5461 8.41618 12.6562 8.20518 12.8523C7.99419 13.0483 7.87565 13.3142 7.87565 13.5915V16.7276H5.62545C5.59576 15.1262 4.9582 13.586 3.82528 12.3788C3.07781 11.5467 2.57517 10.5488 2.36637 9.48238C2.15758 8.416 2.24975 7.31755 2.6339 6.29412C3.01805 5.2707 3.68107 4.35723 4.55831 3.64279C5.43555 2.92835 6.49708 2.43732 7.63938 2.21758C8.62109 2.02977 9.63549 2.04744 10.6089 2.2693C11.5824 2.49116 12.4904 2.91164 13.2672 3.50023C14.0439 4.08881 14.6699 4.83073 15.0996 5.6721C15.5293 6.51348 15.7519 7.4332 15.7514 8.36449C15.7597 9.79654 15.2305 11.1865 14.255 12.2952Z" fill="#C5CEE0"/>
</svg>
