<svg width="60" height="60" viewBox="0 0 60 60" fill="none" xmlns="http://www.w3.org/2000/svg">
<g opacity="0.5">
<path d="M52.5 26.25H50V23.75C50 23.087 49.7366 22.4511 49.2678 21.9822C48.7989 21.5134 48.163 21.25 47.5 21.25C46.837 21.25 46.2011 21.5134 45.7322 21.9822C45.2634 22.4511 45 23.087 45 23.75V26.25H42.5C41.837 26.25 41.2011 26.5134 40.7322 26.9822C40.2634 27.4511 40 28.087 40 28.75C40 29.413 40.2634 30.0489 40.7322 30.5178C41.2011 30.9866 41.837 31.25 42.5 31.25H45V33.75C45 34.413 45.2634 35.0489 45.7322 35.5178C46.2011 35.9866 46.837 36.25 47.5 36.25C48.163 36.25 48.7989 35.9866 49.2678 35.5178C49.7366 35.0489 50 34.413 50 33.75V31.25H52.5C53.163 31.25 53.7989 30.9866 54.2678 30.5178C54.7366 30.0489 55 29.413 55 28.75C55 28.087 54.7366 27.4511 54.2678 26.9822C53.7989 26.5134 53.163 26.25 52.5 26.25ZM33.25 30.55C34.5839 29.3953 35.6539 27.9672 36.3872 26.3626C37.1205 24.7579 37.5 23.0143 37.5 21.25C37.5 17.9348 36.183 14.7554 33.8388 12.4112C31.4946 10.067 28.3152 8.75 25 8.75C21.6848 8.75 18.5054 10.067 16.1612 12.4112C13.817 14.7554 12.5 17.9348 12.5 21.25C12.5 23.0143 12.8795 24.7579 13.6128 26.3626C14.3461 27.9672 15.4161 29.3953 16.75 30.55C13.2503 32.1347 10.2812 34.6938 8.19745 37.9214C6.11374 41.1489 5.00368 44.9083 5 48.75C5 49.413 5.26339 50.0489 5.73223 50.5178C6.20107 50.9866 6.83696 51.25 7.5 51.25C8.16304 51.25 8.79893 50.9866 9.26777 50.5178C9.73661 50.0489 10 49.413 10 48.75C10 44.7718 11.5804 40.9564 14.3934 38.1434C17.2064 35.3304 21.0218 33.75 25 33.75C28.9782 33.75 32.7936 35.3304 35.6066 38.1434C38.4196 40.9564 40 44.7718 40 48.75C40 49.413 40.2634 50.0489 40.7322 50.5178C41.2011 50.9866 41.837 51.25 42.5 51.25C43.163 51.25 43.7989 50.9866 44.2678 50.5178C44.7366 50.0489 45 49.413 45 48.75C44.9963 44.9083 43.8863 41.1489 41.8026 37.9214C39.7188 34.6938 36.7497 32.1347 33.25 30.55ZM25 28.75C23.5166 28.75 22.0666 28.3101 20.8332 27.486C19.5999 26.6619 18.6386 25.4906 18.0709 24.1201C17.5032 22.7497 17.3547 21.2417 17.6441 19.7868C17.9335 18.332 18.6478 16.9956 19.6967 15.9467C20.7456 14.8978 22.082 14.1835 23.5368 13.8941C24.9917 13.6047 26.4997 13.7532 27.8701 14.3209C29.2406 14.8886 30.4119 15.8499 31.236 17.0832C32.0601 18.3166 32.5 19.7666 32.5 21.25C32.5 23.2391 31.7098 25.1468 30.3033 26.5533C28.8968 27.9598 26.9891 28.75 25 28.75Z" fill="#838F9C"/>
</g>
</svg>
