<svg width="24" height="24" viewBox="0 0 24 24" fill="none" xmlns="http://www.w3.org/2000/svg">
<mask id="path-1-inside-1_1747_31797" fill="white">
<path d="M11.29 15.29C11.247 15.3375 11.2069 15.3876 11.17 15.44C11.1322 15.4957 11.1019 15.5563 11.08 15.62C11.0512 15.6767 11.031 15.7374 11.02 15.8C11.0151 15.8666 11.0151 15.9334 11.02 16C11.0166 16.1312 11.044 16.2613 11.1 16.38C11.1449 16.5041 11.2166 16.6168 11.3099 16.7101C11.4032 16.8034 11.5159 16.8751 11.64 16.92C11.7597 16.9729 11.8891 17.0002 12.02 17.0002C12.1509 17.0002 12.2803 16.9729 12.4 16.92C12.5241 16.8751 12.6368 16.8034 12.7301 16.7101C12.8234 16.6168 12.8951 16.5041 12.94 16.38C12.9844 16.2584 13.0048 16.1294 13 16C13.0008 15.8684 12.9755 15.7379 12.9258 15.6161C12.876 15.4943 12.8027 15.3834 12.71 15.29C12.617 15.1963 12.5064 15.1219 12.3846 15.0711C12.2627 15.0203 12.132 14.9942 12 14.9942C11.868 14.9942 11.7373 15.0203 11.6154 15.0711C11.4936 15.1219 11.383 15.1963 11.29 15.29ZM12 2C10.0222 2 8.08879 2.58649 6.4443 3.6853C4.79981 4.78412 3.51809 6.3459 2.76121 8.17317C2.00433 10.0004 1.8063 12.0111 2.19215 13.9509C2.578 15.8907 3.53041 17.6725 4.92894 19.0711C6.32746 20.4696 8.10929 21.422 10.0491 21.8079C11.9889 22.1937 13.9996 21.9957 15.8268 21.2388C17.6541 20.4819 19.2159 19.2002 20.3147 17.5557C21.4135 15.9112 22 13.9778 22 12C22 10.6868 21.7413 9.38642 21.2388 8.17317C20.7363 6.95991 19.9997 5.85752 19.0711 4.92893C18.1425 4.00035 17.0401 3.26375 15.8268 2.7612C14.6136 2.25866 13.3132 2 12 2ZM12 20C10.4178 20 8.87104 19.5308 7.55544 18.6518C6.23985 17.7727 5.21447 16.5233 4.60897 15.0615C4.00347 13.5997 3.84504 11.9911 4.15372 10.4393C4.4624 8.88743 5.22433 7.46197 6.34315 6.34315C7.46197 5.22433 8.88743 4.4624 10.4393 4.15372C11.9911 3.84504 13.5997 4.00346 15.0615 4.60896C16.5233 5.21447 17.7727 6.23984 18.6518 7.55544C19.5308 8.87103 20 10.4177 20 12C20 14.1217 19.1572 16.1566 17.6569 17.6569C16.1566 19.1571 14.1217 20 12 20ZM12 7C11.4731 6.99966 10.9553 7.13812 10.4989 7.40144C10.0425 7.66476 9.66347 8.04366 9.4 8.5C9.32765 8.61382 9.27907 8.7411 9.25718 8.87418C9.23529 9.00726 9.24055 9.14339 9.27263 9.27439C9.30472 9.40538 9.36297 9.52854 9.44389 9.63643C9.52481 9.74433 9.62671 9.83475 9.74348 9.90224C9.86024 9.96974 9.98945 10.0129 10.1233 10.0292C10.2572 10.0454 10.393 10.0345 10.5225 9.99688C10.6521 9.9593 10.7727 9.89591 10.8771 9.81052C10.9814 9.72513 11.0675 9.6195 11.13 9.5C11.2181 9.3474 11.345 9.22078 11.4978 9.13298C11.6505 9.04518 11.8238 8.9993 12 9C12.2652 9 12.5196 9.10536 12.7071 9.29289C12.8946 9.48043 13 9.73478 13 10C13 10.2652 12.8946 10.5196 12.7071 10.7071C12.5196 10.8946 12.2652 11 12 11C11.7348 11 11.4804 11.1054 11.2929 11.2929C11.1054 11.4804 11 11.7348 11 12V13C11 13.2652 11.1054 13.5196 11.2929 13.7071C11.4804 13.8946 11.7348 14 12 14C12.2652 14 12.5196 13.8946 12.7071 13.7071C12.8946 13.5196 13 13.2652 13 13V12.82C13.6614 12.58 14.2174 12.1152 14.5708 11.5069C14.9242 10.8985 15.0525 10.1853 14.9334 9.49189C14.8143 8.79849 14.4552 8.16902 13.919 7.71352C13.3828 7.25801 12.7035 7.00546 12 7Z"/>
</mask>
<path d="M11.29 15.29C11.247 15.3375 11.2069 15.3876 11.17 15.44C11.1322 15.4957 11.1019 15.5563 11.08 15.62C11.0512 15.6767 11.031 15.7374 11.02 15.8C11.0151 15.8666 11.0151 15.9334 11.02 16C11.0166 16.1312 11.044 16.2613 11.1 16.38C11.1449 16.5041 11.2166 16.6168 11.3099 16.7101C11.4032 16.8034 11.5159 16.8751 11.64 16.92C11.7597 16.9729 11.8891 17.0002 12.02 17.0002C12.1509 17.0002 12.2803 16.9729 12.4 16.92C12.5241 16.8751 12.6368 16.8034 12.7301 16.7101C12.8234 16.6168 12.8951 16.5041 12.94 16.38C12.9844 16.2584 13.0048 16.1294 13 16C13.0008 15.8684 12.9755 15.7379 12.9258 15.6161C12.876 15.4943 12.8027 15.3834 12.71 15.29C12.617 15.1963 12.5064 15.1219 12.3846 15.0711C12.2627 15.0203 12.132 14.9942 12 14.9942C11.868 14.9942 11.7373 15.0203 11.6154 15.0711C11.4936 15.1219 11.383 15.1963 11.29 15.29ZM12 2C10.0222 2 8.08879 2.58649 6.4443 3.6853C4.79981 4.78412 3.51809 6.3459 2.76121 8.17317C2.00433 10.0004 1.8063 12.0111 2.19215 13.9509C2.578 15.8907 3.53041 17.6725 4.92894 19.0711C6.32746 20.4696 8.10929 21.422 10.0491 21.8079C11.9889 22.1937 13.9996 21.9957 15.8268 21.2388C17.6541 20.4819 19.2159 19.2002 20.3147 17.5557C21.4135 15.9112 22 13.9778 22 12C22 10.6868 21.7413 9.38642 21.2388 8.17317C20.7363 6.95991 19.9997 5.85752 19.0711 4.92893C18.1425 4.00035 17.0401 3.26375 15.8268 2.7612C14.6136 2.25866 13.3132 2 12 2ZM12 20C10.4178 20 8.87104 19.5308 7.55544 18.6518C6.23985 17.7727 5.21447 16.5233 4.60897 15.0615C4.00347 13.5997 3.84504 11.9911 4.15372 10.4393C4.4624 8.88743 5.22433 7.46197 6.34315 6.34315C7.46197 5.22433 8.88743 4.4624 10.4393 4.15372C11.9911 3.84504 13.5997 4.00346 15.0615 4.60896C16.5233 5.21447 17.7727 6.23984 18.6518 7.55544C19.5308 8.87103 20 10.4177 20 12C20 14.1217 19.1572 16.1566 17.6569 17.6569C16.1566 19.1571 14.1217 20 12 20ZM12 7C11.4731 6.99966 10.9553 7.13812 10.4989 7.40144C10.0425 7.66476 9.66347 8.04366 9.4 8.5C9.32765 8.61382 9.27907 8.7411 9.25718 8.87418C9.23529 9.00726 9.24055 9.14339 9.27263 9.27439C9.30472 9.40538 9.36297 9.52854 9.44389 9.63643C9.52481 9.74433 9.62671 9.83475 9.74348 9.90224C9.86024 9.96974 9.98945 10.0129 10.1233 10.0292C10.2572 10.0454 10.393 10.0345 10.5225 9.99688C10.6521 9.9593 10.7727 9.89591 10.8771 9.81052C10.9814 9.72513 11.0675 9.6195 11.13 9.5C11.2181 9.3474 11.345 9.22078 11.4978 9.13298C11.6505 9.04518 11.8238 8.9993 12 9C12.2652 9 12.5196 9.10536 12.7071 9.29289C12.8946 9.48043 13 9.73478 13 10C13 10.2652 12.8946 10.5196 12.7071 10.7071C12.5196 10.8946 12.2652 11 12 11C11.7348 11 11.4804 11.1054 11.2929 11.2929C11.1054 11.4804 11 11.7348 11 12V13C11 13.2652 11.1054 13.5196 11.2929 13.7071C11.4804 13.8946 11.7348 14 12 14C12.2652 14 12.5196 13.8946 12.7071 13.7071C12.8946 13.5196 13 13.2652 13 13V12.82C13.6614 12.58 14.2174 12.1152 14.5708 11.5069C14.9242 10.8985 15.0525 10.1853 14.9334 9.49189C14.8143 8.79849 14.4552 8.16902 13.919 7.71352C13.3828 7.25801 12.7035 7.00546 12 7Z" fill="#425466"/>
<path d="M11.29 15.29L9.515 13.5295L9.47474 13.5701L9.43638 13.6125L11.29 15.29ZM11.17 15.44L9.12651 13.9998L9.11392 14.0177L9.10165 14.0358L11.17 15.44ZM11.08 15.62L13.3083 16.7534L13.3876 16.5975L13.4444 16.4321L11.08 15.62ZM11.02 15.8L8.55731 15.3697L8.53591 15.4922L8.52677 15.6162L11.02 15.8ZM11.02 16L13.5192 16.0644L13.5224 15.9401L13.5132 15.8162L11.02 16ZM11.1 16.38L13.4508 15.5292L13.411 15.4192L13.3611 15.3134L11.1 16.38ZM11.64 16.92L12.6506 14.6334L12.5718 14.5985L12.4908 14.5692L11.64 16.92ZM12.4 16.92L11.5492 14.5692L11.4682 14.5985L11.3894 14.6334L12.4 16.92ZM12.94 16.38L10.5917 15.5224L10.5892 15.5292L12.94 16.38ZM13 16L10.5 15.9855L10.4997 16.039L10.5017 16.0924L13 16ZM12.71 15.29L10.935 17.0505L10.935 17.0505L12.71 15.29ZM12 14.9942V12.4942V14.9942ZM22 12H24.5H22ZM20 12H22.5H20ZM9.4 8.5L11.5098 9.84119L11.5384 9.79618L11.5651 9.75L9.4 8.5ZM11.13 9.5L8.96493 8.25002L8.93891 8.29508L8.91479 8.34119L11.13 9.5ZM12 9L11.9901 11.5H12V9ZM13 12.82L12.1473 10.4699L10.5 11.0676V12.82H13ZM9.43638 13.6125C9.32533 13.7352 9.22185 13.8645 9.12651 13.9998L13.2135 16.8802C13.192 16.9107 13.1687 16.9399 13.1436 16.9675L9.43638 13.6125ZM9.10165 14.0358C8.93931 14.2749 8.80948 14.5345 8.7156 14.8079L13.4444 16.4321C13.3943 16.578 13.325 16.7166 13.2384 16.8442L9.10165 14.0358ZM8.85169 14.4866C8.71022 14.7647 8.61101 15.0624 8.55731 15.3697L13.4827 16.2303C13.4509 16.4123 13.3921 16.5886 13.3083 16.7534L8.85169 14.4866ZM8.52677 15.6162C8.51284 15.8051 8.51284 15.9949 8.52677 16.1838L13.5132 15.8162C13.5174 15.872 13.5174 15.928 13.5132 15.9838L8.52677 15.6162ZM8.52083 15.9356C8.50739 16.4572 8.61634 16.9747 8.83893 17.4466L13.3611 15.3134C13.4717 15.548 13.5259 15.8052 13.5192 16.0644L8.52083 15.9356ZM8.74922 17.2308C8.91889 17.6996 9.18957 18.1253 9.54212 18.4779L13.0777 14.9423C13.2436 15.1083 13.3709 15.3086 13.4508 15.5292L8.74922 17.2308ZM9.54212 18.4779C9.89467 18.8304 10.3204 19.1011 10.7892 19.2708L12.4908 14.5692C12.7114 14.6491 12.9118 14.7764 13.0777 14.9423L9.54212 18.4779ZM10.6294 19.2066C11.0674 19.4002 11.5411 19.5002 12.02 19.5002V14.5002C12.2372 14.5002 12.452 14.5456 12.6506 14.6334L10.6294 19.2066ZM12.02 19.5002C12.4989 19.5002 12.9726 19.4002 13.4106 19.2066L11.3894 14.6334C11.588 14.5456 11.8028 14.5002 12.02 14.5002V19.5002ZM13.2508 19.2708C13.7196 19.1011 14.1453 18.8304 14.4979 18.4779L10.9624 14.9423C11.1283 14.7764 11.3286 14.6491 11.5492 14.5692L13.2508 19.2708ZM14.4979 18.4779C14.8504 18.1253 15.1211 17.6996 15.2908 17.2308L10.5892 15.5292C10.6691 15.3086 10.7964 15.1083 10.9624 14.9423L14.4979 18.4779ZM15.2883 17.2376C15.4437 16.8121 15.515 16.3604 15.4983 15.9076L10.5017 16.0924C10.4945 15.8983 10.5251 15.7048 10.5917 15.5224L15.2883 17.2376ZM15.5 16.0145C15.5026 15.5538 15.4143 15.0972 15.2402 14.6708L10.6114 16.5614C10.5367 16.3787 10.4989 16.183 10.5 15.9855L15.5 16.0145ZM15.2402 14.6708C15.066 14.2444 14.8094 13.8565 14.485 13.5295L10.935 17.0505C10.796 16.9104 10.686 16.7442 10.6114 16.5614L15.2402 14.6708ZM14.485 13.5295C14.1596 13.2014 13.7725 12.9411 13.346 12.7634L11.4231 17.3788C11.2404 17.3027 11.0745 17.1911 10.935 17.0505L14.485 13.5295ZM13.346 12.7634C12.9195 12.5857 12.462 12.4942 12 12.4942V17.4942C11.802 17.4942 11.6059 17.455 11.4231 17.3788L13.346 12.7634ZM12 12.4942C11.538 12.4942 11.0805 12.5857 10.654 12.7634L12.5769 17.3788C12.3941 17.455 12.198 17.4942 12 17.4942V12.4942ZM10.654 12.7634C10.2275 12.9411 9.84038 13.2014 9.515 13.5295L13.065 17.0505C12.9256 17.1911 12.7597 17.3027 12.5769 17.3788L10.654 12.7634ZM12 -0.5C9.52774 -0.5 7.11099 0.233112 5.05538 1.60663L7.83323 5.76398C9.0666 4.93987 10.5166 4.5 12 4.5V-0.5ZM5.05538 1.60663C2.99976 2.98015 1.39761 4.93238 0.45151 7.21646L5.07091 9.12987C5.63857 7.75943 6.59986 6.58809 7.83323 5.76398L5.05538 1.60663ZM0.45151 7.21646C-0.494585 9.50053 -0.742127 12.0139 -0.259811 14.4386L4.64411 13.4632C4.35473 12.0083 4.50325 10.5003 5.07091 9.12987L0.45151 7.21646ZM-0.259811 14.4386C0.222504 16.8634 1.41301 19.0907 3.16117 20.8388L6.6967 17.3033C5.64781 16.2544 4.9335 14.918 4.64411 13.4632L-0.259811 14.4386ZM3.16117 20.8388C4.90933 22.587 7.13661 23.7775 9.56138 24.2598L10.5368 19.3559C9.08197 19.0665 7.7456 18.3522 6.6967 17.3033L3.16117 20.8388ZM9.56138 24.2598C11.9861 24.7421 14.4995 24.4946 16.7835 23.5485L14.8701 18.9291C13.4997 19.4968 11.9917 19.6453 10.5368 19.3559L9.56138 24.2598ZM16.7835 23.5485C19.0676 22.6024 21.0199 21.0002 22.3934 18.9446L18.236 16.1668C17.4119 17.4001 16.2406 18.3614 14.8701 18.9291L16.7835 23.5485ZM22.3934 18.9446C23.7669 16.889 24.5 14.4723 24.5 12H19.5C19.5 13.4834 19.0601 14.9334 18.236 16.1668L22.3934 18.9446ZM24.5 12C24.5 10.3585 24.1767 8.73303 23.5485 7.21646L18.9291 9.12987C19.306 10.0398 19.5 11.0151 19.5 12H24.5ZM23.5485 7.21646C22.9203 5.69989 21.9996 4.3219 20.8388 3.16117L17.3033 6.6967C17.9997 7.39314 18.5522 8.21993 18.9291 9.12987L23.5485 7.21646ZM20.8388 3.16117C19.6781 2.00043 18.3001 1.07969 16.7835 0.451506L14.8701 5.0709C15.7801 5.44781 16.6069 6.00026 17.3033 6.6967L20.8388 3.16117ZM16.7835 0.451506C15.267 -0.176678 13.6415 -0.5 12 -0.5V4.5C12.9849 4.5 13.9602 4.69399 14.8701 5.0709L16.7835 0.451506ZM12 17.5C10.9122 17.5 9.84884 17.1774 8.94437 16.5731L6.16652 20.7304C7.89323 21.8842 9.9233 22.5 12 22.5V17.5ZM8.94437 16.5731C8.0399 15.9687 7.33495 15.1098 6.91867 14.1048L2.29927 16.0182C3.09399 17.9368 4.4398 19.5767 6.16652 20.7304L8.94437 16.5731ZM6.91867 14.1048C6.50239 13.0998 6.39347 11.9939 6.60569 10.927L1.70176 9.95155C1.29661 11.9884 1.50455 14.0996 2.29927 16.0182L6.91867 14.1048ZM6.60569 10.927C6.8179 9.86011 7.34173 8.8801 8.11092 8.11091L4.57538 4.57538C3.10693 6.04383 2.1069 7.91475 1.70176 9.95155L6.60569 10.927ZM8.11092 8.11091C8.88011 7.34172 9.86011 6.8179 10.927 6.60568L9.95156 1.70175C7.91476 2.1069 6.04383 3.10693 4.57538 4.57538L8.11092 8.11091ZM10.927 6.60568C11.9939 6.39346 13.0998 6.50238 14.1048 6.91866L16.0182 2.29927C14.0996 1.50455 11.9884 1.29661 9.95156 1.70175L10.927 6.60568ZM14.1048 6.91866C15.1098 7.33494 15.9687 8.03989 16.5731 8.94436L20.7304 6.16651C19.5767 4.4398 17.9368 3.09399 16.0182 2.29927L14.1048 6.91866ZM16.5731 8.94436C17.1774 9.84883 17.5 10.9122 17.5 12H22.5C22.5 9.9233 21.8842 7.89323 20.7304 6.16651L16.5731 8.94436ZM17.5 12C17.5 13.4587 16.9205 14.8576 15.8891 15.8891L19.4246 19.4246C21.3938 17.4555 22.5 14.7848 22.5 12H17.5ZM15.8891 15.8891C14.8576 16.9205 13.4587 17.5 12 17.5V22.5C14.7848 22.5 17.4555 21.3938 19.4246 19.4246L15.8891 15.8891ZM12.0016 4.5C11.0356 4.49938 10.0864 4.75322 9.24961 5.23598L11.7482 9.56691C11.8243 9.52302 11.9106 9.49994 11.9984 9.5L12.0016 4.5ZM9.24961 5.23598C8.41283 5.71873 7.71797 6.41338 7.23494 7.25L11.5651 9.75C11.609 9.67394 11.6721 9.61079 11.7482 9.56691L9.24961 5.23598ZM7.29021 7.15881C7.03697 7.55718 6.86694 8.00265 6.79032 8.46843L11.724 9.27992C11.6912 9.47954 11.6183 9.67046 11.5098 9.84119L7.29021 7.15881ZM6.79032 8.46843C6.71371 8.93421 6.73211 9.41067 6.84442 9.86916L11.7009 8.67961C11.749 8.87611 11.7569 9.08031 11.724 9.27992L6.79032 8.46843ZM6.84442 9.86916C6.95672 10.3276 7.16061 10.7587 7.44381 11.1363L11.444 8.13654C11.5653 8.29839 11.6527 8.48312 11.7009 8.67961L6.84442 9.86916ZM7.44381 11.1363C7.72702 11.514 8.08368 11.8304 8.49236 12.0667L10.9946 7.73782C11.1697 7.83907 11.3226 7.97469 11.444 8.13654L7.44381 11.1363ZM8.49236 12.0667C8.90105 12.3029 9.35329 12.454 9.82188 12.5109L10.4248 7.54742C10.6256 7.57181 10.8194 7.63658 10.9946 7.73782L8.49236 12.0667ZM9.82188 12.5109C10.2905 12.5679 10.7657 12.5294 11.2191 12.3979L9.82599 7.59587C10.0203 7.53951 10.224 7.52303 10.4248 7.54742L9.82188 12.5109ZM11.2191 12.3979C11.6724 12.2664 12.0945 12.0445 12.4599 11.7456L9.29422 7.87541C9.45081 7.74733 9.63169 7.65224 9.82599 7.59587L11.2191 12.3979ZM12.4599 11.7456C12.8253 11.4468 13.1264 11.0771 13.3452 10.6588L8.91479 8.34119C9.00857 8.16193 9.13764 8.00349 9.29422 7.87541L12.4599 11.7456ZM13.2951 10.75C13.1629 10.9789 12.9726 11.1688 12.7435 11.3005L10.252 6.96544C9.71732 7.27275 9.2733 7.7159 8.96493 8.25002L13.2951 10.75ZM12.7435 11.3005C12.5143 11.4322 12.2544 11.501 11.9901 11.5L12.0099 6.50002C11.3932 6.49757 10.7868 6.65813 10.252 6.96544L12.7435 11.3005ZM12 11.5C11.6022 11.5 11.2206 11.342 10.9393 11.0607L14.4749 7.52513C13.8185 6.86875 12.9283 6.5 12 6.5V11.5ZM10.9393 11.0607C10.658 10.7794 10.5 10.3978 10.5 10H15.5C15.5 9.07174 15.1313 8.1815 14.4749 7.52513L10.9393 11.0607ZM10.5 10C10.5 9.60217 10.658 9.22064 10.9393 8.93934L14.4749 12.4749C15.1313 11.8185 15.5 10.9283 15.5 10H10.5ZM10.9393 8.93934C11.2206 8.65804 11.6022 8.5 12 8.5V13.5C12.9283 13.5 13.8185 13.1312 14.4749 12.4749L10.9393 8.93934ZM12 8.5C11.0717 8.5 10.1815 8.86875 9.52513 9.52513L13.0607 13.0607C12.7794 13.342 12.3978 13.5 12 13.5V8.5ZM9.52513 9.52513C8.86876 10.1815 8.5 11.0717 8.5 12H13.5C13.5 12.3978 13.342 12.7794 13.0607 13.0607L9.52513 9.52513ZM8.5 12V13H13.5V12H8.5ZM8.5 13C8.5 13.9283 8.86876 14.8185 9.52513 15.4749L13.0607 11.9393C13.342 12.2206 13.5 12.6022 13.5 13H8.5ZM9.52513 15.4749C10.1815 16.1312 11.0717 16.5 12 16.5V11.5C12.3978 11.5 12.7794 11.658 13.0607 11.9393L9.52513 15.4749ZM12 16.5C12.9283 16.5 13.8185 16.1312 14.4749 15.4749L10.9393 11.9393C11.2206 11.658 11.6022 11.5 12 11.5V16.5ZM14.4749 15.4749C15.1313 14.8185 15.5 13.9283 15.5 13H10.5C10.5 12.6022 10.658 12.2206 10.9393 11.9393L14.4749 15.4749ZM15.5 13V12.82H10.5V13H15.5ZM13.8527 15.1701C15.0652 14.7301 16.0846 13.878 16.7325 12.7627L12.4091 10.2511C12.3502 10.3525 12.2575 10.4299 12.1473 10.4699L13.8527 15.1701ZM16.7325 12.7627C17.3804 11.6473 17.6157 10.3398 17.3973 9.06854L12.4695 9.91524C12.4894 10.0308 12.468 10.1497 12.4091 10.2511L16.7325 12.7627ZM17.3973 9.06854C17.1789 7.79731 16.5206 6.64328 15.5376 5.80819L12.3004 9.61884C12.3898 9.69476 12.4497 9.79967 12.4695 9.91524L17.3973 9.06854ZM15.5376 5.80819C14.5545 4.9731 13.3092 4.51008 12.0194 4.50008L11.9806 9.49992C12.0979 9.50083 12.2111 9.54293 12.3004 9.61884L15.5376 5.80819Z" fill="#425466" mask="url(#path-1-inside-1_1747_31797)"/>
</svg>
